<svg xmlns="http://www.w3.org/2000/svg" version="1.1" xmlns:xlink="http://www.w3.org/1999/xlink" xmlns:svgjs="http://svgjs.com/svgjs" width="1920" height="480" preserveAspectRatio="none" viewBox="0 0 1920 480"><g mask="url(&quot;#SvgjsMask1011&quot;)" fill="none"><path d="M600 83.77C581.62 83.77 575.38 102.89 575.38 120C575.38 133.98 583.87 145.95 600 145.95C649.51 145.95 706.67 135.34 706.67 120C706.67 104.25 647.27 83.77 600 83.77" stroke="rgba(33, 70, 84, 0.13333333333333333)" stroke-width="2"></path><path d="M720 141.82C704.5 141.82 703.88 191.08 703.88 240C703.88 278.74 704.91 317.14 720 317.14C737.51 317.14 769.09 279.84 769.09 240C769.09 192.18 737.1 141.82 720 141.82" stroke="rgba(33, 70, 84, 0.13333333333333333)" stroke-width="2"></path><path d="M960 229.33C947.36 229.33 931.76 235.56 931.76 240C931.76 244.27 946.64 246.76 960 246.76C964.97 246.76 968.42 243.86 968.42 240C968.42 235.14 965.69 229.33 960 229.33" stroke="rgba(33, 70, 84, 0.13333333333333333)" stroke-width="2"></path><path d="M1440 140C1402.13 146.57 1393.19 188.16 1390 240C1386.43 298.16 1406.79 300.54 1426.48 360C1431.79 376.02 1432.33 390.97 1440 390.97C1448.14 390.97 1445.58 372.63 1458.11 360C1505.58 312.14 1511.72 317.35 1560 270C1572.89 257.35 1580.45 254.96 1580.45 240C1580.45 225.21 1574.4 220.74 1560 210.49C1504.18 170.74 1487.13 131.82 1440 140" stroke="rgba(33, 70, 84, 0.13333333333333333)" stroke-width="2"></path><path d="M480 340C461.28 340 435.79 351.69 435.79 360C435.79 367.86 459.74 372.35 480 372.35C487.23 372.35 490.77 366.78 490.77 360C490.77 350.6 488.77 340 480 340" stroke="rgba(33, 70, 84, 0.13333333333333333)" stroke-width="2"></path><path d="M48 120C62.61 82.23 87.34 64.62 120 64.62C145.5 64.62 154.34 87.49 164.31 120C181.23 175.18 175.86 180.23 173.79 240C171.7 300.23 137.34 314.34 156 360C170.45 395.34 204.2 373.17 240 402C278.7 433.17 305 456.22 305 480C305 495.22 272.5 480 240 480C180 480 180 480 120 480C60 480 34.05 505.95 0 480C-25.95 460.23 -19.97 420.52 0 388.57C17.53 360.52 64.66 389.45 75 360C90.74 315.17 58.98 300.52 52.17 240C45.48 180.52 28.69 169.92 48 120" stroke="rgba(33, 70, 84, 0.13333333333333333)" stroke-width="2"></path><path d="M379.09 120C385.28 79.34 433.63 60.8 480 60.8C512.55 60.8 508.56 90.3 536.92 120C568.56 153.15 567.33 154.4 600 186.49C628.42 214.4 642.61 205.79 659.1 240C684.43 292.55 698.78 308.46 683.64 360C669.23 409.05 642.68 401.53 600 441.18C578.1 461.53 581.21 471.35 554.48 480C521.21 490.76 517.24 480 480 480C442.76 480 405.52 493.73 405.52 480C405.52 461.96 444.96 450.46 480 416.47C506.82 390.46 529.23 390.99 529.23 360C529.23 317.04 507.71 312.04 480 268.57C469.46 252.04 463.78 256.27 452.73 240C413.33 181.99 371.64 168.94 379.09 120" stroke="rgba(33, 70, 84, 0.13333333333333333)" stroke-width="2"></path><path d="M600 27.17C585.17 27.17 571.2 7.86 571.2 0C571.2 -5.72 585.6 0 600 0C616.37 0 632.73 -5.91 632.73 0C632.73 7.68 615.93 27.17 600 27.17" stroke="rgba(33, 70, 84, 0.13333333333333333)" stroke-width="2"></path><path d="M769.29 120C755.66 66.12 762.71 41.85 787.37 0C798.06 -18.15 813.68 0 840 0C885.45 0 892.05 -12.95 930.91 0C952.05 7.05 938.31 32.55 960 40C1012.85 58.16 1024.03 62.37 1080 51.22C1124.42 42.37 1118.22 18.16 1160.77 0C1178.22 -7.45 1180.39 0 1200 0C1260 0 1260 0 1320 0C1380 0 1380 0 1440 0C1478.92 0 1484.52 -12.74 1517.84 0C1544.52 10.2 1534.13 29.42 1560 45.88C1615.21 81.02 1628.01 114.44 1680 103.2C1734.08 91.5 1722.2 42.95 1772.14 0C1782.2 -8.65 1786.07 0 1800 0C1812.58 0 1816.59 -8.39 1825.16 0C1876.59 50.41 1873.32 58.54 1920 117.6C1920.74 118.54 1920 118.8 1920 120C1920 122.31 1921.31 122.73 1920 124.62C1879.64 182.73 1836.67 183.41 1836.67 240C1836.67 292.82 1882.95 290.1 1920 343.45C1924.62 350.1 1920 351.73 1920 360C1920 420 1935.96 435.96 1920 480C1914.22 495.96 1890.9 493.75 1876.52 480C1830.9 436.36 1834.94 365.22 1800 365.22C1767.35 365.22 1781.99 441.11 1741.33 480C1721.99 498.5 1710.66 480 1680 480C1646.34 480 1637.81 496.15 1612.68 480C1577.81 457.58 1589.37 438.84 1560 402.86C1540.39 378.84 1514.72 381.04 1514.72 360C1514.72 339.61 1540.82 343.05 1560 320C1590.74 283.05 1614.55 279.89 1614.55 240C1614.55 200.55 1592.71 195.14 1560 161.31C1534.7 135.14 1527.38 143.04 1498.54 120C1467.38 95.11 1469.11 65.45 1440 65.45C1411.27 65.45 1402 86.6 1382.86 120C1352 173.87 1339.66 180.11 1340 240C1340.34 300.11 1361.1 300.39 1384.23 360C1407.67 420.39 1450.29 447.97 1433.14 480C1418.17 507.97 1376.57 480 1320 480C1260 480 1260 480 1200 480C1176.14 480 1152.29 494.51 1152.29 480C1152.29 448.46 1173.29 431.99 1200 387.91C1209.65 371.99 1225 376.42 1225 360C1225 327.17 1220.49 289.41 1200 289.41C1172.69 289.41 1168.97 331.87 1129.41 360C1108.97 374.53 1103.14 363.64 1080 374.74C1018.43 404.28 1020.53 409.02 960 441.29C921.82 461.65 922.8 467.03 882.58 480C862.8 486.38 861.29 480 840 480C796 480 752 495.93 752 480C752 459.26 803.34 448.51 840 406.67C855.91 388.51 840.06 376.74 857.14 360C900.06 317.91 909.61 325.9 960 289.01C991.56 265.9 1021.05 267.97 1021.05 240C1021.05 204.8 999.32 169.62 960 162.67C908.8 153.62 890.72 219.35 840 208C795.36 198.01 781.97 170.12 769.29 120" stroke="rgba(33, 70, 84, 0.13333333333333333)" stroke-width="2"></path><path d="M1200 52.31C1177.29 52.31 1161.74 85.04 1161.74 120C1161.74 164.4 1176.65 211.03 1200 211.03C1225.78 211.03 1260 163.37 1260 120C1260 84.01 1226.42 52.31 1200 52.31" stroke="rgba(33, 70, 84, 0.13333333333333333)" stroke-width="2"></path><path d="M447.27 120C447.27 106.31 464.96 100.8 480 100.8C490.56 100.8 498.46 108.37 498.46 120C498.46 144.64 492.14 173.33 480 173.33C466.54 173.33 447.27 142.57 447.27 120" stroke="rgba(33, 70, 84, 0.13333333333333333)" stroke-width="2"></path><path d="M822.86 120C822.86 62.35 822.42 0 840 0C859.23 0 896.47 71.44 896.47 120C896.47 142.1 865.33 141.33 840 141.33C828.52 141.33 822.86 133.01 822.86 120" stroke="rgba(33, 70, 84, 0.13333333333333333)" stroke-width="2"></path><path d="M994.84 120C996.07 90.47 1040.17 87.8 1080 87.8C1101.88 87.8 1115.77 97.86 1118.26 120C1124.34 173.96 1113.1 182.81 1097.14 240C1093.97 251.38 1086.69 257.14 1080 257.14C1074.96 257.14 1078.49 247.74 1073.68 240C1035.91 179.17 992.91 166.57 994.84 120" stroke="rgba(33, 70, 84, 0.13333333333333333)" stroke-width="2"></path><path d="M1745.45 120C1775.82 89.79 1774.06 53.33 1800 53.33C1824.41 53.33 1846.15 87.06 1846.15 120C1846.15 151.43 1823.46 151.33 1800 182.07C1777.68 211.33 1777.59 211.27 1754.59 240C1717.59 286.23 1709.1 332 1680 332C1656.12 332 1648.64 285.16 1648.64 240C1648.64 205.5 1657.29 200.83 1680 172.68C1705.69 140.83 1715.82 149.46 1745.45 120" stroke="rgba(33, 70, 84, 0.13333333333333333)" stroke-width="2"></path><path d="M117.39 240C117.39 210.24 118.83 180 120 180C121.17 180 122.07 210.16 122.07 240C122.07 243.16 121.15 246 120 246C118.81 246 117.39 243.24 117.39 240" stroke="rgba(33, 70, 84, 0.13333333333333333)" stroke-width="2"></path><path d="M558.26 240C562.56 222.29 580.56 227.03 600 227.03C608.6 227.03 611.73 230.93 614.33 240C630.82 297.41 643.17 305.27 638.18 360C636.01 383.8 618.32 397.06 600 397.06C583.07 397.06 573.74 382.77 567.69 360C552.87 304.24 546.41 288.77 558.26 240" stroke="rgba(33, 70, 84, 0.13333333333333333)" stroke-width="2"></path><path d="M918.37 360C918.37 344.96 938.13 331.27 960 331.27C988.09 331.27 1018.29 344.82 1018.29 360C1018.29 375.64 987.87 392.9 960 392.9C937.91 392.9 918.37 375.78 918.37 360" stroke="rgba(33, 70, 84, 0.13333333333333333)" stroke-width="2"></path><path d="M1287.5 360C1307.28 334.72 1305.88 304.29 1320 304.29C1333.11 304.29 1337.41 330.77 1341.97 360C1351.12 418.63 1356.37 431.15 1347.43 480C1345.39 491.15 1333.72 480 1320 480C1260 480 1260 480 1200 480C1194.22 480 1188.43 483.52 1188.43 480C1188.43 472.35 1192.03 467.33 1200 457.67C1241.56 407.33 1247.28 411.41 1287.5 360" stroke="rgba(33, 70, 84, 0.13333333333333333)" stroke-width="2"></path><path d="M0 460C51.84 433.42 61.5 414.32 120 418.46C181.5 422.82 180.49 447.1 240 477C241.74 477.87 242.5 479.09 242.5 480C242.5 480.59 241.25 480 240 480C180 480 180 480 120 480C60 480 51.43 488.57 0 480C-8.57 478.57 -8.16 464.19 0 460" stroke="rgba(33, 70, 84, 0.13333333333333333)" stroke-width="2"></path><path d="M457.24 480C457.24 474.49 468.62 460.59 480 460.59C491.38 460.59 502.76 474.49 502.76 480C502.76 484.19 491.38 480 480 480C468.62 480 457.24 484.19 457.24 480" stroke="rgba(33, 70, 84, 0.13333333333333333)" stroke-width="2"></path><path d="M1649.27 480C1649.27 445.99 1665.25 390 1680 390C1694.62 390 1708 445.31 1708 480C1708 490.31 1694 480 1680 480C1664.64 480 1649.27 490.99 1649.27 480" stroke="rgba(33, 70, 84, 0.13333333333333333)" stroke-width="2"></path></g><defs><mask id="SvgjsMask1011"><rect width="1920" height="480" fill="#ffffff"></rect></mask></defs></svg>