<svg xmlns="http://www.w3.org/2000/svg" xmlns:xlink="http://www.w3.org/1999/xlink" viewBox="0 0 170.63 148.54"><defs><style>.cls-1,.cls-11,.cls-22{fill:none;}.cls-2{fill:#c2ecf2;}.cls-3{clip-path:url(#clip-path);}.cls-4{fill:#ddd7f7;}.cls-10,.cls-11,.cls-12,.cls-13,.cls-14,.cls-15,.cls-16,.cls-18,.cls-4,.cls-7,.cls-8,.cls-9{fill-rule:evenodd;}.cls-13,.cls-5{fill:#fff;}.cls-6{fill:#d8fcf5;}.cls-21,.cls-7{fill:#5090d6;}.cls-8{fill:#48b9d3;}.cls-9{fill:#484fb1;}.cls-10{fill:#e29930;}.cls-11{stroke:#ff9754;stroke-linecap:round;stroke-linejoin:round;}.cls-12,.cls-20{fill:#ffdb9c;}.cls-14{fill:#ffae00;}.cls-15{fill:#1c60c6;}.cls-16{fill:#d7edf9;}.cls-17,.cls-18{fill:#6268c4;}.cls-19{fill:#466eb6;}.cls-22{stroke:#5090d6;stroke-miterlimit:10;stroke-width:0.75px;}</style><clipPath id="clip-path" transform="translate(0 -1.72)"><path class="cls-1" d="M67.57,4.76c1.38.77,9.44-3,10.72-1.91,5.52,4.66,9-6.5,14.3-1.56,5.66,5.3,47.85-.83,54.73,2.8,14.59,7.7,6.18,30.47,20.21,39.18,8.6,5.34.5,26.2,2.45,37,1.85,10.31-4.11,24-11.36,32.36-11.35,13.13-24.69,26.06-40.28,32.82-13.66,5.92-28.5,5.89-41.4,2.23l-.39-.11c-23.61-6.86-50,.87-62.62-20.09-15.07-25.09-18.58-86,9.9-111.81C36.16,4.56,54.07-2.69,67.57,4.76Z"/></clipPath></defs><title>agendamento</title><g id="Camada_2" data-name="Camada 2"><g id="Layer_1" data-name="Layer 1"><path class="cls-2" d="M67.88,4.76a24.71,24.71,0,0,1,4,2.77c5.52,4.66,9.42,10.79,14.7,15.73a87.9,87.9,0,0,0,19,13.28c14.59,7.7,31.84,10.24,45.87,19,8.6,5.34,16.88,14,18.83,24.83,1.85,10.31-4.1,24-11.36,32.36-11.35,13.13-24.69,26.06-40.28,32.82-13.66,5.92-28.5,5.89-41.4,2.23l-.39-.11c-23.61-6.86-45.18-23.76-57.77-44.73C4,77.8-4.34,41.49,24.14,15.72,36.47,4.56,54.38-2.69,67.88,4.76Z" transform="translate(0 -1.72)"/><g class="cls-3"><path class="cls-4" d="M32.9,48.05l111.82.05a9.82,9.82,0,0,1,8.79,9.74V128a9.82,9.82,0,0,1-9.52,9.79l-111.82,0A9.82,9.82,0,0,1,23.38,128V57.84A9.82,9.82,0,0,1,32.9,48.05Z" transform="translate(0 -1.72)"/><rect class="cls-5" x="28.25" y="77.19" width="17.2" height="10.64"/><path class="cls-6" d="M45.46,91.09H28.25a1.54,1.54,0,0,1-1.53-1.54V78.91a1.54,1.54,0,0,1,1.53-1.53H45.46A1.53,1.53,0,0,1,47,78.91V89.55A1.53,1.53,0,0,1,45.46,91.09ZM29.79,88H43.92V80.45H29.79Z" transform="translate(0 -1.72)"/><rect class="cls-5" x="45.46" y="77.19" width="17.2" height="10.64"/><path class="cls-6" d="M62.66,91.09H45.46a1.54,1.54,0,0,1-1.54-1.54V78.91a1.54,1.54,0,0,1,1.54-1.53h17.2a1.53,1.53,0,0,1,1.53,1.53V89.55A1.53,1.53,0,0,1,62.66,91.09ZM47,88H61.12V80.45H47Z" transform="translate(0 -1.72)"/><rect class="cls-5" x="62.66" y="77.19" width="17.2" height="10.64"/><path class="cls-6" d="M79.86,91.09H62.66a1.54,1.54,0,0,1-1.54-1.54V78.91a1.54,1.54,0,0,1,1.54-1.53h17.2a1.54,1.54,0,0,1,1.54,1.53V89.55A1.54,1.54,0,0,1,79.86,91.09ZM64.19,88H78.32V80.45H64.19Z" transform="translate(0 -1.72)"/><rect class="cls-5" x="79.86" y="77.19" width="17.2" height="10.64"/><path class="cls-6" d="M97.06,91.09H79.86a1.54,1.54,0,0,1-1.54-1.54V78.91a1.54,1.54,0,0,1,1.54-1.53h17.2a1.54,1.54,0,0,1,1.54,1.53V89.55A1.54,1.54,0,0,1,97.06,91.09ZM81.4,88H95.52V80.45H81.4Z" transform="translate(0 -1.72)"/><rect class="cls-5" x="97.06" y="77.19" width="17.2" height="10.64"/><path class="cls-6" d="M114.26,91.09H97.06a1.54,1.54,0,0,1-1.54-1.54V78.91a1.54,1.54,0,0,1,1.54-1.53h17.2a1.54,1.54,0,0,1,1.54,1.53V89.55A1.54,1.54,0,0,1,114.26,91.09ZM98.6,88h14.12V80.45H98.6Z" transform="translate(0 -1.72)"/><rect class="cls-5" x="114.26" y="77.19" width="17.2" height="10.64"/><path class="cls-6" d="M131.46,91.09h-17.2a1.54,1.54,0,0,1-1.54-1.54V78.91a1.54,1.54,0,0,1,1.54-1.53h17.2A1.54,1.54,0,0,1,133,78.91V89.55A1.54,1.54,0,0,1,131.46,91.09ZM115.8,88h14.12V80.45H115.8Z" transform="translate(0 -1.72)"/><rect class="cls-5" x="131.46" y="77.19" width="17.2" height="10.64"/><path class="cls-6" d="M148.66,91.09h-17.2a1.54,1.54,0,0,1-1.54-1.54V78.91a1.54,1.54,0,0,1,1.54-1.53h17.2a1.54,1.54,0,0,1,1.54,1.53V89.55A1.54,1.54,0,0,1,148.66,91.09ZM133,88h14.12V80.45H133Z" transform="translate(0 -1.72)"/><rect class="cls-5" x="28.25" y="87.83" width="17.2" height="10.64"/><path class="cls-6" d="M45.46,101.73H28.25a1.54,1.54,0,0,1-1.53-1.54V89.55A1.53,1.53,0,0,1,28.25,88H45.46A1.52,1.52,0,0,1,47,89.55v10.64A1.53,1.53,0,0,1,45.46,101.73ZM29.79,98.66H43.92V91.09H29.79Z" transform="translate(0 -1.72)"/><rect class="cls-5" x="45.46" y="87.83" width="17.2" height="10.64"/><path class="cls-6" d="M62.66,101.73H45.46a1.54,1.54,0,0,1-1.54-1.54V89.55A1.53,1.53,0,0,1,45.46,88h17.2a1.52,1.52,0,0,1,1.53,1.53v10.64A1.53,1.53,0,0,1,62.66,101.73ZM47,98.66H61.12V91.09H47Z" transform="translate(0 -1.72)"/><rect class="cls-5" x="62.66" y="87.83" width="17.2" height="10.64"/><path class="cls-6" d="M79.86,101.73H62.66a1.54,1.54,0,0,1-1.54-1.54V89.55A1.53,1.53,0,0,1,62.66,88h17.2a1.53,1.53,0,0,1,1.54,1.53v10.64A1.54,1.54,0,0,1,79.86,101.73ZM64.19,98.66H78.32V91.09H64.19Z" transform="translate(0 -1.72)"/><rect class="cls-5" x="79.86" y="87.83" width="17.2" height="10.64"/><path class="cls-6" d="M97.06,101.73H79.86a1.54,1.54,0,0,1-1.54-1.54V89.55A1.53,1.53,0,0,1,79.86,88h17.2a1.53,1.53,0,0,1,1.54,1.53v10.64A1.54,1.54,0,0,1,97.06,101.73ZM81.4,98.66H95.52V91.09H81.4Z" transform="translate(0 -1.72)"/><rect class="cls-5" x="97.06" y="87.83" width="17.2" height="10.64"/><path class="cls-6" d="M114.26,101.73H97.06a1.54,1.54,0,0,1-1.54-1.54V89.55A1.53,1.53,0,0,1,97.06,88h17.2a1.53,1.53,0,0,1,1.54,1.53v10.64A1.54,1.54,0,0,1,114.26,101.73ZM98.6,98.66h14.12V91.09H98.6Z" transform="translate(0 -1.72)"/><rect class="cls-5" x="114.26" y="87.83" width="17.2" height="10.64"/><path class="cls-6" d="M131.46,101.73h-17.2a1.54,1.54,0,0,1-1.54-1.54V89.55A1.53,1.53,0,0,1,114.26,88h17.2A1.53,1.53,0,0,1,133,89.55v10.64A1.54,1.54,0,0,1,131.46,101.73ZM115.8,98.66h14.12V91.09H115.8Z" transform="translate(0 -1.72)"/><rect class="cls-5" x="131.46" y="87.83" width="17.2" height="10.64"/><path class="cls-6" d="M148.66,101.73h-17.2a1.54,1.54,0,0,1-1.54-1.54V89.55A1.53,1.53,0,0,1,131.46,88h17.2a1.53,1.53,0,0,1,1.54,1.53v10.64A1.54,1.54,0,0,1,148.66,101.73ZM133,98.66h14.12V91.09H133Z" transform="translate(0 -1.72)"/><rect class="cls-5" x="28.25" y="98.47" width="17.2" height="10.64"/><path class="cls-6" d="M45.46,112.37H28.25a1.54,1.54,0,0,1-1.53-1.54V100.19a1.53,1.53,0,0,1,1.53-1.53H45.46A1.52,1.52,0,0,1,47,100.19v10.64A1.53,1.53,0,0,1,45.46,112.37Zm-15.67-3.08H43.92v-7.56H29.79Z" transform="translate(0 -1.72)"/><rect class="cls-5" x="45.46" y="98.47" width="17.2" height="10.64"/><path class="cls-6" d="M62.66,112.37H45.46a1.54,1.54,0,0,1-1.54-1.54V100.19a1.53,1.53,0,0,1,1.54-1.53h17.2a1.52,1.52,0,0,1,1.53,1.53v10.64A1.53,1.53,0,0,1,62.66,112.37ZM47,109.29H61.12v-7.56H47Z" transform="translate(0 -1.72)"/><rect class="cls-5" x="62.66" y="98.47" width="17.2" height="10.64"/><path class="cls-6" d="M79.86,112.37H62.66a1.54,1.54,0,0,1-1.54-1.54V100.19a1.53,1.53,0,0,1,1.54-1.53h17.2a1.53,1.53,0,0,1,1.54,1.53v10.64A1.54,1.54,0,0,1,79.86,112.37Zm-15.67-3.08H78.32v-7.56H64.19Z" transform="translate(0 -1.72)"/><rect class="cls-5" x="79.86" y="98.47" width="17.2" height="10.64"/><path class="cls-6" d="M97.06,112.37H79.86a1.54,1.54,0,0,1-1.54-1.54V100.19a1.53,1.53,0,0,1,1.54-1.53h17.2a1.53,1.53,0,0,1,1.54,1.53v10.64A1.54,1.54,0,0,1,97.06,112.37ZM81.4,109.29H95.52v-7.56H81.4Z" transform="translate(0 -1.72)"/><rect class="cls-5" x="97.06" y="98.47" width="17.2" height="10.64"/><path class="cls-6" d="M114.26,112.37H97.06a1.54,1.54,0,0,1-1.54-1.54V100.19a1.53,1.53,0,0,1,1.54-1.53h17.2a1.53,1.53,0,0,1,1.54,1.53v10.64A1.54,1.54,0,0,1,114.26,112.37ZM98.6,109.29h14.12v-7.56H98.6Z" transform="translate(0 -1.72)"/><rect class="cls-5" x="114.26" y="98.47" width="17.2" height="10.64"/><path class="cls-6" d="M131.46,112.37h-17.2a1.54,1.54,0,0,1-1.54-1.54V100.19a1.53,1.53,0,0,1,1.54-1.53h17.2a1.53,1.53,0,0,1,1.54,1.53v10.64A1.54,1.54,0,0,1,131.46,112.37Zm-15.66-3.08h14.12v-7.56H115.8Z" transform="translate(0 -1.72)"/><rect class="cls-5" x="131.46" y="98.47" width="17.2" height="10.64"/><path class="cls-6" d="M148.66,112.37h-17.2a1.54,1.54,0,0,1-1.54-1.54V100.19a1.53,1.53,0,0,1,1.54-1.53h17.2a1.53,1.53,0,0,1,1.54,1.53v10.64A1.54,1.54,0,0,1,148.66,112.37ZM133,109.29h14.12v-7.56H133Z" transform="translate(0 -1.72)"/><rect class="cls-5" x="28.25" y="109.11" width="17.2" height="10.64"/><path class="cls-6" d="M45.46,123H28.25a1.54,1.54,0,0,1-1.53-1.54V110.83a1.54,1.54,0,0,1,1.53-1.54H45.46A1.53,1.53,0,0,1,47,110.83v10.64A1.53,1.53,0,0,1,45.46,123Zm-15.67-3.08H43.92v-7.56H29.79Z" transform="translate(0 -1.72)"/><rect class="cls-5" x="45.46" y="109.11" width="17.2" height="10.64"/><path class="cls-6" d="M62.66,123H45.46a1.54,1.54,0,0,1-1.54-1.54V110.83a1.54,1.54,0,0,1,1.54-1.54h17.2a1.53,1.53,0,0,1,1.53,1.54v10.64A1.53,1.53,0,0,1,62.66,123ZM47,119.93H61.12v-7.56H47Z" transform="translate(0 -1.72)"/><rect class="cls-5" x="62.66" y="109.11" width="17.2" height="10.64"/><path class="cls-6" d="M79.86,123H62.66a1.54,1.54,0,0,1-1.54-1.54V110.83a1.54,1.54,0,0,1,1.54-1.54h17.2a1.54,1.54,0,0,1,1.54,1.54v10.64A1.54,1.54,0,0,1,79.86,123Zm-15.67-3.08H78.32v-7.56H64.19Z" transform="translate(0 -1.72)"/><rect class="cls-5" x="79.86" y="109.11" width="17.2" height="10.64"/><path class="cls-6" d="M97.06,123H79.86a1.54,1.54,0,0,1-1.54-1.54V110.83a1.54,1.54,0,0,1,1.54-1.54h17.2a1.54,1.54,0,0,1,1.54,1.54v10.64A1.54,1.54,0,0,1,97.06,123ZM81.4,119.93H95.52v-7.56H81.4Z" transform="translate(0 -1.72)"/><rect class="cls-5" x="97.06" y="109.11" width="17.2" height="10.64"/><path class="cls-6" d="M114.26,123H97.06a1.54,1.54,0,0,1-1.54-1.54V110.83a1.54,1.54,0,0,1,1.54-1.54h17.2a1.54,1.54,0,0,1,1.54,1.54v10.64A1.54,1.54,0,0,1,114.26,123ZM98.6,119.93h14.12v-7.56H98.6Z" transform="translate(0 -1.72)"/><rect class="cls-5" x="114.26" y="109.11" width="17.2" height="10.64"/><path class="cls-6" d="M131.46,123h-17.2a1.54,1.54,0,0,1-1.54-1.54V110.83a1.54,1.54,0,0,1,1.54-1.54h17.2a1.54,1.54,0,0,1,1.54,1.54v10.64A1.54,1.54,0,0,1,131.46,123Zm-15.66-3.08h14.12v-7.56H115.8Z" transform="translate(0 -1.72)"/><rect class="cls-5" x="131.46" y="109.11" width="17.2" height="10.64"/><path class="cls-6" d="M148.66,123h-17.2a1.54,1.54,0,0,1-1.54-1.54V110.83a1.54,1.54,0,0,1,1.54-1.54h17.2a1.54,1.54,0,0,1,1.54,1.54v10.64A1.54,1.54,0,0,1,148.66,123ZM133,119.93h14.12v-7.56H133Z" transform="translate(0 -1.72)"/><rect class="cls-5" x="28.25" y="119.75" width="17.2" height="10.64"/><path class="cls-6" d="M45.46,133.65H28.25a1.54,1.54,0,0,1-1.53-1.54V121.47a1.54,1.54,0,0,1,1.53-1.54H45.46A1.53,1.53,0,0,1,47,121.47v10.64A1.53,1.53,0,0,1,45.46,133.65Zm-15.67-3.08H43.92V123H29.79Z" transform="translate(0 -1.72)"/><rect class="cls-5" x="45.46" y="119.75" width="17.2" height="10.64"/><path class="cls-6" d="M62.66,133.65H45.46a1.54,1.54,0,0,1-1.54-1.54V121.47a1.54,1.54,0,0,1,1.54-1.54h17.2a1.53,1.53,0,0,1,1.53,1.54v10.64A1.53,1.53,0,0,1,62.66,133.65ZM47,130.57H61.12V123H47Z" transform="translate(0 -1.72)"/><rect class="cls-5" x="62.66" y="119.75" width="17.2" height="10.64"/><path class="cls-6" d="M79.86,133.65H62.66a1.54,1.54,0,0,1-1.54-1.54V121.47a1.54,1.54,0,0,1,1.54-1.54h17.2a1.54,1.54,0,0,1,1.54,1.54v10.64A1.54,1.54,0,0,1,79.86,133.65Zm-15.67-3.08H78.32V123H64.19Z" transform="translate(0 -1.72)"/><rect class="cls-5" x="79.86" y="119.75" width="17.2" height="10.64"/><path class="cls-6" d="M97.06,133.65H79.86a1.54,1.54,0,0,1-1.54-1.54V121.47a1.54,1.54,0,0,1,1.54-1.54h17.2a1.54,1.54,0,0,1,1.54,1.54v10.64A1.54,1.54,0,0,1,97.06,133.65ZM81.4,130.57H95.52V123H81.4Z" transform="translate(0 -1.72)"/><rect class="cls-5" x="97.06" y="119.75" width="17.2" height="10.64"/><path class="cls-6" d="M114.26,133.65H97.06a1.54,1.54,0,0,1-1.54-1.54V121.47a1.54,1.54,0,0,1,1.54-1.54h17.2a1.54,1.54,0,0,1,1.54,1.54v10.64A1.54,1.54,0,0,1,114.26,133.65ZM98.6,130.57h14.12V123H98.6Z" transform="translate(0 -1.72)"/><rect class="cls-5" x="114.26" y="119.75" width="17.2" height="10.64"/><path class="cls-6" d="M131.46,133.65h-17.2a1.54,1.54,0,0,1-1.54-1.54V121.47a1.54,1.54,0,0,1,1.54-1.54h17.2a1.54,1.54,0,0,1,1.54,1.54v10.64A1.54,1.54,0,0,1,131.46,133.65Zm-15.66-3.08h14.12V123H115.8Z" transform="translate(0 -1.72)"/><rect class="cls-5" x="131.46" y="119.75" width="17.2" height="10.64"/><path class="cls-6" d="M148.66,133.65h-17.2a1.54,1.54,0,0,1-1.54-1.54V121.47a1.54,1.54,0,0,1,1.54-1.54h17.2a1.54,1.54,0,0,1,1.54,1.54v10.64A1.54,1.54,0,0,1,148.66,133.65ZM133,130.57h14.12V123H133Z" transform="translate(0 -1.72)"/><path class="cls-7" d="M32.9,48.05l111.82.05a9.82,9.82,0,0,1,8.79,9.74v7l-130.13,0v-7A9.82,9.82,0,0,1,32.9,48.05Z" transform="translate(0 -1.72)"/><path class="cls-8" d="M29,67.87V78.49l119,.05V67.92Z" transform="translate(0 -1.72)"/><polygon class="cls-9" points="53.04 80.71 53.04 81.38 53.94 81.38 53.93 85.14 54.63 85.14 54.64 80.71 53.04 80.71"/><path class="cls-9" d="M71.32,84.58l-1.59,1.74v.55h3V86.2H70.65L71.79,85a2.49,2.49,0,0,0,.79-1.45c0-.69-.56-1.12-1.37-1.12a2.43,2.43,0,0,0-1.55.63l.28.58a1.79,1.79,0,0,1,1.17-.55c.46,0,.73.2.73.57A1.69,1.69,0,0,1,71.32,84.58Z" transform="translate(0 -1.72)"/><path class="cls-9" d="M88.7,84.31l-.24,0,1.34-1.37v-.47H87.07v.67h1.85l-1.21,1.24v.43h.6c.64,0,1,.25,1,.73s-.37.77-1,.77a1.76,1.76,0,0,1-1.17-.47l-.29.61a2.61,2.61,0,0,0,1.51.48A1.44,1.44,0,0,0,90,85.51C90,84.81,89.48,84.38,88.7,84.31Z" transform="translate(0 -1.72)"/><polygon class="cls-9" points="105.35 80.73 103.89 83.52 103.89 84.08 105.92 84.08 105.92 85.17 106.57 85.17 106.57 84.08 107.19 84.08 107.19 83.41 106.58 83.41 106.57 82.36 105.92 82.36 105.92 83.41 104.65 83.41 106.03 80.73 105.35 80.73"/><path class="cls-9" d="M122,84.09v-1h2v-.67h-2.64v2.35c.3,0,.88-.07,1.15-.07.57,0,.92.28.92.74s-.35.79-.94.79a1.9,1.9,0,0,1-1.17-.46l-.29.6a2.81,2.81,0,0,0,1.54.51,1.47,1.47,0,0,0,1.61-1.49,1.39,1.39,0,0,0-1.55-1.34Z" transform="translate(0 -1.72)"/><path class="cls-9" d="M140.75,83.34l.27-.57a2.61,2.61,0,0,0-1.24-.33c-1.1,0-1.79.92-1.79,2.34s.64,2.15,1.69,2.15a1.38,1.38,0,0,0,1.47-1.48A1.28,1.28,0,0,0,139.81,84a1.21,1.21,0,0,0-1.14.63c0-1,.35-1.6,1.16-1.6a1.64,1.64,0,0,1,.92.28Zm-1.08,1.28a.76.76,0,0,1,.82.82.79.79,0,0,1-.85.85.81.81,0,0,1-.86-.82A.84.84,0,0,1,139.67,84.62Z" transform="translate(0 -1.72)"/><polygon class="cls-9" points="35.7 90.83 35.7 92.12 36.33 92.12 36.33 91.5 38.09 91.5 36.37 95.26 37.12 95.26 38.87 91.4 38.87 90.83 35.7 90.83"/><path class="cls-9" d="M54.23,92.52c-.84,0-1.38.43-1.38,1.12a1.08,1.08,0,0,0,.64,1,1.18,1.18,0,0,0-.84,1.13c0,.79.61,1.27,1.59,1.27s1.58-.49,1.58-1.28A1.16,1.16,0,0,0,55,94.62a1,1,0,0,0,.61-.94c0-.72-.53-1.16-1.39-1.16Zm0,.54c.5,0,.78.24.78.65s-.28.65-.78.65-.79-.24-.79-.65.29-.65.79-.65Zm0,1.89c.59,0,.93.27.93.73s-.34.75-.92.75-.93-.27-.93-.76S53.65,95,54.23,95Z" transform="translate(0 -1.72)"/><path class="cls-9" d="M70.05,96.13l-.28.56A2.65,2.65,0,0,0,71,97c1.09,0,1.79-.93,1.79-2.34s-.64-2.16-1.69-2.16A1.37,1.37,0,0,0,69.66,94,1.27,1.27,0,0,0,71,95.43a1.18,1.18,0,0,0,1.13-.63c0,1-.35,1.61-1.16,1.61a1.63,1.63,0,0,1-.91-.28Zm1.1-3A.79.79,0,0,1,72,94a.83.83,0,0,1-.88.85.76.76,0,0,1-.81-.83A.79.79,0,0,1,71.15,93.17Z" transform="translate(0 -1.72)"/><path class="cls-9" d="M85.53,92.57v.67h.9V97h.7V92.57Zm4.87,0c-1,0-1.57.8-1.57,2.23S89.39,97,90.4,97,92,96.23,92,94.78s-.55-2.23-1.56-2.23Zm0,.58c.58,0,.87.53.87,1.65s-.29,1.66-.87,1.66-.87-.53-.87-1.66S89.82,93.13,90.4,93.13Z" transform="translate(0 -1.72)"/><path class="cls-9" d="M102.48,92.58v.67h.9V97h.7V92.58Zm3.67,0v.67H107V97h.7V92.58Z" transform="translate(0 -1.72)"/><path class="cls-9" d="M119.58,92.58v.67h.89V97h.7V92.58Zm4.93,2.14-1.59,1.75V97h3v-.67h-2.13L125,95.12a2.43,2.43,0,0,0,.79-1.45c0-.68-.55-1.12-1.37-1.12a2.39,2.39,0,0,0-1.55.64l.28.57a1.84,1.84,0,0,1,1.18-.55c.45,0,.73.21.73.57A1.69,1.69,0,0,1,124.51,94.72Z" transform="translate(0 -1.72)"/><path class="cls-9" d="M136.49,92.59v.67h.89V97h.7V92.59Zm5,1.87-.24,0,1.33-1.37V92.6h-2.73v.66h1.85l-1.22,1.25v.43h.61c.63,0,1,.24,1,.73s-.37.76-1,.76a1.73,1.73,0,0,1-1.17-.46l-.29.61a2.59,2.59,0,0,0,1.51.48,1.44,1.44,0,0,0,1.63-1.41C142.79,95,142.27,94.53,141.49,94.46Z" transform="translate(0 -1.72)"/><path class="cls-9" d="M34.21,103.31V104h.89v3.77h.7v-4.44Zm4.69,0-1.46,2.79v.56h2v1.09h.65v-1.09h.62V106h-.61v-1h-.65v1H38.2l1.38-2.67Z" transform="translate(0 -1.72)"/><path class="cls-9" d="M51.19,103.32V104h.9v3.76h.7v-4.43ZM55.41,105v-1h2v-.67H54.76v2.35c.3,0,.88-.07,1.15-.07.57,0,.92.28.92.74s-.35.8-.93.8a2,2,0,0,1-1.18-.47l-.29.6a2.81,2.81,0,0,0,1.54.51,1.46,1.46,0,0,0,1.61-1.49A1.39,1.39,0,0,0,56,105Z" transform="translate(0 -1.72)"/><path class="cls-9" d="M68.21,103.33V104h.9v3.76h.7v-4.43Zm6.08.87.28-.57a2.64,2.64,0,0,0-1.24-.33c-1.1,0-1.8.92-1.8,2.34s.64,2.15,1.69,2.15a1.37,1.37,0,0,0,1.47-1.48,1.28,1.28,0,0,0-1.34-1.42,1.22,1.22,0,0,0-1.14.63c0-1,.36-1.6,1.16-1.6a1.64,1.64,0,0,1,.92.28Zm-1.07,1.28a.77.77,0,0,1,.82.82.79.79,0,0,1-.85.85.8.8,0,0,1-.86-.82A.82.82,0,0,1,73.22,105.48Z" transform="translate(0 -1.72)"/><path class="cls-9" d="M85.52,103.33V104h.9v3.76h.7v-4.43Zm3.32,0v1.29h.63V104h1.75l-1.72,3.76h.75L92,103.91v-.57Z" transform="translate(0 -1.72)"/><path class="cls-9" d="M102.47,103.34V104h.9v3.76h.7v-4.44Zm4.87,0c-.84,0-1.38.43-1.38,1.12a1.05,1.05,0,0,0,.64,1,1.21,1.21,0,0,0-.84,1.14c0,.79.61,1.27,1.58,1.27s1.59-.49,1.59-1.28a1.16,1.16,0,0,0-.81-1.12,1,1,0,0,0,.6-1c0-.71-.52-1.15-1.38-1.15Zm0,.54c.5,0,.78.24.78.65s-.29.65-.78.65-.79-.24-.79-.65.29-.65.79-.65Zm0,1.88c.59,0,.93.28.93.74s-.34.75-.93.75-.92-.27-.92-.76S106.76,105.73,107.34,105.73Z" transform="translate(0 -1.72)"/><path class="cls-9" d="M119.57,103.35V104h.9v3.76h.71v-4.43Zm3.67,3.57-.27.56a2.58,2.58,0,0,0,1.23.34c1.09,0,1.79-.93,1.79-2.34s-.64-2.16-1.68-2.16a1.38,1.38,0,0,0-1.46,1.48,1.28,1.28,0,0,0,1.33,1.42,1.18,1.18,0,0,0,1.13-.63c0,1-.35,1.61-1.16,1.61a1.71,1.71,0,0,1-.91-.28Zm1.1-3a.81.81,0,0,1,.86.83.83.83,0,0,1-.89.84.75.75,0,0,1-.81-.82A.79.79,0,0,1,124.34,104Z" transform="translate(0 -1.72)"/><path class="cls-9" d="M137.75,105.49l-1.59,1.75v.55h3.05v-.67h-2.13l1.14-1.23a2.43,2.43,0,0,0,.79-1.45c0-.68-.56-1.11-1.37-1.11a2.33,2.33,0,0,0-1.55.63l.28.57a1.83,1.83,0,0,1,1.17-.55c.46,0,.74.21.73.57a1.66,1.66,0,0,1-.52.94Zm3.6-2.15c-1,0-1.57.8-1.57,2.23s.56,2.24,1.57,2.24,1.56-.8,1.56-2.24-.55-2.23-1.56-2.23Zm0,.58c.58,0,.87.53.87,1.65s-.29,1.66-.87,1.66-.87-.53-.87-1.66S140.77,103.92,141.35,103.92Z" transform="translate(0 -1.72)"/><path class="cls-9" d="M35.47,116.07l-1.59,1.74v.55h3v-.67H34.8l1.14-1.22a2.49,2.49,0,0,0,.79-1.45c0-.68-.56-1.12-1.37-1.12a2.43,2.43,0,0,0-1.55.63l.28.58a1.83,1.83,0,0,1,1.17-.55c.46,0,.73.21.73.57a1.69,1.69,0,0,1-.52.94Zm2.4-2.14v.67h.89v3.77h.7v-4.44Z" transform="translate(0 -1.72)"/><path class="cls-9" d="M52.45,116.08l-1.59,1.74v.55h3v-.67H51.78l1.15-1.23a2.47,2.47,0,0,0,.78-1.44c0-.69-.55-1.12-1.37-1.12a2.48,2.48,0,0,0-1.55.63l.29.57a1.79,1.79,0,0,1,1.17-.55c.46,0,.73.21.73.57a1.71,1.71,0,0,1-.53,1Zm3.67,0-1.59,1.74v.55h3v-.67H55.45l1.14-1.22a2.49,2.49,0,0,0,.79-1.45c0-.68-.56-1.12-1.37-1.12a2.43,2.43,0,0,0-1.55.63l.28.58a1.79,1.79,0,0,1,1.17-.55c.46,0,.74.21.74.57A1.72,1.72,0,0,1,56.12,116.08Z" transform="translate(0 -1.72)"/><path class="cls-9" d="M69.46,116.08l-1.59,1.75v.55h3v-.67H68.8l1.14-1.23a2.41,2.41,0,0,0,.78-1.45c0-.68-.55-1.12-1.36-1.12a2.39,2.39,0,0,0-1.55.64l.28.57a1.83,1.83,0,0,1,1.17-.55c.46,0,.73.21.73.57a1.63,1.63,0,0,1-.53.94Zm3.74-.27-.24,0,1.33-1.37V114H71.56v.67h1.85l-1.22,1.24v.43h.61c.63,0,1,.25,1,.73s-.37.77-1,.77a1.74,1.74,0,0,1-1.17-.47l-.29.61a2.59,2.59,0,0,0,1.51.48A1.44,1.44,0,0,0,74.5,117C74.5,116.31,74,115.88,73.2,115.81Z" transform="translate(0 -1.72)"/><path class="cls-9" d="M86.78,116.09l-1.59,1.75v.55h3v-.67H86.11l1.14-1.23A2.49,2.49,0,0,0,88,115c0-.68-.55-1.12-1.37-1.12a2.48,2.48,0,0,0-1.55.63l.29.58a1.79,1.79,0,0,1,1.17-.55c.46,0,.73.21.73.57a1.69,1.69,0,0,1-.53.94ZM90.21,114l-1.46,2.79v.56h2v1.09h.65V117.3h.62v-.67h-.61v-1h-.65v1H89.51L90.89,114Z" transform="translate(0 -1.72)"/><path class="cls-9" d="M103.73,116.1l-1.59,1.74v.55h3v-.67h-2.12l1.14-1.22a2.52,2.52,0,0,0,.78-1.45c0-.68-.55-1.12-1.36-1.12a2.43,2.43,0,0,0-1.55.63l.28.58a1.79,1.79,0,0,1,1.17-.55c.46,0,.73.21.73.57a1.66,1.66,0,0,1-.53.94Zm3-.51v-1h2V114H106v2.35a11.42,11.42,0,0,1,1.14-.07c.57,0,.92.28.92.74s-.35.8-.93.79a1.9,1.9,0,0,1-1.17-.46l-.29.6a2.81,2.81,0,0,0,1.54.51,1.45,1.45,0,0,0,1.6-1.49,1.38,1.38,0,0,0-1.55-1.34Z" transform="translate(0 -1.72)"/><path class="cls-9" d="M120.83,116.1l-1.59,1.75v.55h3.05v-.67h-2.13l1.14-1.23a2.44,2.44,0,0,0,.79-1.44c0-.69-.55-1.12-1.37-1.12a2.43,2.43,0,0,0-1.55.63l.29.57a1.79,1.79,0,0,1,1.17-.55c.45,0,.73.21.73.57a1.66,1.66,0,0,1-.53.94Zm4.82-1.26.28-.57a2.68,2.68,0,0,0-1.25-.33c-1.09,0-1.79.92-1.79,2.34s.64,2.15,1.69,2.15a1.38,1.38,0,0,0,1.47-1.48,1.28,1.28,0,0,0-1.34-1.42,1.21,1.21,0,0,0-1.14.63c0-1,.35-1.6,1.16-1.6a1.64,1.64,0,0,1,.92.28Zm-1.07,1.28a.77.77,0,0,1,.82.82.79.79,0,0,1-.85.85.82.82,0,0,1-.87-.82A.84.84,0,0,1,124.58,116.12Z" transform="translate(0 -1.72)"/><path class="cls-9" d="M137.74,116.11l-1.59,1.75v.55h3v-.67h-2.13l1.14-1.23a2.43,2.43,0,0,0,.79-1.45c0-.68-.55-1.12-1.37-1.12a2.48,2.48,0,0,0-1.55.63l.29.58a1.79,1.79,0,0,1,1.17-.55c.46,0,.73.21.73.57a1.69,1.69,0,0,1-.53.94ZM139.8,114v1.29h.62v-.62h1.76l-1.72,3.76h.74l1.75-3.86V114Z" transform="translate(0 -1.72)"/><path class="cls-9" d="M35.46,126.69l-1.59,1.74V129h3.05v-.67H34.79l1.14-1.22a2.49,2.49,0,0,0,.79-1.45c0-.68-.55-1.12-1.37-1.12a2.48,2.48,0,0,0-1.55.63l.29.58a1.74,1.74,0,0,1,1.17-.55c.46,0,.73.2.73.57a1.72,1.72,0,0,1-.53.94Zm3.6-2.17c-.84,0-1.38.43-1.38,1.12a1.05,1.05,0,0,0,.64,1,1.2,1.2,0,0,0-.84,1.14c0,.78.61,1.27,1.58,1.27s1.59-.49,1.59-1.28a1.18,1.18,0,0,0-.81-1.13,1,1,0,0,0,.6-.94c0-.71-.52-1.15-1.38-1.15Zm0,.54c.5,0,.78.24.78.65s-.29.65-.78.65-.79-.24-.79-.65.29-.65.79-.65Zm0,1.88c.59,0,.93.27.93.74s-.34.75-.93.75-.92-.27-.92-.76S38.48,126.94,39.06,126.94Z" transform="translate(0 -1.72)"/><path class="cls-9" d="M52.44,126.69l-1.58,1.75V129h3v-.67H51.78l1.14-1.23a2.41,2.41,0,0,0,.78-1.44c0-.69-.55-1.12-1.36-1.12a2.43,2.43,0,0,0-1.55.63l.28.57a1.83,1.83,0,0,1,1.17-.55c.46,0,.73.21.73.57a1.6,1.6,0,0,1-.53.94Zm2.41,1.43-.28.57a2.64,2.64,0,0,0,1.24.33c1.09,0,1.79-.92,1.79-2.34s-.64-2.15-1.69-2.15A1.37,1.37,0,0,0,54.46,126a1.28,1.28,0,0,0,1.33,1.42,1.2,1.2,0,0,0,1.13-.63c0,1-.35,1.6-1.16,1.6a1.63,1.63,0,0,1-.91-.28Zm1.1-3a.79.79,0,0,1,.85.82.82.82,0,0,1-.88.85.76.76,0,0,1-.81-.82A.79.79,0,0,1,56,125.17Z" transform="translate(0 -1.72)"/><path class="cls-9" d="M69.53,126.43l-.25,0L70.62,125v-.47H67.89v.66h1.86l-1.22,1.25v.43h.6c.64,0,1,.25,1,.73s-.36.76-1,.76a1.71,1.71,0,0,1-1.17-.46l-.3.61a2.61,2.61,0,0,0,1.51.48,1.45,1.45,0,0,0,1.64-1.4c0-.71-.52-1.13-1.3-1.2Zm3.53-1.88c-1,0-1.57.79-1.57,2.23s.56,2.24,1.57,2.24,1.56-.8,1.57-2.24-.56-2.23-1.57-2.23Zm0,.58c.58,0,.87.52.87,1.65s-.29,1.66-.87,1.66-.87-.54-.87-1.66S72.48,125.13,73.06,125.13Z" transform="translate(0 -1.72)"/><path class="cls-10" d="M44.22,46.3h0c1.31,0,2.38.79,2.38,1.76v9.15c0,1-1.07,1.75-2.38,1.75h0c-1.31,0-2.39-.79-2.39-1.75V48.06C41.83,47.09,42.91,46.3,44.22,46.3Z" transform="translate(0 -1.72)"/><path class="cls-10" d="M73.7,46.3h0c1.31,0,2.39.79,2.39,1.76v9.15c0,1-1.08,1.75-2.39,1.75h0c-1.31,0-2.38-.79-2.38-1.75V48.06C71.32,47.09,72.39,46.3,73.7,46.3Z" transform="translate(0 -1.72)"/><path class="cls-10" d="M103.19,46.3h0c1.31,0,2.38.79,2.38,1.76v9.15c0,1-1.07,1.75-2.38,1.75h0c-1.32,0-2.39-.79-2.39-1.75V48.06C100.8,47.09,101.87,46.3,103.19,46.3Z" transform="translate(0 -1.72)"/><path class="cls-10" d="M132.67,46.3h0c1.31,0,2.38.79,2.38,1.76v9.15c0,1-1.07,1.75-2.38,1.75h0c-1.31,0-2.39-.79-2.39-1.75V48.06C130.28,47.09,131.36,46.3,132.67,46.3Z" transform="translate(0 -1.72)"/><path class="cls-11" d="M60.86,98.79c-8.33.63-12.59,4.12-12.54,7.58.09,5.16,6.44,5.74,9.16,4s1.83-6.54-2-12.51" transform="translate(0 -1.72)"/><path class="cls-5" d="M35.22,70.57h1.92c1.77,0,2.79,1,2.79,2.45h0a2.52,2.52,0,0,1-2.82,2.5H35.22Zm1.94,3.74a1.22,1.22,0,0,0,1.36-1.26h0a1.21,1.21,0,0,0-1.36-1.25H36.6v2.52Z" transform="translate(0 -1.72)"/><path class="cls-5" d="M51.3,74.79l.76-.91a2.62,2.62,0,0,0,1.61.59c.37,0,.57-.13.57-.34h0c0-.21-.17-.32-.84-.48-1-.24-1.87-.54-1.87-1.56h0c0-.92.73-1.59,1.92-1.59a3.14,3.14,0,0,1,2,.66l-.69,1a2.47,2.47,0,0,0-1.38-.49c-.34,0-.5.15-.5.32v0c0,.22.17.32.86.48,1.14.25,1.84.61,1.84,1.54v0c0,1-.8,1.61-2,1.61A3.48,3.48,0,0,1,51.3,74.79Z" transform="translate(0 -1.72)"/><path class="cls-5" d="M120,74.79l.76-.91a2.6,2.6,0,0,0,1.61.59c.37,0,.56-.13.56-.34h0c0-.21-.16-.32-.83-.48-1.06-.24-1.87-.54-1.87-1.56h0c0-.92.73-1.59,1.92-1.59a3.14,3.14,0,0,1,2,.66l-.69,1a2.47,2.47,0,0,0-1.39-.49c-.33,0-.49.15-.49.32v0c0,.22.17.32.85.48,1.14.25,1.85.61,1.85,1.54v0c0,1-.8,1.61-2,1.61A3.48,3.48,0,0,1,120,74.79Z" transform="translate(0 -1.72)"/><path class="cls-5" d="M137.51,74.79l.76-.91a2.6,2.6,0,0,0,1.61.59c.37,0,.56-.13.56-.34h0c0-.21-.16-.32-.83-.48-1.06-.24-1.87-.54-1.87-1.56h0c0-.92.73-1.59,1.92-1.59a3.14,3.14,0,0,1,2,.66l-.69,1a2.47,2.47,0,0,0-1.39-.49c-.33,0-.49.15-.49.32v0c0,.22.17.32.85.48,1.14.25,1.85.61,1.85,1.54v0c0,1-.8,1.61-2,1.61A3.46,3.46,0,0,1,137.51,74.79Z" transform="translate(0 -1.72)"/><path class="cls-5" d="M71.37,71.77H69.88v-1.2h4.35v1.2H72.74v3.76H71.37Z" transform="translate(0 -1.72)"/><path class="cls-5" d="M90.71,75.19a2.79,2.79,0,0,1-1.51.43,2.58,2.58,0,0,1-2.66-2.56h0a2.6,2.6,0,0,1,2.68-2.58A2.57,2.57,0,0,1,91.88,73v0a2.42,2.42,0,0,1-.44,1.42l.51.43-.69.77Zm-1-.88L89,73.73l.7-.78.67.61a1.32,1.32,0,0,0,.09-.48v0a1.3,1.3,0,0,0-1.29-1.35A1.27,1.27,0,0,0,88,73.05h0a1.29,1.29,0,0,0,1.27,1.35A1.35,1.35,0,0,0,89.72,74.31Z" transform="translate(0 -1.72)"/><path class="cls-5" d="M107.38,75.19a2.81,2.81,0,0,1-1.51.43,2.57,2.57,0,0,1-2.66-2.56h0a2.67,2.67,0,0,1,5.34,0v0a2.49,2.49,0,0,1-.44,1.42l.51.43-.7.77Zm-1-.88-.69-.58.69-.78.68.61a1.56,1.56,0,0,0,.08-.48v0a1.3,1.3,0,0,0-1.28-1.35,1.27,1.27,0,0,0-1.25,1.34h0a1.29,1.29,0,0,0,1.26,1.35A1.36,1.36,0,0,0,106.39,74.31Z" transform="translate(0 -1.72)"/><path class="cls-12" d="M122.54,46.53h31.51a5.19,5.19,0,0,1,5.18,5.18V68.55a5.19,5.19,0,0,1-5.18,5.18h-9.14l-13.37,9.69L137,73.73H122.54a5.2,5.2,0,0,1-5.19-5.18V51.71A5.2,5.2,0,0,1,122.54,46.53Z" transform="translate(0 -1.72)"/><path class="cls-13" d="M133.09,51.92H144.4a3,3,0,0,1,3,3V66.24a3,3,0,0,1-3,3H133.09a3,3,0,0,1-3-3V54.93a3,3,0,0,1,3-3Zm.14,2a1.15,1.15,0,1,0,1.15,1.15,1.14,1.14,0,0,0-1.15-1.15Zm11,0a1.15,1.15,0,1,0,1.14,1.15A1.14,1.14,0,0,0,144.26,53.91Z" transform="translate(0 -1.72)"/><path class="cls-14" d="M133.09,51.92H144.4a3,3,0,0,1,3,3V57H130.07V54.93A3,3,0,0,1,133.09,51.92Z" transform="translate(0 -1.72)"/><path class="cls-13" d="M135,50h0a.72.72,0,0,1,.72.72v3.63a.73.73,0,0,1-.72.73h0a.73.73,0,0,1-.72-.73V50.7A.72.72,0,0,1,135,50Z" transform="translate(0 -1.72)"/><path class="cls-13" d="M142.54,50h0a.72.72,0,0,1,.72.72v3.63a.73.73,0,0,1-.72.73h0a.73.73,0,0,1-.73-.73V50.7A.73.73,0,0,1,142.54,50Z" transform="translate(0 -1.72)"/><path class="cls-15" d="M134,59.88v1.29h1.16v4.75h1.58v-6Zm6.64,2.19v-.92h2.61V59.87h-4v3.45c.37,0,1.36,0,1.68,0,.61,0,.95.26.95.72s-.34.76-1,.76a2.17,2.17,0,0,1-1.57-.76l-.63,1.23A4.48,4.48,0,0,0,141,66c1.49,0,2.47-.83,2.47-2.11,0-1.07-.92-1.82-2.35-1.82Z" transform="translate(0 -1.72)"/><path class="cls-16" d="M125.24,12.68H83.38a6.89,6.89,0,0,0-6.88,6.88V41.92a6.9,6.9,0,0,0,6.88,6.89H95.52l17.77,12.88-7.2-12.88h19.15a6.9,6.9,0,0,0,6.88-6.89V19.56A6.89,6.89,0,0,0,125.24,12.68Z" transform="translate(0 -1.72)"/><circle class="cls-5" cx="104.31" cy="30.74" r="10.15" transform="translate(47.9 121.99) rotate(-75.17)"/><rect class="cls-17" x="103.73" y="21.63" width="1.16" height="7.39" rx="0.58"/><path class="cls-18" d="M109,26.59h0a.58.58,0,0,0-.82-.05l-3.78,3.38a.58.58,0,0,0,0,.82h0a.58.58,0,0,0,.82.05l3.79-3.38A.58.58,0,0,0,109,26.59Z" transform="translate(0 -1.72)"/><path class="cls-18" d="M104.31,22.75a.65.65,0,1,1,.64-.64A.64.64,0,0,1,104.31,22.75Z" transform="translate(0 -1.72)"/><path class="cls-18" d="M94.7,31a.64.64,0,1,0,.64-.64A.64.64,0,0,0,94.7,31Z" transform="translate(0 -1.72)"/><path class="cls-18" d="M104.22,40.6a.64.64,0,1,0-.64-.64A.64.64,0,0,0,104.22,40.6Z" transform="translate(0 -1.72)"/><path class="cls-18" d="M113.84,31.08a.65.65,0,1,0-.65.64A.65.65,0,0,0,113.84,31.08Z" transform="translate(0 -1.72)"/><path class="cls-18" d="M104.31,32.25a1.51,1.51,0,1,1,1.51-1.51A1.51,1.51,0,0,1,104.31,32.25Z" transform="translate(0 -1.72)"/></g><circle class="cls-19" cx="30.8" cy="29.96" r="0.93"/><circle class="cls-5" cx="62.04" cy="26" r="0.93"/><circle class="cls-19" cx="157.19" cy="74.27" r="0.93"/><circle class="cls-20" cx="14.55" cy="73.88" r="0.93"/><circle class="cls-20" cx="1.33" cy="28.33" r="1.33"/><circle class="cls-20" cx="141.72" cy="35.02" r="1.33"/><circle class="cls-21" cx="48.36" cy="14.65" r="2.12"/><circle class="cls-5" cx="58.08" cy="36.26" r="2.12"/><circle class="cls-5" cx="162.06" cy="85.7" r="2.12"/><circle class="cls-22" cx="4.91" cy="50.1" r="1.64"/><circle class="cls-22" cx="148.48" cy="23.51" r="1.64"/></g></g></svg>