<?xml version="1.0" encoding="UTF-8"?>
<!-- Generator: Adobe Illustrator 24.0.1, SVG Export Plug-In . SVG Version: 6.00 Build 0)  -->
<svg version="1.1" id="Camada_1" xmlns="http://www.w3.org/2000/svg" xmlns:xlink="http://www.w3.org/1999/xlink" x="0px" y="0px" viewBox="0 0 265.4 265.4" style="enable-background:new 0 0 265.4 265.4;" xml:space="preserve">
<style type="text/css">
	.st0{fill:none;}
	.st1{fill:#214654;}
</style>
<title>Atendimento</title>
<g id="Camada_2_1_">
	<g id="Layer_1">
		<path class="st0" d="M28.1,133.1c-10.8,10.9-10.8,28.4,0,39.3c2.7,2.7,6,4.9,9.6,6.3v-51.8C34.2,128.2,30.9,130.3,28.1,133.1z"/>
		<path class="st0" d="M118.1,245.4c2.6,0,4.6-2.1,4.6-4.6s-2.1-4.6-4.6-4.6c-2.6,0-4.6,2.1-4.6,4.6    C113.4,243.3,115.5,245.4,118.1,245.4C118.1,245.4,118.1,245.4,118.1,245.4z"/>
		<path class="st0" d="M227.6,126.8v51.8c14.3-5.6,21.4-21.7,15.9-36C240.7,135.4,234.9,129.6,227.6,126.8z"/>
		<path class="st1" d="M251.4,118.9c-1.6-1.6-3.2-3-5-4.4c0-0.3,0-0.6,0-0.8C246.4,50.9,195.5,0,132.7,0C69.9,0,19,50.9,19,113.7    c0,0.3,0,0.6,0,0.8c-1.8,1.3-3.4,2.8-5,4.4c-18.7,18.7-18.6,48.9,0,67.6c6.9,6.9,15.8,11.5,25.4,13.3    c6.2,26.9,28.5,47.1,55.9,50.5c5.2,12.6,19.7,18.5,32.2,13.3s18.5-19.7,13.3-32.2c-5.2-12.6-19.7-18.5-32.2-13.3    c-5.6,2.3-10.1,6.6-12.7,12.1c-21.9-3.7-38-22.7-38-45l0,0v-70.2c0-5.5-4.5-10-10-10c-2.8,0-5.6,0.3-8.4,0.8    c4.4-51.6,49.8-89.8,101.4-85.3c45.4,3.9,81.4,39.9,85.3,85.3c-2.8-0.5-5.6-0.7-8.4-0.8c-5.5,0-10,4.5-10,10v75.5    c0,5.5,4.5,10,10,10c26.4,0,47.8-21.4,47.8-47.8C265.5,140,260.4,127.9,251.4,118.9L251.4,118.9z M118.1,236.1    c2.6,0,4.6,2.1,4.6,4.6s-2.1,4.6-4.6,4.6c-2.6,0-4.6-2.1-4.6-4.6C113.4,238.2,115.5,236.1,118.1,236.1    C118.1,236.1,118.1,236.1,118.1,236.1z M20,152.7c0-11.5,7.1-21.8,17.8-25.9v51.8C27.1,174.5,20,164.2,20,152.7z M227.6,178.6    v-51.8c14.3,5.5,21.4,21.6,15.9,35.9C240.7,170,234.9,175.8,227.6,178.6z"/>
	</g>
</g>
</svg>