<svg width="1440" height="288" viewBox="0 0 1440 288" fill="none" xmlns="http://www.w3.org/2000/svg">
<path d="M0 64L24 48C48 32 96 -9.53674e-07 144 5.3C192 11 240 53 288 96C336 139 384 181 432 176C480 171 528 117 576 117.3C624 117 672 171 720 170.7C768 171 816 117 864 112C912 107 960 149 1008 186.7C1056 224 1104 256 1152 266.7C1200 277 1248 267 1296 218.7C1344 171 1392 85 1416 42.7L1440 0V288H1416C1392 288 1344 288 1296 288C1248 288 1200 288 1152 288C1104 288 1056 288 1008 288C960 288 912 288 864 288C816 288 768 288 720 288C672 288 624 288 576 288C528 288 480 288 432 288C384 288 336 288 288 288C240 288 192 288 144 288C96 288 48 288 24 288H0V64Z" fill="url(#paint0_linear_109_82)"/>
<defs>
<linearGradient id="paint0_linear_109_82" x1="1440" y1="-139.5" x2="-1.82935e-05" y2="288" gradientUnits="userSpaceOnUse">
<stop stop-color="#214654"/>
<stop offset="1" stop-color="#6D9198"/>
</linearGradient>
</defs>
</svg>
