<?xml version="1.0" encoding="UTF-8"?>
<!-- Generator: Adobe Illustrator 24.0.1, SVG Export Plug-In . SVG Version: 6.00 Build 0)  -->
<svg version="1.1" id="Camada_1" xmlns="http://www.w3.org/2000/svg" xmlns:xlink="http://www.w3.org/1999/xlink" x="0px" y="0px" viewBox="0 0 265.4 265.4" style="enable-background:new 0 0 265.4 265.4;" xml:space="preserve">
<style type="text/css">
	.st0{fill:none;}
	.st1{fill:#214654;}
</style>
<title>contraindicacoes</title>
<g id="Camada_2_1_">
	<g id="Layer_1">
		<path class="st0" d="M139.8,108.6c-3.9,3.9-10.2,3.9-14.1,0L99.5,82.5l-17,17l26.1,26.1c3.9,3.9,3.9,10.2,0,14.1l-26.1,26.1l17,17    l26.1-26.1c3.9-3.9,10.2-3.9,14.1,0l26.1,26.1l17-17l-26.1-26.1c-3.9-3.9-3.9-10.2,0-14.1l26.1-26.1l-17-17L139.8,108.6z"/>
		<path class="st0" d="M132.7,20C70.5,20,20,70.5,20,132.7s50.5,112.7,112.7,112.7s112.7-50.5,112.7-112.7    C245.3,70.5,194.9,20.1,132.7,20z M204.1,158.8c3.9,3.9,3.9,10.2,0,14.1L173,204.1c-3.9,3.9-10.2,3.9-14.1,0L132.7,178l-26.1,26.1    c-3.9,3.9-10.2,3.9-14.1,0c0,0,0,0,0,0L61.3,173c-3.9-3.9-3.9-10.2,0-14.1l26.1-26.2l-26.1-26.1c-3.9-3.9-3.9-10.2,0-14.1    l31.1-31.1c3.9-3.9,10.2-3.9,14.1,0c0,0,0,0,0,0l26.1,26.1l26.1-26.1c3.9-3.9,10.2-3.9,14.1,0l31.1,31.1c3.9,3.9,3.9,10.2,0,14.1    L178,132.7L204.1,158.8z"/>
		<path class="st1" d="M132.7,0C59.5,0,0,59.5,0,132.7s59.5,132.7,132.7,132.7s132.7-59.5,132.7-132.7S205.9,0,132.7,0z     M132.7,245.4C70.5,245.4,20,194.9,20,132.7S70.5,20,132.7,20s112.7,50.5,112.7,112.7c0,0,0,0,0,0    C245.3,194.9,194.9,245.3,132.7,245.4z"/>
		<path class="st1" d="M204.1,92.4L173,61.3c-3.9-3.9-10.2-3.9-14.1,0l-26.2,26.1l-26.1-26.1c-3.9-3.9-10.2-3.9-14.1,0c0,0,0,0,0,0    L61.3,92.4c-3.9,3.9-3.9,10.2,0,14.1l26.1,26.1l-26.1,26.1c-3.9,3.9-3.9,10.2,0,14.1l31.1,31.1c3.9,3.9,10.2,3.9,14.1,0    c0,0,0,0,0,0l26.1-26.1l26.1,26.1c3.9,3.9,10.2,3.9,14.1,0l31.1-31.1c3.9-3.9,3.9-10.2,0-14.1L178,132.7l26.1-26.1    C208,102.7,208,96.3,204.1,92.4z M156.8,125.6c-3.9,3.9-3.9,10.2,0,14.1l26.1,26.1l-17,17l-26.1-26.1c-3.9-3.9-10.2-3.9-14.1,0    l-26.1,26.1l-17-17l26.1-26.1c3.9-3.9,3.9-10.2,0-14.1L82.5,99.5l17-17l26.1,26.1c3.9,3.9,10.2,3.9,14.1,0l26.1-26.1l17,17    L156.8,125.6z"/>
	</g>
</g>
</svg>