<?xml version="1.0" encoding="UTF-8"?>
<!-- Generator: Adobe Illustrator 24.0.1, SVG Export Plug-In . SVG Version: 6.00 Build 0)  -->
<svg version="1.1" id="Camada_1" xmlns="http://www.w3.org/2000/svg" xmlns:xlink="http://www.w3.org/1999/xlink" x="0px" y="0px" viewBox="0 0 15.8 13.9" style="enable-background:new 0 0 15.8 13.9;" xml:space="preserve">
<style type="text/css">
	.st0{fill-rule:evenodd;clip-rule:evenodd;fill:#214654;}
</style>
<title>convenio</title>
<g id="Camada_2_1_">
	<g id="Camada_1-2">
		<path class="st0" d="M12.3,2.5c0.3,0,0.6-0.1,0.9-0.3l2.6-1.5V0l-2.9,1.7c-0.2,0.1-0.5,0.2-0.7,0.2H8.2L7.8,1.8    C6.9,1.5,5.9,1.5,5,1.8C4.5,1.9,4,1.8,3.5,1.6L0,0v6.5l0.4,0.2C0.9,7,1.3,7.4,1.6,8L1.4,8.2C0.8,8.6,0.7,9.3,1.1,9.9    c0.2,0.3,0.5,0.4,0.8,0.5H2c0.1,0,0.2,0,0.3,0c0,0.3,0.1,0.5,0.2,0.8c0.2,0.3,0.6,0.5,1,0.5h0.3c0,0.3,0.1,0.6,0.2,0.8    c0.2,0.3,0.5,0.4,0.8,0.5H5c0.3,0,0.6-0.1,0.8-0.2L6,12.6c0,0.2,0.1,0.3,0.2,0.5c0.2,0.2,0.4,0.4,0.7,0.4H7c0.2,0,0.5-0.1,0.7-0.2    l0,0l0.2,0.2C8.1,13.9,8.6,14,9,13.7c0.3-0.2,0.4-0.6,0.3-1l0,0c0.2,0.4,0.7,0.5,1.1,0.4c0.4-0.2,0.6-0.6,0.5-1.1    c0.3,0.3,0.8,0.4,1.2,0.1l0,0c0.4-0.3,0.5-0.7,0.3-1.1c0.5,0.3,1.1,0.1,1.4-0.3c0.2-0.3,0.2-0.6,0.1-0.9l-0.5-0.6l1-1.2    c0.3-0.3,0.6-0.6,0.9-0.8l0.5-0.3V6.1l-0.7,0.4c-0.4,0.2-0.7,0.5-1,0.8L13,8.6c-0.5-0.3-1.1-0.1-1.4,0.3c-0.2,0.3-0.2,0.6-0.1,0.9    l0,0l0,0c-0.3-0.2-0.7-0.2-1.1,0l0,0c-0.3,0.2-0.4,0.5-0.4,0.9l-0.1,0.1c-0.4-0.2-1-0.1-1.2,0.4c-0.1,0.2-0.1,0.3-0.1,0.5    l-0.3,0.2c-0.2,0-0.5,0-0.6,0.1c-0.2,0.2-0.3,0.4-0.3,0.7l-0.1,0.1c-0.1,0.1-0.2,0.1-0.3,0.1c-0.1,0-0.2-0.1-0.3-0.2    c-0.1-0.1-0.1-0.2-0.1-0.3c0-0.1,0.1-0.2,0.2-0.3l1.5-1.2c0.1-0.1,0.1-0.1,0.1-0.2c0-0.2-0.1-0.3-0.3-0.3c0,0,0,0,0,0    c-0.1,0-0.1,0-0.2,0.1l-2.5,1.8c-0.1,0.1-0.3,0.1-0.5,0.1c-0.2,0-0.3-0.1-0.4-0.3c-0.2-0.3-0.1-0.7,0.1-0.9c0,0,0,0,0,0l2.9-2.1    C7.7,9,7.8,8.9,7.8,8.8c0-0.2-0.1-0.3-0.3-0.3c-0.1,0-0.2,0-0.2,0.1l-2.9,2.1c-0.1,0-0.1,0.1-0.2,0.1c-0.3,0.2-0.7,0.2-1-0.1    C3,10.5,3,10.1,3.2,9.9l0.3-0.2l3.2-2.2c0.1-0.1,0.1-0.1,0.1-0.2c0-0.1-0.1-0.3-0.2-0.3C6.6,6.9,6.4,6.9,6.3,7L2.9,9.4    c0,0-0.1,0.1-0.1,0.1L2.5,9.7c-0.3,0.1-0.7,0-0.8-0.3C1.5,9.1,1.6,8.9,1.8,8.7l6.4-4.8c0.4,0.2,0.7,0.5,0.9,0.9    c0.6,2,1.4,2,1.9,1.8c0.2-0.1,0.4-0.4,0.3-0.7c-0.2-0.7-0.3-1.5-0.4-2.3c-0.3-0.5-0.8-0.9-1.4-1.1h2.1L12.3,2.5z"/>
	</g>
</g>
</svg>