<svg xmlns="http://www.w3.org/2000/svg" viewBox="0 0 96.41 85.97"><defs><style>.cls-1{fill:#fff;}</style></defs><title>el</title><g id="Camada_2" data-name="Camada 2"><g id="Layer_1" data-name="Layer 1"><path class="cls-1" d="M80,30.16a3.47,3.47,0,1,0,4.9-4.91L72.83,13.13,64.11,4.42h0L60.71,1a3.47,3.47,0,1,0-4.91,4.9l1,1L4.62,59A15.79,15.79,0,1,0,27,81.34L79.09,29.21ZM54.71,43.77h-25l32-32L74.18,24.3Z"/><path class="cls-1" d="M85.14,41.54a3.45,3.45,0,0,0-5.3,0C78,43.77,68.57,55.25,68.57,62a13.92,13.92,0,0,0,27.84,0C96.41,55.25,87,43.77,85.14,41.54Z"/></g></g></svg>