<svg width="271" height="150" viewBox="0 0 271 150" fill="none" xmlns="http://www.w3.org/2000/svg">
<g id="logotipo_academy 1" clip-path="url(#clip0_109_101)">
<path id="Vector" d="M193.703 111.436V111.45H193.697L193.703 111.436Z" fill="#E30613"/>
<path id="Vector_2" d="M139.689 132.426V110.886H142.642L151.174 125.342L159.674 110.886H162.604V132.426H159.844V115.599L152.461 128.253H149.868L142.455 115.599V132.426H139.689Z" fill="#214654"/>
<path id="Vector_3" d="M190.723 110.886L183.419 123.423V132.422H180.659V123.373L173.344 110.89V110.969L173.295 110.886H176.324L182.06 120.63L187.79 110.886H190.723Z" fill="#214654"/>
<path id="Vector_4" d="M116.075 127.193V110.883H128.932V113.343H118.897V120.084H128.049V122.54H118.897V127.193C118.897 128.148 119.116 128.848 119.553 129.294C119.991 129.74 120.686 129.959 121.637 129.953H129.391V132.409H121.257C119.439 132.409 118.12 131.97 117.302 131.092C116.484 130.214 116.075 128.914 116.075 127.193Z" fill="#214654"/>
<path id="Vector_5" d="M87.2104 132.426V110.886H93.8523C97.6786 110.886 100.616 111.828 102.663 113.712C104.711 115.595 105.735 118.245 105.735 121.661C105.735 125.083 104.711 127.733 102.663 129.61C100.616 131.487 97.6786 132.426 93.8523 132.426H87.2104ZM90.0326 129.966H93.8523C96.6963 129.966 98.8938 129.284 100.445 127.921C101.996 126.558 102.777 124.472 102.788 121.664C102.788 118.878 102.007 116.793 100.445 115.408C98.8829 114.022 96.6854 113.334 93.8523 113.343H90.0326V129.966Z" fill="#214654"/>
<path id="Vector_6" d="M68.3153 110.886H65.6179L56.9775 132.422H59.7373L61.8342 127.163L62.7301 124.704L66.7959 114.417L70.8289 124.704L71.7117 127.163L73.8053 132.422H76.8604L68.3153 110.886Z" fill="#214654"/>
<path id="Vector_7" d="M30.2691 121.654C30.2691 118.293 31.2536 115.583 33.2225 113.524C35.1914 111.465 37.8385 110.435 41.1638 110.435C43.38 110.435 45.2154 110.809 46.6703 111.555V114.061C45.0053 113.25 43.1716 112.849 41.3213 112.892C38.8361 112.892 36.8672 113.676 35.4146 115.243C33.9619 116.81 33.2323 118.948 33.2258 121.654C33.2258 124.366 33.9576 126.503 35.4211 128.066C36.8847 129.629 38.8536 130.412 41.3279 130.417C43.2737 130.447 45.1946 129.976 46.9065 129.047V131.599C45.1464 132.467 43.2067 132.904 41.2459 132.877C39.2198 132.922 37.2173 132.433 35.4375 131.461C33.8078 130.547 32.4817 129.173 31.6244 127.509C30.7004 125.699 30.2349 123.688 30.2691 121.654Z" fill="#214654"/>
<path id="Vector_8" d="M11.3377 110.886H8.63703L0 132.422H2.75978L4.85341 127.163L5.75255 124.704L9.81511 114.417L13.8481 124.704L14.7341 127.163L16.8278 132.422H19.8829L11.3377 110.886Z" fill="#214654"/>
<path id="Vector_9" d="M17.2544 9.40788C17.2544 7.69566 16.7484 6.02189 15.8004 4.59823C14.8525 3.17457 13.5051 2.06496 11.9287 1.40972C10.3523 0.754483 8.61762 0.583043 6.94411 0.917081C5.2706 1.25112 3.73338 2.07563 2.52685 3.28635C1.32031 4.49708 0.498655 6.03963 0.165773 7.71895C-0.167109 9.39827 0.00373806 11.1389 0.656709 12.7208C1.30968 14.3027 2.41545 15.6548 3.83418 16.606C5.25292 17.5573 6.9209 18.065 8.62719 18.065C9.76013 18.065 10.882 17.8411 11.9287 17.406C12.9754 16.971 13.9264 16.3333 14.7275 15.5294C15.5286 14.7255 16.1641 13.7712 16.5977 12.7208C17.0312 11.6705 17.2544 10.5447 17.2544 9.40788Z" fill="url(#paint0_linear_109_101)"/>
<path id="Vector_10" d="M193.939 62.7074C193.949 54.2337 191.036 46.0178 185.695 39.4544C180.354 32.8909 172.914 28.3846 164.638 26.7004C156.363 25.0161 147.761 26.2578 140.294 30.2146C132.826 34.1714 126.954 40.5995 123.673 48.4075C120.392 56.2155 119.905 64.9222 122.295 73.0495C124.685 81.1768 129.804 88.2238 136.783 92.994C143.762 97.7643 152.171 99.9639 160.583 99.2193C168.995 98.4747 176.891 94.8319 182.93 88.9093V98.2679H193.939V62.7041V62.7074ZM157.37 88.3561C152.315 88.3561 147.373 86.8518 143.169 84.0335C138.966 81.2152 135.69 77.2094 133.756 72.5227C131.821 67.8361 131.315 62.679 132.301 57.7036C133.287 52.7282 135.722 48.1581 139.296 44.571C142.871 40.984 147.425 38.5412 152.383 37.5515C157.341 36.5619 162.481 37.0698 167.151 39.0111C171.822 40.9524 175.814 44.2398 178.622 48.4578C181.431 52.6757 182.93 57.6346 182.93 62.7074C182.93 66.0758 182.269 69.4112 180.985 72.5233C179.701 75.6353 177.818 78.463 175.444 80.8447C173.071 83.2265 170.253 85.1158 167.152 86.4046C164.05 87.6934 160.727 88.3566 157.37 88.3561Z" fill="url(#paint1_linear_109_101)"/>
<path id="Vector_11" d="M14.1238 26.0273H3.13062V99.3875H14.1238V26.0273Z" fill="url(#paint2_linear_109_101)"/>
<path id="Vector_12" d="M80.2961 26.0143C74.8194 26.0131 69.4129 27.2513 64.479 29.6365C68.1397 31.6827 71.3087 34.5097 73.7625 37.9183C77.5456 36.9138 81.5081 36.7946 85.3444 37.5698C89.1807 38.345 92.7884 39.9939 95.8892 42.3894C98.9901 44.7848 101.501 47.8629 103.229 51.3862C104.957 54.9095 105.856 58.7839 105.856 62.7108V99.3942H116.849V62.7075C116.85 57.8896 115.906 53.1187 114.07 48.6671C112.233 44.2156 109.541 40.1706 106.147 36.7632C102.752 33.3559 98.7224 30.6528 94.2869 28.8085C89.8514 26.9642 85.0973 26.0147 80.2961 26.0143Z" fill="url(#paint3_linear_109_101)"/>
<path id="Vector_13" d="M254.861 108.888C257.317 111.352 258.99 114.491 259.668 117.91C260.345 121.328 259.998 124.871 258.669 128.091C257.34 131.31 255.089 134.063 252.202 135.999C249.314 137.935 245.919 138.969 242.446 138.969C238.973 138.969 235.578 137.935 232.69 135.999C229.802 134.063 227.552 131.31 226.223 128.091C224.894 124.871 224.546 121.328 225.224 117.91C225.901 114.491 227.574 111.352 230.03 108.888C233.069 105.865 236.526 103.296 240.295 101.261C235.579 100.049 230.604 99.3348 225.675 98.0143C224.48 98.9767 223.338 100.005 222.256 101.093C218.264 105.1 215.545 110.205 214.444 115.762C213.343 121.319 213.909 127.079 216.07 132.313C218.231 137.548 221.89 142.022 226.585 145.169C231.28 148.317 236.799 149.997 242.446 149.997C248.092 149.997 253.611 148.317 258.306 145.169C263.001 142.022 266.66 137.548 268.821 132.313C270.982 127.079 271.548 121.319 270.447 115.762C269.346 110.205 266.628 105.1 262.635 101.093C259.636 98.0835 256.24 96.1176 252.627 94.6885C248.544 97.2142 244.423 98.9693 240.295 101.274C245.621 102.628 250.622 104.636 254.861 108.888Z" fill="url(#paint4_linear_109_101)"/>
<path id="Vector_14" d="M271 62.7107V27.0679H260.004V36.4989C253.09 29.7712 243.809 26.0536 234.179 26.1541C224.549 26.2546 215.347 30.1651 208.575 37.0356C201.802 43.9062 198.005 53.1815 198.009 62.8456C198.014 72.5097 201.819 81.7816 208.598 88.6459C213.881 93.9443 219.755 96.4205 225.662 98.0143C229.685 94.7774 233.702 92.7621 237.702 90.7699C230.086 89.1036 222.525 87.0488 216.372 80.8614C212.797 77.2744 210.363 72.7043 209.376 67.7289C208.39 62.7535 208.896 57.5963 210.831 52.9095C212.765 48.2227 216.041 44.2169 220.245 41.3985C224.448 38.5801 229.39 37.0758 234.445 37.0758C239.501 37.0758 244.442 38.5801 248.646 41.3985C252.849 44.2169 256.125 48.2227 258.06 52.9095C259.994 57.5963 260.5 62.7535 259.514 67.7289C258.528 72.7043 256.093 77.2744 252.518 80.8614C247.642 85.7382 242.693 88.2508 237.715 90.7534C242.795 91.8631 247.888 92.8082 252.627 94.6819C255.411 92.9819 257.984 90.9557 260.292 88.6459C263.692 85.2444 266.389 81.2019 268.226 76.751C270.064 72.3001 271.007 67.5285 271 62.7107Z" fill="url(#paint5_linear_109_101)"/>
<path id="Vector_15" d="M50.6145 26.0142C44.2493 26.0077 38.0661 28.1447 33.0549 32.0831V27.1371H22.0618V99.3875H33.0549V54.6628C33.1438 50.0494 35.0326 45.655 38.3153 42.4239C41.5981 39.1929 46.0129 37.3829 50.6112 37.3829C55.2095 37.3829 59.6243 39.1929 62.9071 42.4239C66.1899 45.655 68.0786 50.0494 68.1675 54.6628V99.3875H79.164V54.6825C79.1666 50.9187 78.43 47.1912 76.9964 43.7131C75.5628 40.235 73.4603 37.0745 70.809 34.4121C68.1577 31.7498 65.0095 29.6378 61.5445 28.1968C58.0794 26.7558 54.3653 26.0142 50.6145 26.0142Z" fill="url(#paint6_linear_109_101)"/>
</g>
<defs>
<linearGradient id="paint0_linear_109_101" x1="2.5268" y1="15.5295" x2="14.7699" y2="3.32873" gradientUnits="userSpaceOnUse">
<stop stop-color="#214654"/>
<stop offset="1" stop-color="#3C7B93"/>
</linearGradient>
<linearGradient id="paint1_linear_109_101" x1="136.601" y1="93.7401" x2="188.474" y2="42.0462" gradientUnits="userSpaceOnUse">
<stop stop-color="#214654"/>
<stop offset="1" stop-color="#3C7B93"/>
</linearGradient>
<linearGradient id="paint2_linear_109_101" x1="-12.3977" y1="83.8086" x2="29.7978" y2="41.7558" gradientUnits="userSpaceOnUse">
<stop stop-color="#214654"/>
<stop offset="1" stop-color="#3C7B93"/>
</linearGradient>
<linearGradient id="paint3_linear_109_101" x1="80.8802" y1="74.3283" x2="112.334" y2="42.9832" gradientUnits="userSpaceOnUse">
<stop stop-color="#214654"/>
<stop offset="1" stop-color="#3C7B93"/>
</linearGradient>
<linearGradient id="paint4_linear_109_101" x1="222.256" y1="141.61" x2="262.775" y2="101.227" gradientUnits="userSpaceOnUse">
<stop stop-color="#214654"/>
<stop offset="1" stop-color="#3C7B93"/>
</linearGradient>
<linearGradient id="paint5_linear_109_101" x1="208.598" y1="88.6459" x2="270.696" y2="26.7629" gradientUnits="userSpaceOnUse">
<stop stop-color="#214654"/>
<stop offset="1" stop-color="#3C7B93"/>
</linearGradient>
<linearGradient id="paint6_linear_109_101" x1="18.3372" y1="95.6533" x2="75.2784" y2="38.9091" gradientUnits="userSpaceOnUse">
<stop stop-color="#214654"/>
<stop offset="1" stop-color="#3C7B93"/>
</linearGradient>
<clipPath id="clip0_109_101">
<rect width="271" height="150" fill="white"/>
</clipPath>
</defs>
</svg>
