<?xml version="1.0" encoding="UTF-8"?>
<!-- Generator: Adobe Illustrator 24.0.1, SVG Export Plug-In . SVG Version: 6.00 Build 0)  -->
<svg version="1.1" id="Camada_1" xmlns="http://www.w3.org/2000/svg" xmlns:xlink="http://www.w3.org/1999/xlink" x="0px" y="0px" viewBox="0 0 48.8 53.8" style="enable-background:new 0 0 48.8 53.8;" xml:space="preserve">
<style type="text/css">
	.st0{fill:none;stroke:#214654;stroke-width:4;stroke-linecap:round;stroke-linejoin:round;}
	.st1{fill:#214654;}
</style>
<title>icon-medic-area</title>
<g id="Camada_2_1_">
	<g id="Layer_1">
		<path class="st0" d="M46.8,51.8c0-9-7.3-16.3-16.3-16.3H18.3C9.3,35.5,2,42.8,2,51.8c0,0,0,0,0,0"/>
		<path class="st1" d="M9.9,17.7l4.3,0.1l-0.1-1.4c-0.1-1.1,0.7-2.1,1.8-2.2c0.1,0,0.3,0,0.4,0c5.3,0.7,10.6,0.7,15.9,0    c1.1-0.2,2.1,0.6,2.3,1.7c0,0.1,0,0.3,0,0.4l-0.1,1.4l4.3-0.1c0.2,0,0.3,0,0.5,0c0.2-0.9,0.2-1.8,0.2-2.6C39.5,6.8,32.7,0,24.4,0    C16,0,9.2,6.8,9.2,15.1c0,0.9,0.1,1.8,0.2,2.6C9.6,17.8,9.8,17.7,9.9,17.7"/>
		<path class="st1" d="M34.2,21.9l-0.1,1.2c-0.1,0.9-0.8,1.7-1.8,1.8c-2.6,0.3-5.3,0.5-7.9,0.5c-2.7,0-5.3-0.2-7.9-0.5    c-0.9-0.1-1.7-0.9-1.8-1.8l-0.1-1.2l-3.9-0.1c3.7,7.5,12.7,10.6,20.3,7c3-1.5,5.5-3.9,7-7L34.2,21.9z"/>
		<polygon class="st0" points="24.4,51.1 30.5,34.8 35.8,46   "/>
		<polygon class="st0" points="24.4,51.1 18.3,34.8 12.9,46   "/>
	</g>
</g>
</svg>