<svg xmlns="http://www.w3.org/2000/svg" viewBox="0 0 56.9 61.93"><defs><style>.cls-1{fill:#fff;}</style></defs><title>icon-w-medic-area</title><g id="Camada_2" data-name="Camada 2"><g id="Layer_1" data-name="Layer 1"><path class="cls-1 fill-blue-500" d="M50.65,44.51a21.2,21.2,0,0,0-15.09-6.25H21.34A21.35,21.35,0,0,0,0,59.6a2.34,2.34,0,0,0,4.67,0A16.6,16.6,0,0,1,17.4,43.42L13,52.71a2.35,2.35,0,0,0-.08,1.82,2.32,2.32,0,0,0,1.25,1.32l13.38,5.89h0l.3.1.14,0a2.28,2.28,0,0,0,.45,0h0a2.28,2.28,0,0,0,.45,0l.14,0,.3-.1h0l13.38-5.89A2.32,2.32,0,0,0,44,54.53a2.35,2.35,0,0,0-.08-1.82l-4.45-9.3A16.63,16.63,0,0,1,52.23,59.6a2.34,2.34,0,0,0,4.67,0A21.2,21.2,0,0,0,50.65,44.51Zm-22.2,8.43-3.75-10h7.5Zm-10.24-.39,2.87-6,3.24,8.68Zm14.36,2.69,3.25-8.68,2.87,6Z"/><path class="cls-1" d="M11.6,20.71l5.08.17-.14-1.67a2.32,2.32,0,0,1,.73-1.88,2.3,2.3,0,0,1,1.91-.62,67.72,67.72,0,0,0,18.54,0,2.3,2.3,0,0,1,1.91.62,2.32,2.32,0,0,1,.73,1.88l-.14,1.67,5.08-.17a2,2,0,0,1,.55.05,17.47,17.47,0,0,0,.28-3.08,17.68,17.68,0,0,0-35.36,0,17.27,17.27,0,0,0,.28,3.07A2.5,2.5,0,0,1,11.6,20.71Z"/><path class="cls-1" d="M39.74,26.92a2.33,2.33,0,0,1-2,2.13,74.11,74.11,0,0,1-9.25.58,74.11,74.11,0,0,1-9.25-.58,2.33,2.33,0,0,1-2-2.13l-.11-1.36-4.5-.15a17.67,17.67,0,0,0,31.79,0l-4.49.15Z"/></g></g></svg>
