<svg xmlns="http://www.w3.org/2000/svg" viewBox="0 0 119.01 114.06"><defs><style>.cls-1{fill:#fff;}</style></defs><title>mm</title><g id="Camada_2" data-name="Camada 2"><g id="Layer_1" data-name="Layer 1"><path class="cls-1" d="M55.29,72.28a3.49,3.49,0,0,0-4.73,1.46,17.73,17.73,0,1,1-15.7-26,3.5,3.5,0,0,0,0-7,24.67,24.67,0,0,0-7.28,1.09v-2a3.5,3.5,0,0,0-7,0v5.41A24.72,24.72,0,0,0,10.13,65.49h0A24.76,24.76,0,0,0,23.76,87.58c2.82,10.13-.44,21.9-.48,22a3.5,3.5,0,0,0,2.41,4.32,3.54,3.54,0,0,0,1,.14A3.5,3.5,0,0,0,30,111.52,56.31,56.31,0,0,0,31.41,90,24.65,24.65,0,0,0,56.75,77,3.49,3.49,0,0,0,55.29,72.28Z"/><path class="cls-1" d="M57.17,108.08a3.54,3.54,0,0,0-1,2.48,3.08,3.08,0,0,0,.07.68,3,3,0,0,0,.2.66,2.89,2.89,0,0,0,.32.6,3.69,3.69,0,0,0,.43.53,3.84,3.84,0,0,0,.54.44,4.3,4.3,0,0,0,.6.32,3.6,3.6,0,0,0,.66.2,3.08,3.08,0,0,0,.68.07,3.52,3.52,0,0,0,2.47-1,3.75,3.75,0,0,0,.44-.53,4.3,4.3,0,0,0,.32-.6,3.6,3.6,0,0,0,.2-.66,3.08,3.08,0,0,0,.07-.68,3.55,3.55,0,0,0-1-2.48A3.63,3.63,0,0,0,57.17,108.08Z"/><path class="cls-1" d="M115.51,28.4h-10V26.92a3.5,3.5,0,0,0-3.5-3.5H78.88a3.5,3.5,0,0,0-3.5,3.5V28.4h-10a3.5,3.5,0,0,0-3.5,3.5V98.57a3.5,3.5,0,0,0,3.5,3.5h22A56.25,56.25,0,0,0,89,111.52a3.5,3.5,0,0,0,3.36,2.54,3.54,3.54,0,0,0,1-.14,3.5,3.5,0,0,0,2.41-4.32,49.28,49.28,0,0,1-1.35-7.53h21.13a3.5,3.5,0,0,0,3.5-3.5V31.9A3.5,3.5,0,0,0,115.51,28.4ZM68.85,84.93A24.63,24.63,0,0,0,87.6,90a45.4,45.4,0,0,0-.47,5.1H68.85ZM112,95.07H94.13a33,33,0,0,1,1.12-7.49A24.74,24.74,0,0,0,108.88,65.5h0A24.75,24.75,0,0,0,84.15,40.76a3.5,3.5,0,0,0,0,7,17.75,17.75,0,0,1,17.73,17.73h0a17.73,17.73,0,0,1-33,9V35.4H112Z"/><path class="cls-1" d="M74.45,52.33A8.87,8.87,0,1,0,82,50.68,8.81,8.81,0,0,0,74.45,52.33Zm7.31,6.58a1.83,1.83,0,0,1-.69,1.87,1.87,1.87,0,0,1-3-1.48,1.83,1.83,0,0,1,.71-1.47,1.8,1.8,0,0,1,1.59-.34A1.82,1.82,0,0,1,81.76,58.91Z"/><path class="cls-1" d="M31.51,19.33c13.9,0,16.7-7.79,17.61-15.42a3.5,3.5,0,0,0-6.95-.82c-.69,5.75-1.74,9.24-10.66,9.24C22.08,12.33,0,12.33,0,42.21a3.5,3.5,0,0,0,7,0C7,21.09,19.11,19.33,31.51,19.33Z"/><path class="cls-1" d="M87.5,19.33a3.5,3.5,0,1,0,0-7c-8.92,0-10-3.49-10.66-9.24a3.5,3.5,0,0,0-7,.82C70.8,11.54,73.6,19.33,87.5,19.33Z"/></g></g></svg>