<?xml version="1.0" encoding="UTF-8"?>
<!-- Generator: Adobe Illustrator 24.0.1, SVG Export Plug-In . SVG Version: 6.00 Build 0)  -->
<svg version="1.1" id="Camada_1" xmlns="http://www.w3.org/2000/svg" xmlns:xlink="http://www.w3.org/1999/xlink" x="0px" y="0px" viewBox="0 0 15.8 15.8" style="enable-background:new 0 0 15.8 15.8;" xml:space="preserve">
<style type="text/css">
	.st0{fill-rule:evenodd;clip-rule:evenodd;fill:#214654;}
</style>
<title>online</title>
<g id="Camada_2_1_">
	<g id="Camada_1-2">
		<path class="st0" d="M14,11.1h-2.4c0.3-0.9,0.4-1.8,0.4-2.8h2.8C14.7,9.3,14.5,10.3,14,11.1 M12.8,12.8c-0.8,0.8-1.9,1.4-3,1.8    c0.3-0.3,0.5-0.6,0.7-1c0.3-0.5,0.5-1,0.8-1.5h2.1C13.2,12.3,13,12.6,12.8,12.8z M8.4,14.6v-2.6h1.9c-0.1,0.3-0.3,0.7-0.5,1    C9.4,13.7,8.9,14.2,8.4,14.6z M11.1,8.4c0,0.9-0.2,1.9-0.5,2.8H8.4V8.4H11.1z M8.4,4.7h2.3c0.3,0.9,0.4,1.8,0.5,2.8H8.4V4.7z     M8.4,1.1c0.6,0.4,1,1,1.4,1.6c0.2,0.3,0.4,0.7,0.5,1H8.4V1.1z M12.8,3c0.2,0.2,0.4,0.5,0.6,0.7h-2.1c-0.2-0.5-0.5-1-0.8-1.5    c-0.2-0.4-0.5-0.7-0.7-1C11,1.6,12,2.2,12.8,3z M14,4.7c0.5,0.9,0.7,1.8,0.8,2.8h-2.7c0-0.9-0.2-1.9-0.4-2.8H14z M7.4,3.7H5.5    C5.6,3.4,5.8,3,6,2.7c0.4-0.6,0.8-1.2,1.4-1.6V3.7z M7.4,7.4H4.7c0-0.9,0.2-1.9,0.5-2.8h2.3V7.4z M7.4,11.1H5.1    c-0.3-0.9-0.4-1.8-0.5-2.8h2.8V11.1z M7.4,14.6c-0.6-0.4-1.1-0.9-1.4-1.6c-0.2-0.3-0.4-0.7-0.5-1h1.9V14.6z M3,12.8    c-0.2-0.2-0.4-0.5-0.6-0.7h2.1c0.2,0.5,0.5,1,0.7,1.5c0.2,0.4,0.5,0.7,0.7,1C4.8,14.2,3.8,13.6,3,12.8z M1.7,11.1    C1.3,10.3,1.1,9.3,1,8.4h2.7c0,0.9,0.2,1.9,0.4,2.8L1.7,11.1z M1.7,4.7h2.4C3.9,5.6,3.8,6.5,3.7,7.4H1C1.1,6.5,1.3,5.5,1.7,4.7z     M3,3c0.8-0.8,1.9-1.4,3-1.8c-0.3,0.3-0.5,0.6-0.7,1C5,2.7,4.7,3.2,4.5,3.8H2.3C2.5,3.5,2.8,3.2,3,3z M13.5,2.3C12,0.9,10.1,0,8,0    H7.8C3.5,0,0,3.6,0,7.9c0,4.3,3.5,7.8,7.8,7.9H8c4.4-0.1,7.8-3.6,7.8-8C15.8,5.7,14.9,3.8,13.5,2.3L13.5,2.3z"/>
	</g>
</g>
</svg>