<svg width="244" height="266" viewBox="0 0 244 266" fill="none" xmlns="http://www.w3.org/2000/svg">
<g clip-path="url(#clip0_715_2)">
<path d="M217 190.7C199.9 173.5 176.6 163.9 152.4 164H91.4C41 164 0 204.9 0 255.4C0 260.9 4.5 265.4 10 265.4C15.5 265.4 20 260.9 20 255.4C20 216 52 184 91.4 184H152.3C191.8 184 223.7 216 223.7 255.4C223.7 260.9 228.2 265.4 233.7 265.4C239.2 265.4 243.7 260.9 243.7 255.4C243.9 231.1 234.2 207.9 217 190.7Z" fill="#214654"/>
<path fill-rule="evenodd" clip-rule="evenodd" d="M197.7 75.8C197.7 117.663 163.763 151.6 121.9 151.6C80.0368 151.6 46.1 117.663 46.1 75.8C46.1 33.9368 80.0368 0 121.9 0C163.763 0 197.7 33.9368 197.7 75.8ZM113.63 40.4399C116.19 39.7199 118.91 39.3599 121.79 39.3599C124.67 39.3599 126.83 40.04 128.27 41.4C129.79 42.7599 130.55 44.3999 130.55 46.3199C130.55 48.6399 129.79 50.7199 128.27 52.5599C126.75 54.32 125.07 56.1199 123.23 57.9599C121.95 59.24 120.71 60.56 119.51 61.9199C118.31 63.28 117.23 64.7599 116.27 66.3599C115.39 67.88 114.67 69.5599 114.11 71.3999C113.55 73.16 113.27 75.16 113.27 77.3999V80.0399C113.35 80.9999 113.47 81.88 113.63 82.6799H129.47C129.39 82.2 129.35 81.6399 129.35 80.9999V79.56C129.35 78.2 129.63 76.88 130.19 75.6C130.75 74.24 131.43 72.9599 132.23 71.7599C133.11 70.56 134.07 69.4399 135.11 68.3999C136.15 67.28 137.15 66.24 138.11 65.2799C139.39 63.9999 140.71 62.6399 142.07 61.2C143.43 59.7599 144.63 58.2399 145.67 56.6399C146.71 55.0399 147.55 53.3199 148.19 51.4799C148.91 49.56 149.27 47.4799 149.27 45.2399C149.27 42.9999 148.87 40.6399 148.07 38.16C147.35 35.6799 146.03 33.3999 144.11 31.3199C142.19 29.2399 139.55 27.52 136.19 26.1599C132.91 24.7999 128.71 24.1199 123.59 24.1199C119.51 24.1199 115.35 24.6799 111.11 25.7999C106.87 26.8399 103.19 28.3599 100.07 30.36L105.11 43.9199C108.23 42.32 111.07 41.16 113.63 40.4399ZM129.47 107.88C131.79 105.96 132.95 103.24 132.95 99.7199C132.95 96.2 131.79 93.4799 129.47 91.56C127.23 89.64 124.67 88.6799 121.79 88.6799C118.91 88.6799 116.31 89.64 113.99 91.56C111.75 93.4799 110.63 96.2 110.63 99.7199C110.63 103.24 111.75 105.96 113.99 107.88C116.31 109.8 118.91 110.76 121.79 110.76C124.67 110.76 127.23 109.8 129.47 107.88Z" fill="#214654"/>
</g>
<defs>
<clipPath id="clip0_715_2">
<rect width="243.8" height="265.4" fill="white"/>
</clipPath>
</defs>
</svg>
