<?xml version="1.0" encoding="UTF-8"?>
<!-- Generator: Adobe Illustrator 24.0.1, SVG Export Plug-In . SVG Version: 6.00 Build 0)  -->
<svg version="1.1" id="Camada_1" xmlns="http://www.w3.org/2000/svg" xmlns:xlink="http://www.w3.org/1999/xlink" x="0px" y="0px" viewBox="0 0 265.3 265.4" style="enable-background:new 0 0 265.3 265.4;" xml:space="preserve">
<style type="text/css">
	.st0{fill:none;}
	.st1{fill:#214654;}
</style>
<title>realizacao</title>
<g id="Layer_1">
	<polygon class="st0" points="135.8,141.5 141.5,60.9 123.7,60.9 129.5,141.5  "/>
	<rect x="123" y="194.2" class="st0" width="19.3" height="10.3"/>
	<path class="st0" d="M212.3,53C169.1,8.2,97.8,6.9,53,50.1S6.9,164.7,50.1,209.5c1,1,1.9,2,2.9,2.9c44.8,43.2,116.2,41.9,159.4-3   C254.4,165.8,254.4,96.6,212.3,53z M105.7,44.1c1.9-2,4.5-3.2,7.3-3.2h39.3c5.5,0,10,4.5,10,10c0,0.2,0,0.5,0,0.7l-7.1,100.6   c-0.4,5.2-4.7,9.3-10,9.3h-25c-5.3,0-9.6-4-10-9.3L103,51.6C102.8,48.8,103.8,46.1,105.7,44.1z M162.3,214.5c0,5.5-4.5,10-10,10   H113c-5.5,0-10-4.5-10-10v-30.3c0-5.5,4.5-10,10-10h39.3c5.5,0,10,4.5,10,10L162.3,214.5z"/>
	<path class="st1" d="M226.5,38.9C174.6-13,90.6-13,38.8,38.9c0,0,0,0,0,0c-51.7,51.7-51.7,135.9,0,187.7   c51.8,51.8,135.8,51.8,187.7,0c0,0,0,0,0,0C278.2,174.8,278.2,90.6,226.5,38.9z M212.3,212.4c-44.8,43.2-116.2,41.9-159.4-3   C10.9,165.8,10.9,96.6,53,53c44.8-43.2,116.2-41.9,159.4,3C254.4,99.6,254.4,168.7,212.3,212.4z"/>
	<path class="st1" d="M110.2,152.2c0.4,5.2,4.7,9.3,10,9.3h25c5.3,0,9.6-4,10-9.3l7.1-100.6c0.4-5.5-3.8-10.3-9.3-10.7   c-0.2,0-0.5,0-0.7,0H113c-5.5,0-10,4.5-10,10c0,0.2,0,0.5,0,0.7L110.2,152.2z M141.5,60.9l-5.7,80.6h-6.4l-5.7-80.6L141.5,60.9z"/>
	<path class="st1" d="M152.3,174.2H113c-5.5,0-10,4.5-10,10v30.3c0,5.5,4.5,10,10,10h39.3c5.5,0,10-4.5,10-10v-30.3   C162.3,178.7,157.8,174.2,152.3,174.2z M142.3,204.5H123v-10.3h19.3L142.3,204.5z"/>
</g>
</svg>