<?xml version="1.0" encoding="UTF-8"?>
<!-- Generator: Adobe Illustrator 24.0.1, SVG Export Plug-In . SVG Version: 6.00 Build 0)  -->
<svg version="1.1" id="Camada_1" xmlns="http://www.w3.org/2000/svg" xmlns:xlink="http://www.w3.org/1999/xlink" x="0px" y="0px" viewBox="0 0 48.8 53.1" style="enable-background:new 0 0 48.8 53.1;" xml:space="preserve">
<style type="text/css">
	.st0{fill:#214654;}
	.st1{fill:none;stroke:#214654;stroke-width:4;stroke-linecap:round;stroke-linejoin:round;}
</style>
<title>icon-pacient-area</title>
<g id="Camada_2_1_">
	<g id="Layer_1">
		<path class="st0" d="M11.2,15.1C11.2,7.9,17.1,2,24.4,2s13.1,5.9,13.1,13.1s-5.9,13.1-13.1,13.1C17.1,28.3,11.2,22.4,11.2,15.1"/>
		<path class="st1" d="M11.2,15.1C11.2,7.9,17.1,2,24.4,2s13.1,5.9,13.1,13.1s-5.9,13.1-13.1,13.1C17.1,28.3,11.2,22.4,11.2,15.1z"/>
		<path class="st1" d="M46.8,51.1c0-9-7.3-16.3-16.3-16.3H18.3C9.3,34.8,2,42.1,2,51.1"/>
	</g>
</g>
</svg>