<svg xmlns="http://www.w3.org/2000/svg" viewBox="0 0 112.33 121.69"><defs><style>.cls-1{fill:#fff;}</style></defs><title>pb</title><g id="Camada_2" data-name="Camada 2"><g id="Layer_1" data-name="Layer 1"><path class="cls-1" d="M108.83,89a3.5,3.5,0,0,0-3.5,3.5v7.25H86V88.29a3.5,3.5,0,0,0-7,0V89H31.64a7.78,7.78,0,0,0-7.77,7.76v3H3.5a3.5,3.5,0,0,0,0,7H23.87v3a7.78,7.78,0,0,0,7.77,7.76H79v.7a3.5,3.5,0,0,0,7,0V106.74h19.34V114a3.5,3.5,0,0,0,7,0V92.49A3.5,3.5,0,0,0,108.83,89Zm-78,20.74v-13a.77.77,0,0,1,.77-.76H60.52v14.5H31.64A.77.77,0,0,1,30.87,109.73Zm48.12.76H67.52V96H79Z"/><path class="cls-1" d="M58.34,83.25A41.63,41.63,0,0,0,87.78,12.19,41.62,41.62,0,1,0,28.91,71.05,41.33,41.33,0,0,0,58.34,83.25ZM33.86,17.14a34.62,34.62,0,0,1,49,49,34.62,34.62,0,0,1-49-49Z"/><path class="cls-1" d="M38.25,46.74A22.32,22.32,0,0,1,41,53.08c.12.65.19,1.39.26,2.17a17.22,17.22,0,0,0,1.05,5.25,10.93,10.93,0,0,0,8.77,6.66,9.45,9.45,0,0,0,1.18.07,11,11,0,0,0,8.88-4.57,19.37,19.37,0,0,0,1.56-2.84,14,14,0,0,1,.83-1.61l1,.11c3.79.41,13.84,1.52,15.29-9.84a12.78,12.78,0,0,0-.66-5.18c-.1-.34-.2-.68-.28-1a32.7,32.7,0,0,1-.68-5.89c-.07-1.15-.14-2.34-.27-3.54-.53-5-2.09-8.66-4.76-11.2-5.33-5-13.8-4.06-19.41-.49-.46.3-.91.61-1.36.92a13.56,13.56,0,0,1-2.55,1.51,14.11,14.11,0,0,1-3.58.63c-2.39.24-5.1.5-7.55,2.24-5.05,3.61-5,10.74-2.76,15.85A49.41,49.41,0,0,0,38.25,46.74Zm4.56-14.57c.92-.65,2.42-.8,4.16-1a20,20,0,0,0,5.44-1.07,19.44,19.44,0,0,0,4-2.28c.38-.26.76-.53,1.15-.77a12.21,12.21,0,0,1,6.33-1.92,6.43,6.43,0,0,1,4.51,1.59c1.39,1.32,2.27,3.62,2.61,6.85.11,1,.17,2.09.24,3.2A38.43,38.43,0,0,0,72.1,44c.11.42.22.84.34,1.26a7.34,7.34,0,0,1,.45,2.38c-.49,3.9-2.24,4.34-7.57,3.76-2.16-.24-4-.45-5.59.77a11.85,11.85,0,0,0-3.33,4.71,14.26,14.26,0,0,1-.95,1.78,3.8,3.8,0,0,1-6.63-.76,11.94,11.94,0,0,1-.56-3.23,28.12,28.12,0,0,0-.36-2.87,27.74,27.74,0,0,0-3.54-8.44c-.73-1.31-1.42-2.54-2-3.78C41.25,36.88,41.09,33.4,42.81,32.17Z"/><path class="cls-1" d="M59.69,35.69a4.42,4.42,0,0,0,.32.61,3.75,3.75,0,0,0,.44.53,3.12,3.12,0,0,0,.53.43,3.6,3.6,0,0,0,.61.33,3.72,3.72,0,0,0,.65.19,3.39,3.39,0,0,0,1.37,0,3.72,3.72,0,0,0,.65-.19,3.6,3.6,0,0,0,.61-.33,3.12,3.12,0,0,0,.53-.43,3.75,3.75,0,0,0,.44-.53,4.42,4.42,0,0,0,.32-.61,4.88,4.88,0,0,0,.2-.65,3.94,3.94,0,0,0,0-1.37,4.88,4.88,0,0,0-.2-.65,3.91,3.91,0,0,0-.32-.61,3.73,3.73,0,0,0-1-1,3.5,3.5,0,0,0-.61-.31,3.08,3.08,0,0,0-.65-.21,3.51,3.51,0,0,0-1.37,0,3.08,3.08,0,0,0-.65.21,3.5,3.5,0,0,0-.61.31,3.75,3.75,0,0,0-.53.44,3.53,3.53,0,0,0-1,2.48,4,4,0,0,0,.07.68A4.88,4.88,0,0,0,59.69,35.69Z"/><path class="cls-1" d="M47.76,43.06a3,3,0,0,0,.61.32,3,3,0,0,0,.65.2,3.23,3.23,0,0,0,.69.07,3.5,3.5,0,0,0,3.5-3.5,3.82,3.82,0,0,0-.07-.68,3.6,3.6,0,0,0-.2-.66,4.3,4.3,0,0,0-.32-.6,3.18,3.18,0,0,0-.44-.53,4.58,4.58,0,0,0-.53-.44,5.7,5.7,0,0,0-.6-.32,4.15,4.15,0,0,0-.66-.2,3.51,3.51,0,0,0-1.37,0,3.75,3.75,0,0,0-.65.2,5.86,5.86,0,0,0-.61.32,4.58,4.58,0,0,0-.53.44,3.12,3.12,0,0,0-.43.53,2.89,2.89,0,0,0-.32.6,3,3,0,0,0-.2.66,3.08,3.08,0,0,0-.07.68,3.56,3.56,0,0,0,1,2.48A3.69,3.69,0,0,0,47.76,43.06Z"/><path class="cls-1" d="M66,42.34a3.63,3.63,0,0,0-4.95,0,2.88,2.88,0,0,0-.44.54,3.13,3.13,0,0,0-.32.6,3,3,0,0,0-.2.65,3.23,3.23,0,0,0-.07.69,3.48,3.48,0,0,0,1,2.47,3.75,3.75,0,0,0,.53.44,4.3,4.3,0,0,0,.6.32,4.6,4.6,0,0,0,.66.2,3.88,3.88,0,0,0,1.36,0,4.6,4.6,0,0,0,.66-.2,4.3,4.3,0,0,0,.6-.32,3.84,3.84,0,0,0,.54-.44,3.51,3.51,0,0,0,1-2.47,3.23,3.23,0,0,0-.07-.69,3,3,0,0,0-.2-.65,3.13,3.13,0,0,0-.32-.6A3.29,3.29,0,0,0,66,42.34Z"/></g></g></svg>