<svg xmlns="http://www.w3.org/2000/svg" viewBox="0 0 26.35 32.51"><defs><style>.cls-1{fill:#fff;}</style></defs><title>phoe-icon-footer</title><g id="Camada_2" data-name="Camada 2"><g id="Layer_1" data-name="Layer 1"><path class="cls-1" d="M9.32,3.67v1A4.33,4.33,0,0,1,13.65,9h1A5.29,5.29,0,0,0,9.32,3.67Z"/><path class="cls-1" d="M17.32,8.05h1a8.06,8.06,0,0,0-8-8V1a7.1,7.1,0,0,1,7.09,7.09Z"/><path class="cls-1" d="M19.84,20.71l-3.4,3.4-8-8,3.39-3.4L5.28,6.16,1.55,9.89a5.28,5.28,0,0,0,0,7.48L15.14,31a5.28,5.28,0,0,0,7.47,0l3.74-3.74Zm2.09,9.57a4.32,4.32,0,0,1-6.12,0L2.23,16.69a4.33,4.33,0,0,1,0-6.12L5.28,7.52l5.15,5.15L7,16.07l9.4,9.4,3.4-3.4L25,27.22Z"/></g></g></svg>