<svg xmlns="http://www.w3.org/2000/svg" viewBox="0 0 221.51 297"><defs><style>.cls-1{fill:#fff;}</style></defs><title>location</title><g id="Camada_2" data-name="Camada 2"><g id="Layer_1" data-name="Layer 1"><path class="cls-1" d="M110.75,0A110.9,110.9,0,0,0,0,110.8c0,91,99.73,179.9,104,183.64a10.24,10.24,0,0,0,13.55,0c4.25-3.74,104-92.62,104-183.64A110.9,110.9,0,0,0,110.75,0Zm0,272.69c-22-21.37-90.24-93-90.24-161.89a90.25,90.25,0,1,1,180.49,0C201,179.66,132.8,251.32,110.75,272.69Z"/><path class="cls-1" d="M110.75,59.18A51.62,51.62,0,1,0,162,110.8,51.51,51.51,0,0,0,110.75,59.18Zm0,82.72a31.11,31.11,0,1,1,30.77-31.1A31,31,0,0,1,110.75,141.9Z"/></g></g></svg>