<?xml version="1.0" encoding="UTF-8"?>
<!-- Generator: Adobe Illustrator 24.0.1, SVG Export Plug-In . SVG Version: 6.00 Build 0)  -->
<svg version="1.1" id="Camada_1" xmlns="http://www.w3.org/2000/svg" xmlns:xlink="http://www.w3.org/1999/xlink" x="0px" y="0px" viewBox="0 0 276.1 265.4" style="enable-background:new 0 0 276.1 265.4;" xml:space="preserve">
<style type="text/css">
	.st0{fill:none;}
	.st1{fill:#214654;}
</style>
<title>prazo</title>
<g id="Camada_2_1_">
	<g id="Layer_1">
		<rect x="194.4" y="89.1" class="st0" width="26.3" height="26.3"/>
		<rect x="194.4" y="135.4" class="st0" width="26.3" height="26.3"/>
		<rect x="148.1" y="89.1" class="st0" width="26.3" height="26.3"/>
		<rect x="101.7" y="89.1" class="st0" width="26.3" height="26.3"/>
		<rect x="148.1" y="135.4" class="st0" width="26.3" height="26.3"/>
		<polygon class="st0" points="34.1,215.8 49.6,231.3 49.6,215.8   "/>
		<rect x="55.4" y="89.1" class="st0" width="26.3" height="26.3"/>
		<rect x="194.4" y="181.7" class="st0" width="26.3" height="26.3"/>
		<path class="st0" d="M231.2,43.8c0,5.5-4.5,10-10,10h-18.5c-5.5,0-10-4.5-10-10v-6.9H83.4v6.9c0,5.5-4.5,10-10,10H54.9    c-5.5,0-10-4.5-10-10v-6.9H20v158.9h39.6c5.5,0,10,4.5,10,10v39.6h186.5V36.9h-24.9V43.8z M240.7,125.4V218c0,5.5-4.5,10-10,10    h-92.6c-5.5,0-10-4.5-10-10v-36.3H45.4c-5.5,0-10-4.5-10-10V79.1c0-5.5,4.5-10,10-10h185.3c5.5,0,10,4.5,10,10L240.7,125.4z"/>
		<rect x="148.1" y="181.7" class="st0" width="26.3" height="26.3"/>
		<rect x="101.7" y="135.4" class="st0" width="26.3" height="26.3"/>
		<rect x="55.4" y="135.4" class="st0" width="26.3" height="26.3"/>
		<path class="st1" d="M266.1,16.9h-34.9V10c0-5.5-4.5-10-10-10h-18.5c-5.5,0-10,4.5-10,10v6.9H83.4V10c0-5.5-4.5-10-10-10H54.9    c-5.5,0-10,4.5-10,10v6.9H10c-5.5,0-10,4.5-10,10v178.9c0,0.1,0,0.2,0,0.3s0,0.2,0,0.3c0,0.4,0.1,0.9,0.2,1.3l0,0    c0.1,0.4,0.2,0.8,0.4,1.2c0,0.1,0.1,0.2,0.1,0.3c0.1,0.4,0.3,0.8,0.5,1.1v0.1c0.2,0.4,0.4,0.7,0.7,1.1l0.2,0.3    c0.3,0.4,0.6,0.7,0.9,1l49.6,49.6c0.2,0.2,0.5,0.5,0.7,0.7s0.3,0.3,0.5,0.4l0.3,0.2l0.6,0.3l0.3,0.2c0.2,0.1,0.4,0.2,0.6,0.3    l0.3,0.1l0.5,0.2l0.4,0.1l0.5,0.1l0.5,0.1c0.2,0,0.4,0.1,0.5,0.1l0.4,0.1c0.3,0,0.6,0,0.9,0h206.7c5.5,0,10-4.5,10-10V26.9    C276.1,21.4,271.6,16.9,266.1,16.9z M34.1,215.8h15.4v15.4L34.1,215.8z M256.1,245.4H69.6v-39.6c0-5.5-4.5-10-10-10H20V36.9h24.9    v6.9c0,5.5,4.5,10,10,10h18.5c5.5,0,10-4.5,10-10v-6.9h109.3v6.9c0,5.5,4.5,10,10,10h18.5c5.5,0,10-4.5,10-10v-6.9h24.9    L256.1,245.4z"/>
		<path class="st1" d="M230.7,69.1H45.4c-5.5,0-10,4.5-10,10v92.6c0,5.5,4.5,10,10,10h82.6V218c0,5.5,4.5,10,10,10h92.6    c5.5,0,10-4.5,10-10V79.1C240.7,73.6,236.2,69.1,230.7,69.1z M148,135.4h26.3v26.3h-26.3L148,135.4z M194.4,135.4h26.3v26.3h-26.3    L194.4,135.4z M220.7,115.4h-26.3V89.1h26.3V115.4z M174.4,115.4h-26.3V89.1h26.3L174.4,115.4z M128,115.4h-26.3V89.1h26.3    L128,115.4z M55.4,89.1h26.3v26.3H55.4V89.1z M55.4,135.4h26.3v26.3H55.4V135.4z M101.7,135.4H128v26.3h-26.3L101.7,135.4z     M148,181.7h26.3V208h-26.3L148,181.7z M220.7,208h-26.3v-26.3h26.3V208z"/>
	</g>
</g>
</svg>