<svg xmlns="http://www.w3.org/2000/svg" viewBox="0 0 107.38 114.06"><defs><style>.cls-1{fill:#fff;}</style></defs><title>rm</title><g id="Camada_2" data-name="Camada 2"><g id="Layer_1" data-name="Layer 1"><circle class="cls-1" cx="47.18" cy="46.99" r="15.19"/><path class="cls-1" d="M66.19,54a8.24,8.24,0,0,0,8.23,8.23H95.9a11.49,11.49,0,0,0,0-23h-15A14.77,14.77,0,0,0,66.19,54Zm34.19-3.25a4.49,4.49,0,0,1-4.48,4.48H74.42A1.23,1.23,0,0,1,73.19,54a7.76,7.76,0,0,1,7.74-7.74h15A4.49,4.49,0,0,1,100.38,50.7Z"/><path class="cls-1" d="M103.88,65H47.18a3.5,3.5,0,0,0,0,7h6.47A25.86,25.86,0,1,1,66.87,30.46a3.54,3.54,0,0,0,2.69,1.26H86.23a3.51,3.51,0,0,0,3.16-5A47,47,0,1,0,11.65,77.91l6.83,33.35a3.49,3.49,0,0,0,3.43,2.8H72.07a3.49,3.49,0,0,0,3.43-2.8L82.31,78a48.54,48.54,0,0,0,4.47-6h17.1a3.5,3.5,0,0,0,0-7ZM69.22,107.06H24.76L20.39,85.7a47,47,0,0,0,53.18.07Zm7.45-33.25c-.08.07-.14.16-.21.23A40,40,0,1,1,47,7,40.24,40.24,0,0,1,80.2,24.72h-9A32.86,32.86,0,1,0,68.33,72h9.9C77.73,72.6,77.2,73.21,76.67,73.81Z"/></g></g></svg>