<svg xmlns="http://www.w3.org/2000/svg" viewBox="0 0 115.46 115.46"><defs><style>.cls-1{fill:#fff;}</style></defs><title>rx</title><g id="Camada_2" data-name="Camada 2"><g id="Layer_1" data-name="Layer 1"><path class="cls-1" d="M111.26,0H62V24.45c0,3,.25,4.65,5.09,4.77.48-9.62,2.78-19.86,12-19.86,13.24,0,24.41,32.56,24.41,53,0,.64.09,15.85-4.41,20.05a4,4,0,0,1-2.78,1.16c-2.71,0-4-1-5.92-2.29-2.33-1.66-5.53-3.93-13.66-6.1C63,71.52,64.46,59.58,66,47c.38-3.22.78-6.51.94-9.77-3.87-.11-7-1-9.19-2.67-2.23,1.67-5.32,2.56-9.19,2.67.16,3.26.56,6.56.94,9.77,1.52,12.63,3,24.57-10.82,28.25C30.53,77.37,27.33,79.64,25,81.3c-1.86,1.33-3.21,2.29-5.91,2.29a4,4,0,0,1-2.78-1.16c-4.5-4.2-4.42-19.41-4.41-20.06,0-20.45,11.17-53,24.41-53,9.26,0,11.56,10.24,12,19.86,4.84-.12,5.09-1.75,5.09-4.77V0H4.2A4.2,4.2,0,0,0,0,4.2V111.26a4.2,4.2,0,0,0,4.2,4.2H111.26a4.2,4.2,0,0,0,4.2-4.2V4.2a4.2,4.2,0,0,0-4.2-4.2M55.54,100.53h-7a3.28,3.28,0,0,1,0-6.55h7a3.28,3.28,0,0,1,0,6.55m13.51-1a3.31,3.31,0,0,1-.5.41,2.73,2.73,0,0,1-.56.3,4.31,4.31,0,0,1-.61.19,3.47,3.47,0,0,1-.64.06,3.39,3.39,0,0,1-.64-.06,3.94,3.94,0,0,1-.61-.19,3.1,3.1,0,0,1-.57-.3,3.89,3.89,0,0,1-.5-.41,3.29,3.29,0,0,1-1-2.31A3.72,3.72,0,0,1,63.71,96a3.43,3.43,0,0,1,.31-.56,2.74,2.74,0,0,1,.4-.5,3.81,3.81,0,0,1,.5-.4,3.1,3.1,0,0,1,.57-.3,2.54,2.54,0,0,1,.61-.19,3.07,3.07,0,0,1,1.28,0,2.69,2.69,0,0,1,.61.19,2.73,2.73,0,0,1,.56.3,3.25,3.25,0,0,1,.5.4,3.31,3.31,0,0,1,.41.5,3.07,3.07,0,0,1,.48,1.18,2.73,2.73,0,0,1,.07.64,3.29,3.29,0,0,1-1,2.31M67.82,89H48.54a3.27,3.27,0,0,1,0-6.54H67.82a3.27,3.27,0,1,1,0,6.54m29.44,11.56H78A3.28,3.28,0,1,1,78,94H97.26a3.28,3.28,0,0,1,0,6.55"/></g></g></svg>