<svg xmlns="http://www.w3.org/2000/svg" viewBox="0 0 109.23 112.5"><defs><style>.cls-1{fill:#fff;}</style></defs><title>tc</title><g id="Camada_2" data-name="Camada 2"><g id="Layer_1" data-name="Layer 1"><path class="cls-1" d="M97.56,0H11.67A11.69,11.69,0,0,0,0,11.67v82a11.69,11.69,0,0,0,11.67,11.67H36.59V109a3.5,3.5,0,0,0,7,0V88.34A7.06,7.06,0,0,1,46,83.05l0,0a7,7,0,0,1,4.65-1.74h7.91a7.07,7.07,0,0,1,7.07,7.06V109a3.5,3.5,0,0,0,7,0v-3.69H97.56a11.69,11.69,0,0,0,11.67-11.67v-82A11.69,11.69,0,0,0,97.56,0ZM89.5,54.21H82.66A28.32,28.32,0,0,0,58.11,29.67V23A35.14,35.14,0,0,1,89.5,54.21ZM72.62,88.06a13.89,13.89,0,0,0-1.85-6.7A28,28,0,0,0,82.7,61.21h6.83A34.85,34.85,0,0,1,72.62,88.06ZM51.11,29.67a28.33,28.33,0,0,0-24.6,25H19.69A35.13,35.13,0,0,1,51.11,23Zm-24.54,32a28,28,0,0,0,11.89,19.7,14,14,0,0,0-1.85,6.69A35,35,0,0,1,19.75,61.66ZM50.66,74.28a14,14,0,0,0-7.2,2,21.13,21.13,0,0,1-10.11-18.1v-.45a21.27,21.27,0,0,1,42.53,0v.45A21.12,21.12,0,0,1,65.76,76.27a13.94,13.94,0,0,0-7.19-2Zm51.57,19.36a4.68,4.68,0,0,1-4.67,4.67H72.64V96a41.91,41.91,0,0,0,24.06-38v-.23s0,0,0-.07A42.12,42.12,0,0,0,54.62,15.85h0A42.13,42.13,0,0,0,12.53,57.94v.27A42,42,0,0,0,36.59,96v2.34H11.67A4.68,4.68,0,0,1,7,93.64v-82A4.68,4.68,0,0,1,11.67,7H97.56a4.68,4.68,0,0,1,4.67,4.67Z"/><path class="cls-1" d="M67.78,56.6A13.17,13.17,0,1,0,54.61,69.77,13.19,13.19,0,0,0,67.78,56.6Z"/><path class="cls-1" d="M19,14.25a3.91,3.91,0,0,0-.32-.61,3.75,3.75,0,0,0-.44-.53,3.53,3.53,0,0,0-3.16-1,4.88,4.88,0,0,0-.65.2,4.3,4.3,0,0,0-.6.32,3.84,3.84,0,0,0-.54.44,3.69,3.69,0,0,0-.43.53,2.73,2.73,0,0,0-.32.61,3,3,0,0,0-.2.65,3.21,3.21,0,0,0-.07.68,3.52,3.52,0,0,0,1,2.48,3.19,3.19,0,0,0,.54.43,3.51,3.51,0,0,0,.6.33,4.88,4.88,0,0,0,.65.2,4,4,0,0,0,.69.06,3.82,3.82,0,0,0,.68-.06,4.6,4.6,0,0,0,.66-.2,3.51,3.51,0,0,0,.6-.33,3.12,3.12,0,0,0,.53-.43,3.53,3.53,0,0,0,1-2.48,3.21,3.21,0,0,0-.07-.68A3,3,0,0,0,19,14.25Z"/><path class="cls-1" d="M29,12.67a4.3,4.3,0,0,0-.6-.32,4.88,4.88,0,0,0-.65-.2,3.56,3.56,0,0,0-3.16,1,3.75,3.75,0,0,0-.44.53,3.91,3.91,0,0,0-.32.61,3.75,3.75,0,0,0-.2.65,3.21,3.21,0,0,0-.07.68,3.5,3.5,0,0,0,3.5,3.5,4,4,0,0,0,.69-.06,4.88,4.88,0,0,0,.65-.2,3.51,3.51,0,0,0,.6-.33,3.19,3.19,0,0,0,.54-.43,3.51,3.51,0,0,0,0-4.95A3.84,3.84,0,0,0,29,12.67Z"/></g></g></svg>