<svg xmlns="http://www.w3.org/2000/svg" viewBox="0 0 121.58 114.04"><defs><style>.cls-1{fill:#fff;}</style></defs><title>ut</title><g id="Camada_2" data-name="Camada 2"><g id="Layer_1" data-name="Layer 1"><path class="cls-1" d="M121.08,92.73,87.8,37.33a3.49,3.49,0,0,0-4.93-1.11A41.55,41.55,0,0,1,58.94,43a43.38,43.38,0,0,1-20.42-5.7,3.49,3.49,0,0,0-4.71,1.2L.52,92.35A3.49,3.49,0,0,0,.1,95a3.45,3.45,0,0,0,1.58,2.17A115,115,0,0,0,58.77,114c.92,0,1.83,0,2.75,0a111.26,111.26,0,0,0,38-6.65c2.19-.8,4.38-1.68,6.52-2.61,2-.86,4-1.8,5.89-2.79,2.7-1.38,5.38-2.89,8-4.48A3.5,3.5,0,0,0,121.08,92.73ZM61.35,77.06a3.44,3.44,0,0,0,.76.63,16.15,16.15,0,0,0,1.35,2.25,16,16,0,0,0,5.07,4.48c-.34.49-7.6,10.34-16.17,10.34a10.91,10.91,0,0,1-1.7-.13c-3.25-.51-5.36-1.81-6.3-3.88a7,7,0,0,1,.29-6A3.5,3.5,0,0,0,38.75,81c0,.07-.09.15-.14.23L32,82.3l-.14,0a2.29,2.29,0,1,1-.91-4.48l14.94-3a2.31,2.31,0,0,1,1.72.33,2.36,2.36,0,0,1,.88,1.14c-.32,2.73.35,7.22,6.08,12.09a3.53,3.53,0,0,0,2.26.83A3.5,3.5,0,0,0,59.08,83c-3.11-2.64-3.91-4.92-3.62-6.16a2.17,2.17,0,0,1,1.67-1.56A4.4,4.4,0,0,1,61.35,77.06Zm47.44,18.7c-1.81.92-3.66,1.8-5.51,2.6-2,.88-4,1.7-6.1,2.45A104.53,104.53,0,0,1,58.94,107,108,108,0,0,1,8.36,93L38,45a50.82,50.82,0,0,0,9.89,3.57c-.77,4.08.46,7.28,1.49,10,1.17,3,2.21,5.73.85,10.14a9.15,9.15,0,0,0-5.79-.7L29.54,71a9.28,9.28,0,0,0-3.28,16.84,9.18,9.18,0,0,0,5.1,1.55,9,9,0,0,0,1.79-.18l3.7-.59a13.15,13.15,0,0,0,1.13,5c1.35,3,4.46,6.8,11.6,7.92a19.12,19.12,0,0,0,2.79.21c12.7,0,21.95-13.38,22-13.53a3.39,3.39,0,0,0,.52-1.83c.47,0,.93.07,1.39.07A15.9,15.9,0,1,0,60.59,68.11c0,.15,0,.31,0,.46a10.16,10.16,0,0,0-3-.33c1-5.42-.44-9.24-1.6-12.24-.91-2.36-1.55-4.07-1.1-6.23,1.3.14,2.61.24,3.92.27A48.33,48.33,0,0,0,83.61,44l29.67,49.38C111.8,94.17,110.3,95,108.79,95.76Z"/><path class="cls-1" d="M95.93,95.94a3.61,3.61,0,0,0,1.2-.21c2.19-.8,4.39-1.68,6.52-2.61a3.5,3.5,0,1,0-2.81-6.41c-2,.87-4,1.69-6.11,2.44a3.5,3.5,0,0,0,1.2,6.79Z"/><path class="cls-1" d="M86.77,91.79a4.6,4.6,0,0,0-.66.2,4.3,4.3,0,0,0-.6.32,3.75,3.75,0,0,0-.53.44,3.49,3.49,0,0,0,0,5,3.12,3.12,0,0,0,.53.43,3.51,3.51,0,0,0,.6.33,4.6,4.6,0,0,0,.66.2,3.82,3.82,0,0,0,.68.07,3.5,3.5,0,1,0-.68-6.94Z"/><path class="cls-1" d="M60.79,7a3.52,3.52,0,0,0,2.47-1,3.18,3.18,0,0,0,.44-.53,3.46,3.46,0,0,0,.32-.6,3.13,3.13,0,0,0,.2-.66,3.08,3.08,0,0,0,.07-.68,3.23,3.23,0,0,0-.07-.69,3,3,0,0,0-.2-.65,3.55,3.55,0,0,0-.32-.61A3.18,3.18,0,0,0,63.26,1,3.5,3.5,0,0,0,60.11.07a3,3,0,0,0-.66.2,2.89,2.89,0,0,0-.6.32,3.64,3.64,0,0,0-.54.43,3.56,3.56,0,0,0-1,2.48,3.51,3.51,0,0,0,1,2.47A3.57,3.57,0,0,0,60.79,7Z"/><path class="cls-1" d="M60.79,34.9A31.17,31.17,0,0,0,83,25.7a3.5,3.5,0,1,0-5-4.95,24.41,24.41,0,0,1-34.52,0,3.5,3.5,0,0,0-5,4.95A31.19,31.19,0,0,0,60.79,34.9Z"/><path class="cls-1" d="M60.79,20.71a17.16,17.16,0,0,0,12.18-5,3.5,3.5,0,1,0-5-4.95,10.24,10.24,0,0,1-14.46,0,3.5,3.5,0,0,0-5,4.95A17.16,17.16,0,0,0,60.79,20.71Z"/></g></g></svg>