<?xml version="1.0" encoding="utf-8"?>
<!-- Generator: Adobe Illustrator 24.0.1, SVG Export Plug-In . SVG Version: 6.00 Build 0)  -->
<svg version="1.1" id="Camada_1" xmlns="http://www.w3.org/2000/svg" xmlns:xlink="http://www.w3.org/1999/xlink" x="0px" y="0px"
	 viewBox="0 0 50.5 51" style="enable-background:new 0 0 50.5 51;" xml:space="preserve">
<style type="text/css">
	.st0{fill:#214654;}
</style>
<title>whatsapp-icon</title>
<g id="Camada_2_1_">
	<g id="Layer_1">
		<path class="st0" d="M25.6,0C11.9,0,0.7,11.1,0.7,24.9c0,0,0,0,0,0c0.2,4.5,1.4,8.9,3.6,12.9L0,51l13.6-4.3c3.7,2,7.8,3.1,12,3.1
			c13.7,0.4,25.2-10.4,25.6-24.2C51.6,11.8,40.7,0.4,27,0C26.5,0,26.1,0,25.6,0z M25.6,46.8c-4.3-0.1-8.5-1.4-12.1-3.6l-8.3,2.7
			l2.7-8c0,0-4.3-5.9-4.3-13c0-12.1,9.8-22,21.9-22s22,9.8,22,21.9C47.6,37,37.7,46.8,25.6,46.8C25.6,46.8,25.6,46.8,25.6,46.8z"/>
		<path class="st0" d="M16.1,14c0.3-0.2,0.6-0.4,1-0.4h2c0.3,0.1,0.6,0.3,0.8,0.6c0.2,0.6,1.9,4.4,2,4.7c0.3,0.5,0.3,1.2-0.1,1.7
			c-0.5,0.7-1.6,1.9-1.6,1.9c-0.3,0.3-0.3,0.7-0.1,1c0.9,1.5,2.1,2.9,3.4,4.1c1.4,1.3,3,2.3,4.8,3c1,0.3,1.3-0.1,1.7-0.6l1.6-2.1
			c0.3-0.4,0.8-0.5,1.3-0.2c0.8,0.4,4.9,2.4,4.9,2.4c0.3,0.1,0.5,0.3,0.5,0.6c0.2,1.4-0.2,2.8-1.1,3.8c-1.6,1.5-3.9,2.2-6.1,1.9
			c-1.5-0.4-6.4-1.7-9.6-4.7s-5.8-6.1-6.9-8.5c-0.7-1.3-1-2.8-1-4.3C13.8,18.3,14.1,15.3,16.1,14z"/>
	</g>
</g>
</svg>
