<svg xmlns="http://www.w3.org/2000/svg" viewBox="0 0 57.6 57.6"><defs><style>.cls-1{fill:#fff;}</style></defs><title>Ativo 2</title><g id="Camada_2" data-name="Camada 2"><g id="Camada_1-2" data-name="Camada 1"><g id="Camada_2-2" data-name="Camada 2"><g id="Layer_1" data-name="Layer 1"><path class="cls-1" d="M28.8,5.2c7.7,0,8.6,0,11.6.2a16.06,16.06,0,0,1,5.3,1A8.34,8.34,0,0,1,49,8.6a9.11,9.11,0,0,1,2.2,3.3,16.06,16.06,0,0,1,1,5.3c.1,3,.2,4,.2,11.6s0,8.6-.2,11.6a16.06,16.06,0,0,1-1,5.3,9.61,9.61,0,0,1-5.5,5.5,16.06,16.06,0,0,1-5.3,1c-3,.1-4,.2-11.6.2s-8.6,0-11.6-.2a16.06,16.06,0,0,1-5.3-1A8.34,8.34,0,0,1,8.6,49a9.11,9.11,0,0,1-2.2-3.3,16.06,16.06,0,0,1-1-5.3c-.1-3-.2-4-.2-11.6s0-8.6.2-11.6a16.06,16.06,0,0,1,1-5.3A8.34,8.34,0,0,1,8.6,8.6a9.11,9.11,0,0,1,3.3-2.2,16.06,16.06,0,0,1,5.3-1c2.9-.2,3.9-.2,11.6-.2m0-5.2C21,0,20,0,16.9.2a20.68,20.68,0,0,0-7,1.3A15.43,15.43,0,0,0,4.8,4.8,15.43,15.43,0,0,0,1.5,9.9a20.68,20.68,0,0,0-1.3,7C0,20,0,21,0,28.8s0,8.8.2,11.9a20.68,20.68,0,0,0,1.3,7,14.47,14.47,0,0,0,3.3,5.1,13.22,13.22,0,0,0,5.1,3.3,20.68,20.68,0,0,0,7,1.3c3.1.1,4,.2,11.9.2s8.8,0,11.9-.2a20.68,20.68,0,0,0,7-1.3,14.78,14.78,0,0,0,8.4-8.4,20.68,20.68,0,0,0,1.3-7c.1-3.1.2-4,.2-11.9s0-8.8-.2-11.9a20.68,20.68,0,0,0-1.3-7,14.47,14.47,0,0,0-3.3-5.1,13.22,13.22,0,0,0-5.1-3.3,20.68,20.68,0,0,0-7-1.3C37.6,0,36.6,0,28.8,0"/><path class="cls-1" d="M28.8,14A14.8,14.8,0,1,0,43.6,28.8,14.77,14.77,0,0,0,28.8,14h0m0,24.4a9.6,9.6,0,1,1,9.6-9.6h0a9.6,9.6,0,0,1-9.6,9.6"/><path class="cls-1" d="M47.6,13.4A3.45,3.45,0,1,1,44.1,10h0a3.46,3.46,0,0,1,3.5,3.4h0"/></g></g></g></g></svg>