<svg xmlns="http://www.w3.org/2000/svg" viewBox="0 0 31.13 31.13"><defs><style>.cls-1{fill:#fff;}</style></defs><title>whatsapp-icon-footer</title><g id="Camada_2" data-name="Camada 2"><g id="Layer_1" data-name="Layer 1"><path class="cls-1" d="M15.57,31.13A15.5,15.5,0,0,1,7.8,29L1.74,31.13,3,24.71a15.42,15.42,0,0,1-3-9.14A15.57,15.57,0,1,1,15.57,31.13ZM8.08,26.5l.47.29A13.24,13.24,0,1,0,2.32,15.57a13.1,13.1,0,0,0,2.81,8.14l.33.42-.69,3.51Z"/><path class="cls-1" d="M7.71,9.59S8.62,8,9.37,7.9s1.7-.09,2,.39,1.41,3.32,1.41,3.32a1.1,1.1,0,0,1-.11,1,9.22,9.22,0,0,1-1,1.15.86.86,0,0,0,0,1,18.8,18.8,0,0,0,2.19,2.68A12,12,0,0,0,17.4,19.5a.67.67,0,0,0,.54-.17c.22-.21,1.37-1.65,1.37-1.65a.81.81,0,0,1,1-.2c.62.28,3.28,1.61,3.28,1.61a.58.58,0,0,1,.32.59,3.75,3.75,0,0,1-.58,2,4.67,4.67,0,0,1-3.25,1.59,14.31,14.31,0,0,1-8-3.57C9.93,17.54,8,15.33,7.54,13.33S7.15,10.41,7.71,9.59Z"/></g></g></svg>