<svg xmlns="http://www.w3.org/2000/svg" xmlns:xlink="http://www.w3.org/1999/xlink" viewBox="0 0 168.59 166.18"><defs><style>.cls-1,.cls-11,.cls-37,.cls-38,.cls-9{fill:none;}.cls-2{isolation:isolate;}.cls-3{fill:#c2ecf2;}.cls-4{clip-path:url(#clip-path);}.cls-5{fill:#9cd2ff;}.cls-6{fill:#d6e7fd;}.cls-20,.cls-7{fill:#fff;}.cls-8{fill:#d1dce7;}.cls-9{stroke:#58afdc;}.cls-11,.cls-38,.cls-9{stroke-miterlimit:10;}.cls-10{fill:#42498d;}.cls-11{stroke:#fff;}.cls-12{fill:#58afdc;}.cls-13{fill:#161b43;}.cls-14{fill:#ffe4d0;}.cls-15{fill:#84c4ef;}.cls-16{clip-path:url(#clip-path-2);}.cls-17{opacity:0.49;}.cls-18{fill:#4ab1a6;}.cls-19{fill:#46c8bb;}.cls-20{opacity:0.46;}.cls-21{fill:#233862;}.cls-22{fill:#bfd6e5;}.cls-23{fill:#58abcc;}.cls-24{fill:#ffb27d;}.cls-25{fill:#e2915a;}.cls-26{fill:#aec6d3;}.cls-27{fill:#cbe2ef;}.cls-28{fill:#163560;}.cls-29,.cls-30{fill:#ffdb9c;}.cls-30{mix-blend-mode:multiply;}.cls-31{fill:#e8945b;}.cls-32{fill:#bcac84;}.cls-33{fill:#c6ba99;}.cls-34{fill:#17467f;}.cls-35{fill:#0c2442;}.cls-36{fill:#466eb6;}.cls-37{stroke:#42498d;stroke-linecap:round;stroke-linejoin:round;stroke-width:2px;}.cls-38{stroke:#5090d6;stroke-width:0.75px;}.cls-39{fill:#5090d6;}</style><clipPath id="clip-path" transform="translate(0.01)"><path class="cls-1" d="M165.15,75.13c2,4.42-3.68,6.94-2.31,11,21.91,64.61-25.6,75.78-69.28,75.78-46.45,0-96.1-16-93.46-52.17.6-8.26,6.5-16.89,5-25.28-6.44-36.64.16-61.21,12.62-66.63C69.59-4.72,137-5.25,160.82,26.1,167.7,35.17,161.17,66.42,165.15,75.13Z"/></clipPath><clipPath id="clip-path-2" transform="translate(0.01)"><path class="cls-1" d="M18.2,33.37l.63-3.53.2-1.15h10s.58,3.77.65,5.13a3.54,3.54,0,0,1-3.53,3.7H21.68a3.54,3.54,0,0,1-3.48-4.15Z"/></clipPath></defs><title>entrega-do-exame</title><g class="cls-2"><g id="Camada_2" data-name="Camada 2"><g id="Layer_1" data-name="Layer 1"><path class="cls-3" d="M157.66,73.82c33.87,74-17.65,88.43-64.1,88.43s-96.1-16-93.46-52.17C3.64,61.47,36.82,29.84,80.54,13.76,149-11.4,139.9,35,157.66,73.82Z" transform="translate(0.01)"/><g class="cls-4"><rect class="cls-5" x="2.24" y="53.64" width="135.29" height="70.84"/><rect class="cls-6" x="112.85" y="53.64" width="0.54" height="70.84" transform="translate(226.25 178.11) rotate(180)"/><rect class="cls-6" x="86.96" y="53.64" width="0.54" height="70.84" transform="translate(174.47 178.11) rotate(180)"/><rect class="cls-6" x="61.81" y="53.64" width="0.54" height="70.84" transform="translate(124.16 178.11) rotate(180)"/><rect class="cls-6" x="37.86" y="53.64" width="0.54" height="70.84" transform="translate(76.26 178.11) rotate(180)"/><rect class="cls-6" x="12.71" y="53.64" width="0.54" height="70.84" transform="translate(25.96 178.11) rotate(180)"/><rect class="cls-7" x="11.61" y="37.52" width="53.02" height="73.58"/><rect class="cls-8" x="15.08" y="39.96" width="46.09" height="13.22"/><rect class="cls-8" x="15.08" y="54.91" width="46.09" height="13.22"/><rect class="cls-5" x="15.08" y="70.02" width="46.09" height="19.37"/><rect class="cls-7" x="44.72" y="46.34" width="14.88" height="3.42"/><path class="cls-9" d="M56.64,48.06a.93.93,0,1,0,1.86,0,.93.93,0,1,0-1.86,0Z" transform="translate(0.01)"/><rect class="cls-10" x="45.58" y="49.76" width="14.88" height="3.42"/><path class="cls-11" d="M57.54,51.47a.93.93,0,0,0,1.86,0,.93.93,0,0,0-1.86,0Z" transform="translate(0.01)"/><rect class="cls-12" x="45.58" y="42.92" width="14.88" height="3.42"/><path class="cls-11" d="M57.12,44.63a.93.93,0,0,0,1.86,0,.93.93,0,0,0-1.86,0Z" transform="translate(0.01)"/><rect class="cls-13" x="16.22" y="43.08" width="0.85" height="10.13" transform="translate(43.84 91.22) rotate(166.81)"/><rect class="cls-12" x="17.12" y="43.34" width="1" height="9.85" transform="translate(-10.55 5.3) rotate(-13.19)"/><rect class="cls-10" x="18.14" y="43.31" width="1.24" height="9.85" transform="translate(-10.51 5.56) rotate(-13.19)"/><rect class="cls-7" x="19.42" y="43.38" width="0.62" height="9.85" transform="translate(-10.5 5.78) rotate(-13.19)"/><rect class="cls-10" x="19.96" y="42.55" width="0.91" height="10.66" transform="translate(-10.38 5.92) rotate(-13.19)"/><rect class="cls-7" x="20.99" y="43.38" width="0.62" height="9.85" transform="translate(-10.46 6.14) rotate(-13.19)"/><rect class="cls-12" x="45.53" y="64.72" width="14.88" height="3.42"/><path class="cls-11" d="M57.49,66.42a.93.93,0,1,0,.93-.93A.93.93,0,0,0,57.49,66.42Z" transform="translate(0.01)"/><rect class="cls-7" x="45" y="61.3" width="14.88" height="3.42"/><path class="cls-9" d="M57,63a.93.93,0,1,0,.93-.93A.93.93,0,0,0,57,63Z" transform="translate(0.01)"/><rect class="cls-10" x="34.88" y="59.88" width="14.88" height="3.42" transform="translate(-31.38 49.3) rotate(-46.04)"/><path class="cls-11" d="M45.44,58.36A.93.93,0,1,0,46.73,57a.93.93,0,1,0-1.29,1.33Z" transform="translate(0.01)"/><rect class="cls-12" x="21.71" y="44.17" width="1.24" height="8.83" transform="translate(-10.5 6.38) rotate(-13.19)"/><path class="cls-14" d="M15.07,49.43h11a0,0,0,0,1,0,0v3.75a0,0,0,0,1,0,0H15.55a.48.48,0,0,1-.48-.48V49.43A0,0,0,0,1,15.07,49.43Z" transform="translate(41.18 102.6) rotate(180)"/><rect class="cls-14" x="17.36" y="63.37" width="13.66" height="4.76"/><rect class="cls-7" x="16.99" y="62.12" width="14.33" height="1.41"/><rect class="cls-14" x="17.52" y="58.4" width="10.69" height="3.73"/><rect class="cls-7" x="17.28" y="57.29" width="11.17" height="1.41"/><rect class="cls-7" x="22.32" y="79.93" width="8.24" height="0.92" transform="translate(52.89 160.78) rotate(180)"/><rect class="cls-15" x="49.84" y="82.38" width="14.88" height="3.42" transform="translate(154.79 55.03) rotate(107.67)"/><rect class="cls-15" x="46.48" y="81.75" width="14.88" height="3.42" transform="translate(149.81 57.41) rotate(107.67)"/><rect class="cls-15" x="42.61" y="82.57" width="14.88" height="3.42" transform="matrix(-0.3, 0.95, -0.95, -0.3, 145.55, 62.17)"/><rect class="cls-15" x="36.56" y="82.52" width="14.88" height="3.42" transform="translate(138.04 97.94) rotate(125.88)"/><rect class="cls-7" x="37.88" y="69.72" width="1.08" height="19.67" transform="translate(76.85 159.12) rotate(180)"/><rect class="cls-7" x="46.03" y="79.93" width="8.24" height="0.92" transform="translate(100.31 160.78) rotate(180)"/><rect class="cls-7" x="31.75" y="45.05" width="14.88" height="3.42" transform="translate(-21.51 40.65) rotate(-44.29)"/><path class="cls-9" d="M42.41,43.63a.94.94,0,0,0,1.32,0,.93.93,0,1,0-1.32,0Z" transform="translate(0.01)"/><rect class="cls-12" x="27" y="44.9" width="14.88" height="3.42" transform="translate(-22.75 37.29) rotate(-44.29)"/><path class="cls-11" d="M37.66,43.48a.93.93,0,1,0,0-1.31A.92.92,0,0,0,37.66,43.48Z" transform="translate(0.01)"/><g class="cls-16"><path class="cls-12" d="M18.2,33.37l.63-3.53.2-1.15h10s.58,3.77.65,5.13a3.54,3.54,0,0,1-3.53,3.7H21.68a3.54,3.54,0,0,1-3.48-4.15Z" transform="translate(0.01)"/><g class="cls-17"><path class="cls-7" d="M29.68,33.39a3,3,0,0,0-1-.6,1.83,1.83,0,0,0-1.11,0c-.35.11-.68.27-1,.38a2,2,0,0,1-1.1,0c-.38-.09-.73-.29-1.11-.41a2.26,2.26,0,0,0-1.18-.1c-.76.14-1.4.77-2.21.52-.42-.13-.79-.39-1.22-.48a2.46,2.46,0,0,0-1.37.08c-.23.07-.32-.28-.1-.35a2.82,2.82,0,0,1,1.26-.14,3.57,3.57,0,0,1,1.14.38,1.74,1.74,0,0,0,.58.2,1.26,1.26,0,0,0,.58-.08,11.11,11.11,0,0,1,1.08-.44,2.68,2.68,0,0,1,1.29,0c.39.1.74.29,1.11.42a1.78,1.78,0,0,0,1.16,0c.37-.11.71-.28,1.08-.39a2.56,2.56,0,0,1,2.41.71c.17.15-.08.41-.26.25Z" transform="translate(0.01)"/></g><g class="cls-17"><path class="cls-7" d="M29.47,35.49a3,3,0,0,0-1-.6,1.83,1.83,0,0,0-1.11,0c-.35.11-.69.27-1,.38a2,2,0,0,1-1.1,0c-.38-.09-.73-.29-1.11-.41a2.26,2.26,0,0,0-1.18-.1c-.77.14-1.4.77-2.22.52-.42-.13-.78-.39-1.21-.48a2.5,2.5,0,0,0-1.38.08c-.22.07-.31-.28-.09-.35a2.82,2.82,0,0,1,1.26-.14,3.43,3.43,0,0,1,1.13.38A1.87,1.87,0,0,0,21,35a1.28,1.28,0,0,0,.58-.08,11.11,11.11,0,0,1,1.08-.44,2.68,2.68,0,0,1,1.29,0c.39.1.74.29,1.11.42a1.77,1.77,0,0,0,1.16,0c.36-.11.71-.28,1.08-.39a2.56,2.56,0,0,1,2.41.71c.17.15-.09.41-.26.25Z" transform="translate(0.01)"/></g></g><polygon class="cls-7" points="26.66 29.87 20.93 29.87 20.77 28.69 21.88 28.69 26 28.69 27.39 28.69 26.66 29.87"/><path class="cls-18" d="M28.66,28.28a1.61,1.61,0,0,0-1.78-.92,1.87,1.87,0,0,0-1.41,1.33h-.39A2.28,2.28,0,0,1,26.88,27,2,2,0,0,1,29,28.18C29.08,28.4,28.73,28.5,28.66,28.28Z" transform="translate(0.01)"/><path class="cls-18" d="M27.2,25.28a9.6,9.6,0,0,0-1.42,1.57,7.32,7.32,0,0,0-.85,1.84h-.38a7.53,7.53,0,0,1,.92-2A9.65,9.65,0,0,1,27,25c.17-.15.42.1.25.26Z" transform="translate(0.01)"/><path class="cls-18" d="M23.62,28.69a10.27,10.27,0,0,0-.6-2.1,3.83,3.83,0,0,0-.56-1,7.59,7.59,0,0,0-.84-.86c-.17-.16.08-.41.26-.26a7.16,7.16,0,0,1,.85.89,3.75,3.75,0,0,1,.6,1A11.33,11.33,0,0,1,24,28.69Z" transform="translate(0.01)"/><path class="cls-18" d="M19.83,27.65a3.47,3.47,0,0,1,2.4,0,2.7,2.7,0,0,1,1,.64,2,2,0,0,1,.26.39H23a1.15,1.15,0,0,0-.14-.17A2.13,2.13,0,0,0,22,28a3.18,3.18,0,0,0-2.11,0c-.22.08-.32-.27-.1-.35Z" transform="translate(0.01)"/><path class="cls-19" d="M21.94,25.28h0a2.35,2.35,0,0,0,0-3.33l-.84-.83a2.34,2.34,0,0,0-3.32,0h0a2.35,2.35,0,0,0,0,3.33l.83.83A2.35,2.35,0,0,0,21.94,25.28Z" transform="translate(0.01)"/><path class="cls-18" d="M24.34,22.77q-.15,2.91-.33,5.82h-.36q.18-2.91.33-5.82c0-.23.37-.23.36,0Z" transform="translate(0.01)"/><path class="cls-19" d="M24.18,23h0a2.36,2.36,0,0,0,2.24-2.47l-.06-1.17a2.35,2.35,0,0,0-2.46-2.24h0a2.36,2.36,0,0,0-2.24,2.47l.06,1.17A2.36,2.36,0,0,0,24.18,23Z" transform="translate(0.01)"/><path class="cls-18" d="M30,26.64a10.13,10.13,0,0,0-1.81-.26,3.67,3.67,0,0,0-1.68.23,7.28,7.28,0,0,0-1.4.83,1.81,1.81,0,0,0-.87,1.25H23.9c.08-1,.94-1.52,1.7-2a4.87,4.87,0,0,1,1.27-.58,4.67,4.67,0,0,1,1.49-.1,11.7,11.7,0,0,1,1.76.27.18.18,0,0,1-.09.35Z" transform="translate(0.01)"/><path id="Rectangle-path" class="cls-19" d="M30.83,21.14h0a2.35,2.35,0,0,0-3.33,0l-.84.83a2.35,2.35,0,0,0,0,3.33h0a2.35,2.35,0,0,0,3.33,0l.84-.83A2.37,2.37,0,0,0,30.83,21.14Z" transform="translate(0.01)"/><path id="Rectangle-path-2" data-name="Rectangle-path" class="cls-19" d="M35.58,27.28h0a2.36,2.36,0,0,0-2-2.63l-1.17-.15a2.35,2.35,0,0,0-2.63,2h0a2.35,2.35,0,0,0,2,2.63l1.17.15A2.36,2.36,0,0,0,35.58,27.28Z" transform="translate(0.01)"/><path class="cls-18" d="M28,24c.32-.27.64-.55.94-.84v0A4.52,4.52,0,0,0,29,22c0-.12.17-.12.18,0a4.75,4.75,0,0,1,0,.92A5.9,5.9,0,0,0,30,21.81c.05-.1.21,0,.15.1a7.3,7.3,0,0,1-1.5,1.73l.17,0a1.2,1.2,0,0,1,.38,0,.1.1,0,0,1,.07.11.11.11,0,0,1-.12.07.79.79,0,0,0-.34,0c-.13,0-.26,0-.39,0h0l-.31.27C28,24.18,27.88,24.06,28,24Z" transform="translate(0.01)"/><path class="cls-18" d="M23.63,18.45a6.57,6.57,0,0,1,.58,1c0-.42,0-.83-.07-1.25,0-.12.17-.12.18,0a13.49,13.49,0,0,1,.07,1.68h0q0,.54-.06,1.08a2.59,2.59,0,0,1,.85-.62.1.1,0,0,1,.13,0,.09.09,0,0,1,0,.12,2.65,2.65,0,0,0-.92.7s0,0-.06,0c0,.21-.05.42-.08.64s-.19.06-.17-.05a15.54,15.54,0,0,0,.16-1.92,6.33,6.33,0,0,0-.74-1.35C23.41,18.45,23.56,18.36,23.63,18.45Z" transform="translate(0.01)"/><path class="cls-18" d="M19,21.37q.36.33.69.69a4.92,4.92,0,0,0,0-1.15c0-.12.17-.12.19,0a5.92,5.92,0,0,1,0,1.33A12.31,12.31,0,0,1,21.1,24a.09.09,0,0,1-.15.09l-.21-.31a2.35,2.35,0,0,0-1,.08.09.09,0,0,1,0-.18,2.74,2.74,0,0,1,.94-.1,13,13,0,0,0-1.79-2.07C18.74,21.41,18.87,21.29,19,21.37Z" transform="translate(0.01)"/><path class="cls-18" d="M31.19,26.38a11.93,11.93,0,0,1,1.67.3h0l.11-.05.14-.08.3-.15a1.66,1.66,0,0,1,.29-.1,1.46,1.46,0,0,0,.3-.07.09.09,0,0,1,.11.07c0,.05,0,.09-.06.11a1.73,1.73,0,0,1-.31.07,1,1,0,0,0-.3.12l-.32.15h0a11.88,11.88,0,0,1,1.55.55c.11.05,0,.21-.09.16a11.58,11.58,0,0,0-2.88-.83,6.13,6.13,0,0,0,.47.92c.06.1-.09.19-.16.09a6.73,6.73,0,0,1-.52-1l-.33,0C31.07,26.55,31.07,26.37,31.19,26.38Z" transform="translate(0.01)"/><path class="cls-19" d="M28.84,28.19h0a2.36,2.36,0,0,0-2.36,2.35v1.18a2.36,2.36,0,0,0,2.36,2.36h0a2.36,2.36,0,0,0,2.35-2.36V30.54A2.35,2.35,0,0,0,28.84,28.19Z" transform="translate(0.01)"/><path class="cls-18" d="M28,32.84a2.47,2.47,0,0,1,1-.56,14.8,14.8,0,0,0,.09-2.21.09.09,0,0,1,.18,0c0,.13,0,.25,0,.38h0a1.7,1.7,0,0,1,.7,1.08.09.09,0,0,1-.06.11.08.08,0,0,1-.11-.06,1.55,1.55,0,0,0-.55-.92,14.7,14.7,0,0,1-.29,2.8c0,.11-.2.06-.17,0,.06-.31.11-.62.15-.94a2.28,2.28,0,0,0-.87.49A.09.09,0,0,1,28,32.84Z" transform="translate(0.01)"/><path class="cls-19" d="M16.09,32.07h0a2.34,2.34,0,0,0,3.32,0l.84-.83a2.35,2.35,0,0,0,0-3.33h0a2.35,2.35,0,0,0-3.33,0l-.83.83A2.35,2.35,0,0,0,16.09,32.07Z" transform="translate(0.01)"/><path class="cls-18" d="M16,29.49c.48,0,.95.15,1.43.11h0a6,6,0,0,1,1.21-.91c.1-.06.19.1.09.16a3,3,0,0,0-.38.24c0,.57,0,1.13,0,1.7a.09.09,0,1,1-.18,0c0-.53,0-1.05,0-1.58a5.57,5.57,0,0,0-1.46,1.56c-.06.1-.22,0-.16-.09a6,6,0,0,1,.69-.89c-.41,0-.82-.13-1.24-.12C15.91,29.68,15.91,29.49,16,29.49Z" transform="translate(0.01)"/><path class="cls-19" d="M32.21,67.36s1.72,6,1.64,9c-.11,4.08-.8,4.3-.8,4.3H31.37s-.69-.22-.8-4.3C30.49,73.31,32.21,67.36,32.21,67.36Z" transform="translate(0.01)"/><path class="cls-18" d="M27.88,68.67a17.06,17.06,0,0,1,3.75,5.24,7.34,7.34,0,0,1,.58,1.75,7.34,7.34,0,0,1,.58-1.75,17.06,17.06,0,0,1,3.75-5.24s-2.48,6.93-.79,12H32.31c0-.17-.07-.35-.1-.54q0,.28-.09.54H28.67C30.36,75.6,27.88,68.67,27.88,68.67Z" transform="translate(0.01)"/><path class="cls-18" d="M27.6,80.63c-.21-2.83-3.5-5.06-3.5-5.06a10.26,10.26,0,0,1,4.58,1.86,6.19,6.19,0,0,1,1.92,3.2Z" transform="translate(0.01)"/><path class="cls-18" d="M36.35,80.56c.28-3.8,4.68-6.77,4.68-6.77s-5.25,1.58-6.94,6.77Z" transform="translate(0.01)"/><path class="cls-19" d="M29.09,73.72a10.12,10.12,0,0,1,3.12,4.38,10.2,10.2,0,0,1,3.12-4.38,14.9,14.9,0,0,1,5.4-2.54s-5.5,3.84-5.94,9.45H29.63c-.44-5.61-5.94-9.45-5.94-9.45A14.9,14.9,0,0,1,29.09,73.72Z" transform="translate(0.01)"/><path class="cls-12" d="M35.32,89.21l2.09-8.71a.23.23,0,0,0-.22-.28H26.79a.23.23,0,0,0-.22.28l2.09,8.71a.22.22,0,0,0,.22.17H35.1A.23.23,0,0,0,35.32,89.21Z" transform="translate(0.01)"/><path class="cls-18" d="M32.25,78.18a6.11,6.11,0,0,0-.76,2,.08.08,0,1,1-.16,0,6.31,6.31,0,0,1,.77-2.07c.06-.09.21,0,.15.09Z" transform="translate(0.01)"/><polygon class="cls-7" points="27.08 82.58 36.91 82.58 37.04 82.05 26.95 82.05 27.08 82.58"/><polygon class="cls-7" points="27.55 84.57 36.43 84.57 36.56 84.04 27.43 84.04 27.55 84.57"/><path class="cls-20" d="M61,80.28s2-.14,3.44-.19l-.1-1.82-3.44.18Z" transform="translate(0.01)"/><path class="cls-7" d="M67.88,64.36l-3,1.13a.46.46,0,0,0-.31.61l.25,1.07a2.74,2.74,0,0,0,2.18,2,3,3,0,0,0,2.63-.81,4.27,4.27,0,0,0,.87-1.44l.3-.94a.46.46,0,0,0-.2-.59l-1.72-1A1.18,1.18,0,0,0,67.88,64.36Z" transform="translate(0.01)"/><polygon class="cls-7" points="63.35 63 63.61 62.89 65.74 65.26 65.22 65.42 63.35 63"/><polygon class="cls-7" points="63.03 65.42 62.91 64.99 64.98 66.89 64.98 67.35 63.03 65.42"/><path class="cls-21" d="M82.25,156.48H88.7a16.17,16.17,0,0,0-.51-2.31,7.21,7.21,0,0,0-.37-.93c-.63-1.25-4.61-.45-4.61-.45a3,3,0,0,0-.66,1.52A14,14,0,0,0,82.25,156.48Z" transform="translate(0.01)"/><path class="cls-22" d="M94.09,58s5.13.9,6.3,3.93,7.72,52,7.72,52-3.25,2.57-10.23,1.65S94.09,58,94.09,58Z" transform="translate(0.01)"/><path class="cls-21" d="M101.73,154.45a3.46,3.46,0,0,0,.45,2h12.75a2.19,2.19,0,0,0-1.93-1.36,9.66,9.66,0,0,1-5.16-2.39,3.9,3.9,0,0,1-1-1.81c-.6-2.67-5,.82-5,.82A23.14,23.14,0,0,0,101.73,154.45Z" transform="translate(0.01)"/><path class="cls-23" d="M107.22,153.15c-1.42.46-4.14,1.84-5.87,1.19-1.12-.42-7.37-18.5-7.78-26.41a19.75,19.75,0,0,0-.32-2.35c-.37-2-1-4.85-1.76-7.94-2-8.29-4.71-18.66-4.65-22,.09-5.14,15.34-1.08,15.34-1.08a55,55,0,0,1,1.26,10.33c.41,12.13,1.55,32.62,4.64,46.85A1.22,1.22,0,0,1,107.22,153.15Z" transform="translate(0.01)"/><path class="cls-12" d="M96.64,95.68l-8,58.4a15.66,15.66,0,0,1-6.3.17s-2.35-31.06-2.16-38.57-1.69-20.09.43-21.48S96.64,95.68,96.64,95.68Z" transform="translate(0.01)"/><path class="cls-7" d="M79.54,60.7S88,55.22,94.09,58A11.41,11.41,0,0,1,97,60.58c2.2,2.42,6.49,40.85,6.49,40.85s-12.18,4.13-23.9-1.4Z" transform="translate(0.01)"/><path class="cls-22" d="M94.57,57.88s8.57,3.51,9.73,6.21,4.94,19.28,4.94,21.23-6.57.43-7.63-2.7C100.73,80,97.77,72,96.21,67Z" transform="translate(0.01)"/><path class="cls-24" d="M92.79,60.56a9.69,9.69,0,0,1-6.64-1.35,19,19,0,0,0,1.42-5c0-.06,0-.11,0-.17a4.88,4.88,0,0,0,0-1.14h4.84s1.32.6,1.32,1c0,.23,0,.44,0,.64,0,.56,0,1,.06,1.46a12.71,12.71,0,0,0,.25,2S94.68,60.19,92.79,60.56Z" transform="translate(0.01)"/><path class="cls-25" d="M93.84,56a6.66,6.66,0,0,1-6.27-1.81l-.1-.11.12-.06c1.36-.55,4.46-.11,6.19.52C93.79,55.12,93.81,55.61,93.84,56Z" transform="translate(0.01)"/><path class="cls-24" d="M86.37,52.1c.66,3.53,5.21,3.41,7.17,3.19.55-.06.9-.13.9-.13.63-.17,1-1.15,1.14-2.44a20.06,20.06,0,0,0-.52-7.24c-.65-1.44-1.87-3-6.45-1.87S85.53,47.59,86.37,52.1Z" transform="translate(0.01)"/><path d="M95.23,43.51a10.4,10.4,0,0,0-3.16-2.57c-2.59-1.41-5.9,0-5.92.05-3.74,1.64-4.72,4.5-2.73,9,2.1,4.72,4.09,4.19,4.09,4.19s-.42-.27-.38-1.73a1.41,1.41,0,0,1,0-.22,1,1,0,0,0-.32-.8c-.46-.42-.69-1.67-.3-2s1.13.09,1.34.48a.57.57,0,0,0,.82.18c1.17-.73.41-2.2,1.52-3.11s3.38-.14,5-.86C97.43,45.25,95.7,44.17,95.23,43.51Z" transform="translate(0.01)"/><path class="cls-22" d="M95.75,117.56c-.73.19-1.46.34-2.19.46s-1.28.19-1.92.25a31.37,31.37,0,0,1-11.52-1.42q-1.44-.41-3-.93c-.11,0,.27-11.29.72-22.89,0-1.2.1-2.4.14-3.6l.06-1.51c.41-10.26.81-19.53.9-20,.19-1.13.38-2.1.57-2.93.58-2.43,1.3-3.76,2.87-4.91.16-.12,1.41-.75,2.52-1.3l1.73-.85h0a4.64,4.64,0,0,1,1.26,2.18,76.81,76.81,0,0,1,2.39,8h0c.41,1.6.7,2.84.78,3.2.15.6.33,1.77.55,3.35.3,2.15.66,5.08,1,8.39l.12,1c0,.4.09.8.13,1.2,0,.13,0,.27,0,.4.14,1.31.29,2.67.43,4,.12,1.14,1.85,2,2,3.12.07.68.21,7,.4,9C95.9,103.18,95.81,116.89,95.75,117.56Z" transform="translate(0.01)"/><path class="cls-26" d="M83.25,72S83,82.4,90.75,83.66s2.62,1.59,2.62,1.59-14.66-.62-14.9-1S83.25,72,83.25,72Z" transform="translate(0.01)"/><path class="cls-26" d="M89.84,88.11l-.43.28h0a36.64,36.64,0,0,1-9.86,4.22c-.53.14-1.09.28-1.67.41,0-1.2.1-2.4.14-3.6a16.07,16.07,0,0,1-1.93-.26l.06-.48,1.93-.77,1.47-.56c2.11-.81,3.68-1.35,3.68-1.35l6.24,2Z" transform="translate(0.01)"/><path class="cls-22" d="M91.49,87.94s-.8.2-2.08.45h0a52,52,0,0,1-9.86,1.1c-.52,0-1,0-1.53-.07a16.07,16.07,0,0,1-1.93-.26A6.08,6.08,0,0,1,73,87.71c-5.26-5.36,2.87-24.59,4.58-26.47,2-2.18,5.64-3,7.65-3.21l.24,0c.71-.09,1.17-.1,1.19-.1h0s-.16.5-.42,1.36c-.1.34-.22.72-.35,1.15-1.24,4-3.62,12-4.67,16.49a11.38,11.38,0,0,0-.5,3.17c.41,1.53,4.66,2.32,7.35,2.67,1.13.14,2,.21,2.17.22h0l.16.64.37,1.53.37,1.5Z" transform="translate(0.01)"/><path class="cls-27" d="M87,56.76a6.61,6.61,0,0,0-2.22,1.77s5.53,9.61,5.5,9.52S88.44,58,87,56.76Z" transform="translate(0.01)"/><path class="cls-27" d="M93.92,56.9a4.23,4.23,0,0,1,1.63,1.67L96.21,67S94.8,60.8,94.09,58A4.62,4.62,0,0,1,93.92,56.9Z" transform="translate(0.01)"/><path class="cls-7" d="M92.45,52.9a1.93,1.93,0,0,0,1.57.38c.57-.1.89-.85.89-.85A4.31,4.31,0,0,0,92.45,52.9Z" transform="translate(0.01)"/><rect class="cls-7" x="3.11" y="100.94" width="158.11" height="62.33" transform="translate(164.35 264.2) rotate(180)"/><rect class="cls-14" x="-0.01" y="96.44" width="164.28" height="4.5" transform="translate(164.28 197.38) rotate(180)"/><rect class="cls-12" x="3.11" y="144.48" width="158.11" height="0.41" transform="translate(164.35 289.38) rotate(180)"/><rect class="cls-12" x="3.11" y="140.05" width="158.11" height="0.41" transform="translate(164.35 280.52) rotate(180)"/><rect class="cls-12" x="3.11" y="119.5" width="158.11" height="0.41" transform="translate(164.35 239.41) rotate(180)"/><rect class="cls-12" x="3.11" y="115.07" width="158.11" height="0.41" transform="translate(164.35 230.55) rotate(180)"/><path class="cls-28" d="M148.9,50.09a5,5,0,0,0-4-.42c-6.74-.8-8.7,7.07-8.61,9.77s.4,5.61-2.61,9.13c-8.7,10.15,9.51,10.59,9.51,10.59.16-8.11,9.88-5.15,9.45-4.33C165.13,77.83,153.91,52.69,148.9,50.09Z" transform="translate(0.01)"/><path class="cls-24" d="M122.9,83.9s-1.19-1.8-2.14-1.84-2.73-.53-2.58-.18,1.23.39,1.34.61-1.63.53-2.12.56-1.67,0-1.63.25a5.59,5.59,0,0,0,3.56,1.13,9.93,9.93,0,0,1,3.27.43Z" transform="translate(0.01)"/><path class="cls-29" d="M140,84.48a17.53,17.53,0,0,1-1.81,2.75c-1.41,1.76-3.58,3.8-6.31,4.2a6.82,6.82,0,0,1-3.75-.61h0a17.09,17.09,0,0,1-5.8-4.85,2.71,2.71,0,0,1,.37-2.67s6.69,1.5,7.32,1.18,4.36-11,5.24-12.36,3.9-2.05,3.9-2.05Z" transform="translate(0.01)"/><path class="cls-30" d="M138.23,87.23c-1.41,1.76-3.58,3.8-6.31,4.2a6.82,6.82,0,0,1-3.75-.61c.13,0,3.44.43,4.76-1.93s2.8-6.23,4.8-5C138.59,84.49,138.55,85.85,138.23,87.23Z" transform="translate(0.01)"/><path class="cls-21" d="M165,156.68s2,1.86,1.65,3.18-2.24,2.21-2.49,3.82-1.25,2.5-2.14,2.5h-4.27s-.66-1.14.93-1.48,2.19-2.24,2.09-4a30.87,30.87,0,0,1,.15-4.11l3.39-.79Z" transform="translate(0.01)"/><path class="cls-21" d="M147.72,157.47s.74,7.89-.16,8.33l-11.47,0s0-1.32,1.85-1.61,5.07-1.38,5.62-3.78S147.72,157.47,147.72,157.47Z" transform="translate(0.01)"/><path class="cls-24" d="M155.89,100.87c-2.36-5.3-3.8-6.81-3.53-8.46.21-1.22-.62-22.79-.62-22.79-.28-.08-.84-.16-1.15-.23a2.85,2.85,0,0,1-2.1-1.83,14.6,14.6,0,0,1-.71-4.86l-.31.06-5.08,1s.12,1.6.12,3.11v0a2.92,2.92,0,0,1-2.11,2.83l-1.2.34A46.93,46.93,0,0,0,137,80.88c-.36,5.47,3.39,7.85,0,18.78C133.46,110.83,157.2,103.79,155.89,100.87Z" transform="translate(0.01)"/><path class="cls-31" d="M142.39,63.76s.12,1.6.12,3.11c2.85-.08,4.35-2.68,5-4.11Z" transform="translate(0.01)"/><path class="cls-24" d="M141.44,65.19s6.73.11,6.74-4.08.87-7-3.42-7.25-5.14,1.35-5.48,2.75S139.69,65.05,141.44,65.19Z" transform="translate(0.01)"/><path class="cls-28" d="M141.69,53.76s1.84,4.91,4.67,5.64,4,0,4,0a8,8,0,0,1-2.61-4.73S143.08,51.42,141.69,53.76Z" transform="translate(0.01)"/><path class="cls-28" d="M142.15,54.16a4.18,4.18,0,0,0-1.93,1.5,6.79,6.79,0,0,0-.91,3.85s-1.39-3.34.17-5.23S142.15,54.16,142.15,54.16Z" transform="translate(0.01)"/><path class="cls-7" d="M142.91,62.59a1.7,1.7,0,0,1-1.4.56,1.22,1.22,0,0,1-1-.68A4.51,4.51,0,0,1,142.91,62.59Z" transform="translate(0.01)"/><path class="cls-29" d="M155,79.16s0,3.19-.2,6.08a18.17,18.17,0,0,1-.57,4.34c-.69,1.59-1.46,1.85-1.46,1.85l-6,1.48-2.12.52-6.68-2s-3-8.48-1.81-13.26a36.9,36.9,0,0,1,3.08-8.1s5.45,5.34,12.54-.45Z" transform="translate(0.01)"/><path class="cls-30" d="M154.78,85.24a18.17,18.17,0,0,1-.57,4.34c-.69,1.59-1.46,1.85-1.46,1.85l-6,1.48-2.62-.77s8.73-1.32,7.76-8.83Z" transform="translate(0.01)"/><path class="cls-32" d="M138.36,92.72s-3.31,10.29-3.52,13.79,6.32,49.77,6.58,51.38,2.14,2.49,2.14,2.49a2.87,2.87,0,0,0,2.11.16,5.15,5.15,0,0,0,2.26-1.06s2.58-33,1-44.78a187.18,187.18,0,0,1-1.61-22Z" transform="translate(0.01)"/><path class="cls-33" d="M152.36,92.41s5,6.77,5.52,11.34.73,20.64,1.74,25.1,4.68,13,4.68,26.94a2.79,2.79,0,0,1-1.57,1.22,11,11,0,0,1-1.37.38,2.16,2.16,0,0,1-2.42-1.14c-2.49-5-10.41-21.17-10.82-24.52-.28-2.37-2.79-18.08-8.24-27.29-1.31-2.22.8-11,.8-11Z" transform="translate(0.01)"/><path class="cls-21" d="M137.83,91.13a6.92,6.92,0,0,0,4,1.1c3.15.07,11-.8,11-.8a6.65,6.65,0,0,1,.33,2s-9.53,2.41-15.05.35A3.51,3.51,0,0,1,137.83,91.13Z" transform="translate(0.01)"/><path class="cls-7" d="M141,95a1.64,1.64,0,1,1,1.44-1.63A1.55,1.55,0,0,1,141,95Zm0-2.78a1.17,1.17,0,1,0,1,1.15A1.07,1.07,0,0,0,141,92.17Z" transform="translate(0.01)"/><rect class="cls-28" x="148.85" y="101.79" width="15.34" height="8.6" transform="translate(-18.84 35.37) rotate(-12.17)"/><path class="cls-34" d="M148.12,103.5s4.19,3.51,8.85,2.29a9.32,9.32,0,0,0,6.15-5.52Z" transform="translate(0.01)"/><path class="cls-34" d="M150.22,103.78a.83.83,0,1,1,0-1.66.83.83,0,0,1,0,1.66Zm0-1.39a.56.56,0,1,0,.55.56A.56.56,0,0,0,150.22,102.39Z" transform="translate(0.01)"/><path class="cls-24" d="M162.42,104a6.89,6.89,0,0,0,.24,1.8c.23.59.93,1.37,1.16,1.37s-.22-1.22-.1-1.2.67,2,1.08,2.09.77-2.26.56-3.16a6.33,6.33,0,0,0-1.13-2Z" transform="translate(0.01)"/><path class="cls-29" d="M151.74,69.62a8.23,8.23,0,0,1,5.73,4.45c1.54,3.05,2.61,12.65,3.7,15.67a95,95,0,0,1,3.29,13,.75.75,0,0,1-.46.82l-1.37.54a.64.64,0,0,1-.79-.27c-1.22-2-6-10.22-7.68-15a24.66,24.66,0,0,0-5.59-9Z" transform="translate(0.01)"/><path class="cls-35" d="M149.94,102.31c0-.14-.87-13.82-.71-21.52a32.21,32.21,0,0,1,1.22-8.56,6.2,6.2,0,0,1,1.41-2.61l.28.09s-2.32,3.48-2.48,11.09.7,21.34.71,21.48Z" transform="translate(0.01)"/><polygon class="cls-21" points="106.17 97.16 88.1 96.39 91.77 73.87 109.84 74.64 106.17 97.16"/><path class="cls-24" d="M90.28,83s3.52-.25,3.69.57c.42,1.91-3,3.48-4.13,3.38S89.47,82.84,90.28,83Z" transform="translate(0.01)"/><path class="cls-36" d="M109.82,74.68a2.05,2.05,0,0,1-2.41,1.37c-2-.18-13.55-.75-13.55-.75s-2.22,0-2-1.38Z" transform="translate(0.01)"/><path class="cls-24" d="M107.22,78.12s-3.37-1.05-3.73-.29c-.84,1.76,2.14,4.09,3.25,4.24S108,78.19,107.22,78.12Z" transform="translate(0.01)"/><circle class="cls-7" cx="137.7" cy="29.44" r="8.21" transform="translate(-2.93 22.44) rotate(-9.22)"/><path class="cls-5" d="M137.7,22.36a7.08,7.08,0,1,1-7.08,7.08,7.09,7.09,0,0,1,7.08-7.08m0-1.13a8.21,8.21,0,1,0,8.21,8.21,8.21,8.21,0,0,0-8.21-8.21Z" transform="translate(0.01)"/><path class="cls-10" d="M137.7,22.89a.28.28,0,0,1,.28.28v.29a.28.28,0,0,1-.28.28.29.29,0,0,1-.28-.28v-.29A.29.29,0,0,1,137.7,22.89Z" transform="translate(0.01)"/><path class="cls-10" d="M137.7,35.06a.28.28,0,0,1,.28.29v.28a.27.27,0,0,1-.28.28.28.28,0,0,1-.28-.28v-.28A.29.29,0,0,1,137.7,35.06Z" transform="translate(0.01)"/><path class="cls-10" d="M131.47,29.12h.29a.28.28,0,1,1,0,.56h-.29a.28.28,0,1,1,0-.56Z" transform="translate(0.01)"/><path class="cls-10" d="M143.65,29.12h.28a.28.28,0,1,1,0,.56h-.28a.28.28,0,1,1,0-.56Z" transform="translate(0.01)"/><path class="cls-10" d="M133.5,24.8l.2.2a.28.28,0,0,1,0,.4.32.32,0,0,1-.2.08.3.3,0,0,1-.2-.08l-.2-.2a.28.28,0,0,1,.4-.4Z" transform="translate(0.01)"/><path class="cls-10" d="M142.1,33.4l.21.2a.3.3,0,0,1,0,.41.32.32,0,0,1-.21.08.32.32,0,0,1-.2-.08l-.2-.21a.28.28,0,1,1,.4-.4Z" transform="translate(0.01)"/><path class="cls-10" d="M133.3,33.4a.28.28,0,1,1,.4.4l-.2.21a.32.32,0,0,1-.2.08.29.29,0,0,1-.2-.49Z" transform="translate(0.01)"/><path class="cls-10" d="M141.9,24.8a.3.3,0,0,1,.41,0,.28.28,0,0,1,0,.4l-.21.2a.28.28,0,0,1-.2.08.32.32,0,0,1-.2-.08.28.28,0,0,1,0-.4Z" transform="translate(0.01)"/><path class="cls-10" d="M138.55,29.6h2.27a.2.2,0,0,0,.19-.2.19.19,0,0,0-.19-.19h-2.27a.18.18,0,0,0-.19.19A.19.19,0,0,0,138.55,29.6Z" transform="translate(0.01)"/><path class="cls-10" d="M137.7,28.75a.2.2,0,0,0,.2-.2V25.44a.2.2,0,0,0-.2-.2.19.19,0,0,0-.19.2v3.11A.19.19,0,0,0,137.7,28.75Z" transform="translate(0.01)"/><circle class="cls-37" cx="137.71" cy="29.4" r="0.85"/></g><circle class="cls-29" cx="96.7" cy="22.76" r="1.55"/><circle class="cls-38" cx="115.49" cy="9.39" r="1.9"/><circle class="cls-36" cx="91.74" cy="1.08" r="1.08"/><circle class="cls-7" cx="114.41" cy="33.77" r="1.08"/><circle class="cls-7" cx="68.36" cy="30.79" r="1.08"/><circle class="cls-29" cx="163.99" cy="40.45" r="1.55"/><circle class="cls-39" cx="156.4" cy="21.31" r="2.46"/><circle class="cls-38" cx="54.09" cy="14.45" r="1.9"/></g></g></g></svg>