<svg xmlns="http://www.w3.org/2000/svg" version="1.1" xmlns:xlink="http://www.w3.org/1999/xlink" xmlns:svgjs="http://svgjs.com/svgjs" width="800" height="1000" preserveAspectRatio="none" viewBox="0 0 800 1000"><g mask="url(&quot;#SvgjsMask1059&quot;)" fill="none"><path d="M-87.79 712.11L-87.79 712.11" stroke="rgba(61, 123, 147, 0.36)" stroke-width="1.5"></path><path d="M-87.79 712.11L-37.18 795.17" stroke="rgba(61, 123, 147, 0.36)" stroke-width="1.5"></path><path d="M-87.79 712.11L65.85 691.81" stroke="rgba(61, 123, 147, 0.36)" stroke-width="1.5"></path><path d="M-87.79 712.11L-33.86 926.61" stroke="rgba(61, 123, 147, 0.36)" stroke-width="1.5"></path><path d="M-87.79 712.11L175.67 671.66" stroke="rgba(61, 123, 147, 0.36)" stroke-width="1.5"></path><path d="M-37.18 795.17L-37.18 795.17" stroke="rgba(61, 123, 147, 0.36)" stroke-width="1.5"></path><path d="M-37.18 795.17L-33.86 926.61" stroke="rgba(61, 123, 147, 0.36)" stroke-width="1.5"></path><path d="M-33.86 926.61L-33.86 926.61" stroke="rgba(61, 123, 147, 0.36)" stroke-width="1.5"></path><path d="M-33.86 926.61L73.01 925.24" stroke="rgba(61, 123, 147, 0.36)" stroke-width="1.5"></path><path d="M-33.86 926.61L-46.04 1050.91" stroke="rgba(61, 123, 147, 0.36)" stroke-width="1.5"></path><path d="M-46.04 1050.91L-46.04 1050.91" stroke="rgba(61, 123, 147, 0.36)" stroke-width="1.5"></path><path d="M-46.04 1050.91L73.01 925.24" stroke="rgba(61, 123, 147, 0.36)" stroke-width="1.5"></path><path d="M-46.04 1050.91L163.9 1086.11" stroke="rgba(61, 123, 147, 0.36)" stroke-width="1.5"></path><path d="M-46.04 1050.91L157.02 927.39" stroke="rgba(61, 123, 147, 0.36)" stroke-width="1.5"></path><path d="M65.85 691.81L65.85 691.81" stroke="rgba(61, 123, 147, 0.36)" stroke-width="1.5"></path><path d="M65.85 691.81L175.67 671.66" stroke="rgba(61, 123, 147, 0.36)" stroke-width="1.5"></path><path d="M65.85 691.81L-37.18 795.17" stroke="rgba(61, 123, 147, 0.36)" stroke-width="1.5"></path><path d="M65.85 691.81L170.05 582.78" stroke="rgba(61, 123, 147, 0.36)" stroke-width="1.5"></path><path d="M73.01 925.24L73.01 925.24" stroke="rgba(61, 123, 147, 0.36)" stroke-width="1.5"></path><path d="M73.01 925.24L157.02 927.39" stroke="rgba(61, 123, 147, 0.36)" stroke-width="1.5"></path><path d="M73.01 925.24L158.4 839.82" stroke="rgba(61, 123, 147, 0.36)" stroke-width="1.5"></path><path d="M73.01 925.24L-37.18 795.17" stroke="rgba(61, 123, 147, 0.36)" stroke-width="1.5"></path><path d="M73.01 925.24L163.9 1086.11" stroke="rgba(61, 123, 147, 0.36)" stroke-width="1.5"></path><path d="M170.05 582.78L170.05 582.78" stroke="rgba(61, 123, 147, 0.36)" stroke-width="1.5"></path><path d="M170.05 582.78L175.67 671.66" stroke="rgba(61, 123, 147, 0.36)" stroke-width="1.5"></path><path d="M170.05 582.78L306.36 564.03" stroke="rgba(61, 123, 147, 0.36)" stroke-width="1.5"></path><path d="M170.05 582.78L412.59 539.02" stroke="rgba(61, 123, 147, 0.36)" stroke-width="1.5"></path><path d="M170.05 582.78L158.4 839.82" stroke="rgba(61, 123, 147, 0.36)" stroke-width="1.5"></path><path d="M170.05 582.78L-87.79 712.11" stroke="rgba(61, 123, 147, 0.36)" stroke-width="1.5"></path><path d="M175.67 671.66L175.67 671.66" stroke="rgba(61, 123, 147, 0.36)" stroke-width="1.5"></path><path d="M158.4 839.82L158.4 839.82" stroke="rgba(61, 123, 147, 0.36)" stroke-width="1.5"></path><path d="M158.4 839.82L157.02 927.39" stroke="rgba(61, 123, 147, 0.36)" stroke-width="1.5"></path><path d="M157.02 927.39L157.02 927.39" stroke="rgba(61, 123, 147, 0.36)" stroke-width="1.5"></path><path d="M163.9 1086.11L163.9 1086.11" stroke="rgba(61, 123, 147, 0.36)" stroke-width="1.5"></path><path d="M163.9 1086.11L157.02 927.39" stroke="rgba(61, 123, 147, 0.36)" stroke-width="1.5"></path><path d="M163.9 1086.11L336.71 1053" stroke="rgba(61, 123, 147, 0.36)" stroke-width="1.5"></path><path d="M306.36 564.03L306.36 564.03" stroke="rgba(61, 123, 147, 0.36)" stroke-width="1.5"></path><path d="M306.36 564.03L412.59 539.02" stroke="rgba(61, 123, 147, 0.36)" stroke-width="1.5"></path><path d="M306.36 564.03L175.67 671.66" stroke="rgba(61, 123, 147, 0.36)" stroke-width="1.5"></path><path d="M306.36 564.03L444.38 450.66" stroke="rgba(61, 123, 147, 0.36)" stroke-width="1.5"></path><path d="M306.36 564.03L462.29 690.98" stroke="rgba(61, 123, 147, 0.36)" stroke-width="1.5"></path><path d="M306.36 564.03L548.98 548.15" stroke="rgba(61, 123, 147, 0.36)" stroke-width="1.5"></path><path d="M335.72 820.66L335.72 820.66" stroke="rgba(61, 123, 147, 0.36)" stroke-width="1.5"></path><path d="M335.72 820.66L430.85 813.6" stroke="rgba(61, 123, 147, 0.36)" stroke-width="1.5"></path><path d="M335.72 820.66L317.29 917.33" stroke="rgba(61, 123, 147, 0.36)" stroke-width="1.5"></path><path d="M335.72 820.66L433.37 940.35" stroke="rgba(61, 123, 147, 0.36)" stroke-width="1.5"></path><path d="M335.72 820.66L158.4 839.82" stroke="rgba(61, 123, 147, 0.36)" stroke-width="1.5"></path><path d="M335.72 820.66L462.29 690.98" stroke="rgba(61, 123, 147, 0.36)" stroke-width="1.5"></path><path d="M317.29 917.33L317.29 917.33" stroke="rgba(61, 123, 147, 0.36)" stroke-width="1.5"></path><path d="M317.29 917.33L433.37 940.35" stroke="rgba(61, 123, 147, 0.36)" stroke-width="1.5"></path><path d="M317.29 917.33L336.71 1053" stroke="rgba(61, 123, 147, 0.36)" stroke-width="1.5"></path><path d="M317.29 917.33L430.85 813.6" stroke="rgba(61, 123, 147, 0.36)" stroke-width="1.5"></path><path d="M317.29 917.33L157.02 927.39" stroke="rgba(61, 123, 147, 0.36)" stroke-width="1.5"></path><path d="M336.71 1053L336.71 1053" stroke="rgba(61, 123, 147, 0.36)" stroke-width="1.5"></path><path d="M336.71 1053L452.41 1068.46" stroke="rgba(61, 123, 147, 0.36)" stroke-width="1.5"></path><path d="M431.13 342.48L431.13 342.48" stroke="rgba(61, 123, 147, 0.36)" stroke-width="1.5"></path><path d="M431.13 342.48L444.38 450.66" stroke="rgba(61, 123, 147, 0.36)" stroke-width="1.5"></path><path d="M431.13 342.48L561.03 287.85" stroke="rgba(61, 123, 147, 0.36)" stroke-width="1.5"></path><path d="M431.13 342.48L412.59 539.02" stroke="rgba(61, 123, 147, 0.36)" stroke-width="1.5"></path><path d="M444.38 450.66L444.38 450.66" stroke="rgba(61, 123, 147, 0.36)" stroke-width="1.5"></path><path d="M444.38 450.66L412.59 539.02" stroke="rgba(61, 123, 147, 0.36)" stroke-width="1.5"></path><path d="M444.38 450.66L548.98 548.15" stroke="rgba(61, 123, 147, 0.36)" stroke-width="1.5"></path><path d="M444.38 450.66L589.94 464.22" stroke="rgba(61, 123, 147, 0.36)" stroke-width="1.5"></path><path d="M444.38 450.66L561.03 287.85" stroke="rgba(61, 123, 147, 0.36)" stroke-width="1.5"></path><path d="M412.59 539.02L412.59 539.02" stroke="rgba(61, 123, 147, 0.36)" stroke-width="1.5"></path><path d="M412.59 539.02L548.98 548.15" stroke="rgba(61, 123, 147, 0.36)" stroke-width="1.5"></path><path d="M412.59 539.02L462.29 690.98" stroke="rgba(61, 123, 147, 0.36)" stroke-width="1.5"></path><path d="M412.59 539.02L589.94 464.22" stroke="rgba(61, 123, 147, 0.36)" stroke-width="1.5"></path><path d="M462.29 690.98L462.29 690.98" stroke="rgba(61, 123, 147, 0.36)" stroke-width="1.5"></path><path d="M462.29 690.98L430.85 813.6" stroke="rgba(61, 123, 147, 0.36)" stroke-width="1.5"></path><path d="M462.29 690.98L548.98 548.15" stroke="rgba(61, 123, 147, 0.36)" stroke-width="1.5"></path><path d="M430.85 813.6L430.85 813.6" stroke="rgba(61, 123, 147, 0.36)" stroke-width="1.5"></path><path d="M430.85 813.6L433.37 940.35" stroke="rgba(61, 123, 147, 0.36)" stroke-width="1.5"></path><path d="M430.85 813.6L591.02 909.78" stroke="rgba(61, 123, 147, 0.36)" stroke-width="1.5"></path><path d="M433.37 940.35L433.37 940.35" stroke="rgba(61, 123, 147, 0.36)" stroke-width="1.5"></path><path d="M433.37 940.35L452.41 1068.46" stroke="rgba(61, 123, 147, 0.36)" stroke-width="1.5"></path><path d="M433.37 940.35L336.71 1053" stroke="rgba(61, 123, 147, 0.36)" stroke-width="1.5"></path><path d="M433.37 940.35L591.02 909.78" stroke="rgba(61, 123, 147, 0.36)" stroke-width="1.5"></path><path d="M452.41 1068.46L452.41 1068.46" stroke="rgba(61, 123, 147, 0.36)" stroke-width="1.5"></path><path d="M452.41 1068.46L546.37 1078.63" stroke="rgba(61, 123, 147, 0.36)" stroke-width="1.5"></path><path d="M452.41 1068.46L317.29 917.33" stroke="rgba(61, 123, 147, 0.36)" stroke-width="1.5"></path><path d="M540.58 -82.53L540.58 -82.53" stroke="rgba(61, 123, 147, 0.36)" stroke-width="1.5"></path><path d="M540.58 -82.53L573.02 90.16" stroke="rgba(61, 123, 147, 0.36)" stroke-width="1.5"></path><path d="M540.58 -82.53L716.37 -42.46" stroke="rgba(61, 123, 147, 0.36)" stroke-width="1.5"></path><path d="M573.02 90.16L573.02 90.16" stroke="rgba(61, 123, 147, 0.36)" stroke-width="1.5"></path><path d="M573.02 90.16L578.53 161.34" stroke="rgba(61, 123, 147, 0.36)" stroke-width="1.5"></path><path d="M573.02 90.16L705.9 90.58" stroke="rgba(61, 123, 147, 0.36)" stroke-width="1.5"></path><path d="M573.02 90.16L715.82 187.9" stroke="rgba(61, 123, 147, 0.36)" stroke-width="1.5"></path><path d="M578.53 161.34L578.53 161.34" stroke="rgba(61, 123, 147, 0.36)" stroke-width="1.5"></path><path d="M578.53 161.34L561.03 287.85" stroke="rgba(61, 123, 147, 0.36)" stroke-width="1.5"></path><path d="M578.53 161.34L715.82 187.9" stroke="rgba(61, 123, 147, 0.36)" stroke-width="1.5"></path><path d="M578.53 161.34L705.9 90.58" stroke="rgba(61, 123, 147, 0.36)" stroke-width="1.5"></path><path d="M578.53 161.34L702.42 316.09" stroke="rgba(61, 123, 147, 0.36)" stroke-width="1.5"></path><path d="M561.03 287.85L561.03 287.85" stroke="rgba(61, 123, 147, 0.36)" stroke-width="1.5"></path><path d="M589.94 464.22L589.94 464.22" stroke="rgba(61, 123, 147, 0.36)" stroke-width="1.5"></path><path d="M589.94 464.22L667.45 425.73" stroke="rgba(61, 123, 147, 0.36)" stroke-width="1.5"></path><path d="M589.94 464.22L548.98 548.15" stroke="rgba(61, 123, 147, 0.36)" stroke-width="1.5"></path><path d="M548.98 548.15L548.98 548.15" stroke="rgba(61, 123, 147, 0.36)" stroke-width="1.5"></path><path d="M591.02 909.78L591.02 909.78" stroke="rgba(61, 123, 147, 0.36)" stroke-width="1.5"></path><path d="M591.02 909.78L703.41 910.31" stroke="rgba(61, 123, 147, 0.36)" stroke-width="1.5"></path><path d="M591.02 909.78L694.92 1040.52" stroke="rgba(61, 123, 147, 0.36)" stroke-width="1.5"></path><path d="M591.02 909.78L546.37 1078.63" stroke="rgba(61, 123, 147, 0.36)" stroke-width="1.5"></path><path d="M546.37 1078.63L546.37 1078.63" stroke="rgba(61, 123, 147, 0.36)" stroke-width="1.5"></path><path d="M546.37 1078.63L694.92 1040.52" stroke="rgba(61, 123, 147, 0.36)" stroke-width="1.5"></path><path d="M546.37 1078.63L433.37 940.35" stroke="rgba(61, 123, 147, 0.36)" stroke-width="1.5"></path><path d="M546.37 1078.63L336.71 1053" stroke="rgba(61, 123, 147, 0.36)" stroke-width="1.5"></path><path d="M546.37 1078.63L703.41 910.31" stroke="rgba(61, 123, 147, 0.36)" stroke-width="1.5"></path><path d="M716.37 -42.46L716.37 -42.46" stroke="rgba(61, 123, 147, 0.36)" stroke-width="1.5"></path><path d="M716.37 -42.46L802.9 -35.43" stroke="rgba(61, 123, 147, 0.36)" stroke-width="1.5"></path><path d="M716.37 -42.46L705.9 90.58" stroke="rgba(61, 123, 147, 0.36)" stroke-width="1.5"></path><path d="M716.37 -42.46L826.31 72.36" stroke="rgba(61, 123, 147, 0.36)" stroke-width="1.5"></path><path d="M716.37 -42.46L573.02 90.16" stroke="rgba(61, 123, 147, 0.36)" stroke-width="1.5"></path><path d="M705.9 90.58L705.9 90.58" stroke="rgba(61, 123, 147, 0.36)" stroke-width="1.5"></path><path d="M705.9 90.58L715.82 187.9" stroke="rgba(61, 123, 147, 0.36)" stroke-width="1.5"></path><path d="M705.9 90.58L826.31 72.36" stroke="rgba(61, 123, 147, 0.36)" stroke-width="1.5"></path><path d="M715.82 187.9L715.82 187.9" stroke="rgba(61, 123, 147, 0.36)" stroke-width="1.5"></path><path d="M715.82 187.9L834.75 213.92" stroke="rgba(61, 123, 147, 0.36)" stroke-width="1.5"></path><path d="M715.82 187.9L702.42 316.09" stroke="rgba(61, 123, 147, 0.36)" stroke-width="1.5"></path><path d="M715.82 187.9L826.31 72.36" stroke="rgba(61, 123, 147, 0.36)" stroke-width="1.5"></path><path d="M702.42 316.09L702.42 316.09" stroke="rgba(61, 123, 147, 0.36)" stroke-width="1.5"></path><path d="M702.42 316.09L667.45 425.73" stroke="rgba(61, 123, 147, 0.36)" stroke-width="1.5"></path><path d="M702.42 316.09L829.85 300.48" stroke="rgba(61, 123, 147, 0.36)" stroke-width="1.5"></path><path d="M667.45 425.73L667.45 425.73" stroke="rgba(61, 123, 147, 0.36)" stroke-width="1.5"></path><path d="M718.01 782.7L718.01 782.7" stroke="rgba(61, 123, 147, 0.36)" stroke-width="1.5"></path><path d="M718.01 782.7L797.38 793.6" stroke="rgba(61, 123, 147, 0.36)" stroke-width="1.5"></path><path d="M718.01 782.7L703.41 910.31" stroke="rgba(61, 123, 147, 0.36)" stroke-width="1.5"></path><path d="M718.01 782.7L813.69 667.93" stroke="rgba(61, 123, 147, 0.36)" stroke-width="1.5"></path><path d="M718.01 782.7L815.13 931.34" stroke="rgba(61, 123, 147, 0.36)" stroke-width="1.5"></path><path d="M718.01 782.7L591.02 909.78" stroke="rgba(61, 123, 147, 0.36)" stroke-width="1.5"></path><path d="M718.01 782.7L911.7 833.3" stroke="rgba(61, 123, 147, 0.36)" stroke-width="1.5"></path><path d="M703.41 910.31L703.41 910.31" stroke="rgba(61, 123, 147, 0.36)" stroke-width="1.5"></path><path d="M703.41 910.31L815.13 931.34" stroke="rgba(61, 123, 147, 0.36)" stroke-width="1.5"></path><path d="M703.41 910.31L694.92 1040.52" stroke="rgba(61, 123, 147, 0.36)" stroke-width="1.5"></path><path d="M694.92 1040.52L694.92 1040.52" stroke="rgba(61, 123, 147, 0.36)" stroke-width="1.5"></path><path d="M694.92 1040.52L784.75 1069.01" stroke="rgba(61, 123, 147, 0.36)" stroke-width="1.5"></path><path d="M694.92 1040.52L815.13 931.34" stroke="rgba(61, 123, 147, 0.36)" stroke-width="1.5"></path><path d="M802.9 -35.43L802.9 -35.43" stroke="rgba(61, 123, 147, 0.36)" stroke-width="1.5"></path><path d="M802.9 -35.43L826.31 72.36" stroke="rgba(61, 123, 147, 0.36)" stroke-width="1.5"></path><path d="M802.9 -35.43L705.9 90.58" stroke="rgba(61, 123, 147, 0.36)" stroke-width="1.5"></path><path d="M802.9 -35.43L962.26 -48.42" stroke="rgba(61, 123, 147, 0.36)" stroke-width="1.5"></path><path d="M826.31 72.36L826.31 72.36" stroke="rgba(61, 123, 147, 0.36)" stroke-width="1.5"></path><path d="M826.31 72.36L965.11 61.31" stroke="rgba(61, 123, 147, 0.36)" stroke-width="1.5"></path><path d="M826.31 72.36L834.75 213.92" stroke="rgba(61, 123, 147, 0.36)" stroke-width="1.5"></path><path d="M826.31 72.36L941.02 178.15" stroke="rgba(61, 123, 147, 0.36)" stroke-width="1.5"></path><path d="M834.75 213.92L834.75 213.92" stroke="rgba(61, 123, 147, 0.36)" stroke-width="1.5"></path><path d="M834.75 213.92L829.85 300.48" stroke="rgba(61, 123, 147, 0.36)" stroke-width="1.5"></path><path d="M834.75 213.92L941.02 178.15" stroke="rgba(61, 123, 147, 0.36)" stroke-width="1.5"></path><path d="M829.85 300.48L829.85 300.48" stroke="rgba(61, 123, 147, 0.36)" stroke-width="1.5"></path><path d="M829.85 300.48L955.15 306.1" stroke="rgba(61, 123, 147, 0.36)" stroke-width="1.5"></path><path d="M829.85 300.48L816.1 449.63" stroke="rgba(61, 123, 147, 0.36)" stroke-width="1.5"></path><path d="M816.1 449.63L816.1 449.63" stroke="rgba(61, 123, 147, 0.36)" stroke-width="1.5"></path><path d="M816.1 449.63L833.6 564.98" stroke="rgba(61, 123, 147, 0.36)" stroke-width="1.5"></path><path d="M816.1 449.63L957.35 457.29" stroke="rgba(61, 123, 147, 0.36)" stroke-width="1.5"></path><path d="M816.1 449.63L920.68 549.96" stroke="rgba(61, 123, 147, 0.36)" stroke-width="1.5"></path><path d="M833.6 564.98L833.6 564.98" stroke="rgba(61, 123, 147, 0.36)" stroke-width="1.5"></path><path d="M833.6 564.98L920.68 549.96" stroke="rgba(61, 123, 147, 0.36)" stroke-width="1.5"></path><path d="M833.6 564.98L813.69 667.93" stroke="rgba(61, 123, 147, 0.36)" stroke-width="1.5"></path><path d="M813.69 667.93L813.69 667.93" stroke="rgba(61, 123, 147, 0.36)" stroke-width="1.5"></path><path d="M813.69 667.93L934.28 697.92" stroke="rgba(61, 123, 147, 0.36)" stroke-width="1.5"></path><path d="M813.69 667.93L797.38 793.6" stroke="rgba(61, 123, 147, 0.36)" stroke-width="1.5"></path><path d="M797.38 793.6L797.38 793.6" stroke="rgba(61, 123, 147, 0.36)" stroke-width="1.5"></path><path d="M797.38 793.6L911.7 833.3" stroke="rgba(61, 123, 147, 0.36)" stroke-width="1.5"></path><path d="M797.38 793.6L815.13 931.34" stroke="rgba(61, 123, 147, 0.36)" stroke-width="1.5"></path><path d="M797.38 793.6L703.41 910.31" stroke="rgba(61, 123, 147, 0.36)" stroke-width="1.5"></path><path d="M797.38 793.6L934.28 697.92" stroke="rgba(61, 123, 147, 0.36)" stroke-width="1.5"></path><path d="M815.13 931.34L815.13 931.34" stroke="rgba(61, 123, 147, 0.36)" stroke-width="1.5"></path><path d="M815.13 931.34L935.19 950.25" stroke="rgba(61, 123, 147, 0.36)" stroke-width="1.5"></path><path d="M815.13 931.34L911.7 833.3" stroke="rgba(61, 123, 147, 0.36)" stroke-width="1.5"></path><path d="M784.75 1069.01L784.75 1069.01" stroke="rgba(61, 123, 147, 0.36)" stroke-width="1.5"></path><path d="M784.75 1069.01L815.13 931.34" stroke="rgba(61, 123, 147, 0.36)" stroke-width="1.5"></path><path d="M784.75 1069.01L957.85 1084.47" stroke="rgba(61, 123, 147, 0.36)" stroke-width="1.5"></path><path d="M784.75 1069.01L703.41 910.31" stroke="rgba(61, 123, 147, 0.36)" stroke-width="1.5"></path><path d="M784.75 1069.01L935.19 950.25" stroke="rgba(61, 123, 147, 0.36)" stroke-width="1.5"></path><path d="M962.26 -48.42L962.26 -48.42" stroke="rgba(61, 123, 147, 0.36)" stroke-width="1.5"></path><path d="M962.26 -48.42L965.11 61.31" stroke="rgba(61, 123, 147, 0.36)" stroke-width="1.5"></path><path d="M962.26 -48.42L826.31 72.36" stroke="rgba(61, 123, 147, 0.36)" stroke-width="1.5"></path><path d="M965.11 61.31L965.11 61.31" stroke="rgba(61, 123, 147, 0.36)" stroke-width="1.5"></path><path d="M965.11 61.31L941.02 178.15" stroke="rgba(61, 123, 147, 0.36)" stroke-width="1.5"></path><path d="M965.11 61.31L802.9 -35.43" stroke="rgba(61, 123, 147, 0.36)" stroke-width="1.5"></path><path d="M965.11 61.31L834.75 213.92" stroke="rgba(61, 123, 147, 0.36)" stroke-width="1.5"></path><path d="M965.11 61.31L955.15 306.1" stroke="rgba(61, 123, 147, 0.36)" stroke-width="1.5"></path><path d="M941.02 178.15L941.02 178.15" stroke="rgba(61, 123, 147, 0.36)" stroke-width="1.5"></path><path d="M955.15 306.1L955.15 306.1" stroke="rgba(61, 123, 147, 0.36)" stroke-width="1.5"></path><path d="M955.15 306.1L941.02 178.15" stroke="rgba(61, 123, 147, 0.36)" stroke-width="1.5"></path><path d="M955.15 306.1L957.35 457.29" stroke="rgba(61, 123, 147, 0.36)" stroke-width="1.5"></path><path d="M955.15 306.1L834.75 213.92" stroke="rgba(61, 123, 147, 0.36)" stroke-width="1.5"></path><path d="M955.15 306.1L816.1 449.63" stroke="rgba(61, 123, 147, 0.36)" stroke-width="1.5"></path><path d="M957.35 457.29L957.35 457.29" stroke="rgba(61, 123, 147, 0.36)" stroke-width="1.5"></path><path d="M957.35 457.29L920.68 549.96" stroke="rgba(61, 123, 147, 0.36)" stroke-width="1.5"></path><path d="M957.35 457.29L833.6 564.98" stroke="rgba(61, 123, 147, 0.36)" stroke-width="1.5"></path><path d="M957.35 457.29L829.85 300.48" stroke="rgba(61, 123, 147, 0.36)" stroke-width="1.5"></path><path d="M957.35 457.29L934.28 697.92" stroke="rgba(61, 123, 147, 0.36)" stroke-width="1.5"></path><path d="M920.68 549.96L920.68 549.96" stroke="rgba(61, 123, 147, 0.36)" stroke-width="1.5"></path><path d="M934.28 697.92L934.28 697.92" stroke="rgba(61, 123, 147, 0.36)" stroke-width="1.5"></path><path d="M934.28 697.92L911.7 833.3" stroke="rgba(61, 123, 147, 0.36)" stroke-width="1.5"></path><path d="M911.7 833.3L911.7 833.3" stroke="rgba(61, 123, 147, 0.36)" stroke-width="1.5"></path><path d="M911.7 833.3L935.19 950.25" stroke="rgba(61, 123, 147, 0.36)" stroke-width="1.5"></path><path d="M911.7 833.3L813.69 667.93" stroke="rgba(61, 123, 147, 0.36)" stroke-width="1.5"></path><path d="M935.19 950.25L935.19 950.25" stroke="rgba(61, 123, 147, 0.36)" stroke-width="1.5"></path><path d="M935.19 950.25L957.85 1084.47" stroke="rgba(61, 123, 147, 0.36)" stroke-width="1.5"></path><path d="M935.19 950.25L797.38 793.6" stroke="rgba(61, 123, 147, 0.36)" stroke-width="1.5"></path><path d="M935.19 950.25L703.41 910.31" stroke="rgba(61, 123, 147, 0.36)" stroke-width="1.5"></path><path d="M957.85 1084.47L957.85 1084.47" stroke="rgba(61, 123, 147, 0.36)" stroke-width="1.5"></path><circle r="5" cx="-87.79" cy="712.11" fill="rgba(61, 123, 147, 0.36)"></circle><circle r="5" cx="-37.18" cy="795.17" fill="rgba(61, 123, 147, 0.36)"></circle><circle r="5" cx="-33.86" cy="926.61" fill="rgba(61, 123, 147, 0.36)"></circle><circle r="5" cx="-46.04" cy="1050.91" fill="rgba(61, 123, 147, 0.36)"></circle><circle r="5" cx="65.85" cy="691.81" fill="rgba(61, 123, 147, 0.36)"></circle><circle r="5" cx="73.01" cy="925.24" fill="rgba(61, 123, 147, 0.36)"></circle><circle r="5" cx="170.05" cy="582.78" fill="rgba(61, 123, 147, 0.36)"></circle><circle r="5" cx="175.67" cy="671.66" fill="rgba(61, 123, 147, 0.36)"></circle><circle r="5" cx="158.4" cy="839.82" fill="rgba(61, 123, 147, 0.36)"></circle><circle r="5" cx="157.02" cy="927.39" fill="rgba(61, 123, 147, 0.36)"></circle><circle r="5" cx="163.9" cy="1086.11" fill="rgba(61, 123, 147, 0.36)"></circle><circle r="5" cx="306.36" cy="564.03" fill="rgba(61, 123, 147, 0.36)"></circle><circle r="5" cx="335.72" cy="820.66" fill="rgba(61, 123, 147, 0.36)"></circle><circle r="5" cx="317.29" cy="917.33" fill="rgba(61, 123, 147, 0.36)"></circle><circle r="5" cx="336.71" cy="1053" fill="rgba(61, 123, 147, 0.36)"></circle><circle r="5" cx="431.13" cy="342.48" fill="rgba(61, 123, 147, 0.36)"></circle><circle r="5" cx="444.38" cy="450.66" fill="rgba(61, 123, 147, 0.36)"></circle><circle r="5" cx="412.59" cy="539.02" fill="rgba(61, 123, 147, 0.36)"></circle><circle r="5" cx="462.29" cy="690.98" fill="rgba(61, 123, 147, 0.36)"></circle><circle r="5" cx="430.85" cy="813.6" fill="rgba(61, 123, 147, 0.36)"></circle><circle r="5" cx="433.37" cy="940.35" fill="rgba(61, 123, 147, 0.36)"></circle><circle r="5" cx="452.41" cy="1068.46" fill="rgba(61, 123, 147, 0.36)"></circle><circle r="5" cx="540.58" cy="-82.53" fill="rgba(61, 123, 147, 0.36)"></circle><circle r="5" cx="573.02" cy="90.16" fill="rgba(61, 123, 147, 0.36)"></circle><circle r="5" cx="578.53" cy="161.34" fill="rgba(61, 123, 147, 0.36)"></circle><circle r="5" cx="561.03" cy="287.85" fill="rgba(61, 123, 147, 0.36)"></circle><circle r="5" cx="589.94" cy="464.22" fill="rgba(61, 123, 147, 0.36)"></circle><circle r="5" cx="548.98" cy="548.15" fill="rgba(61, 123, 147, 0.36)"></circle><circle r="5" cx="591.02" cy="909.78" fill="rgba(61, 123, 147, 0.36)"></circle><circle r="5" cx="546.37" cy="1078.63" fill="rgba(61, 123, 147, 0.36)"></circle><circle r="5" cx="716.37" cy="-42.46" fill="rgba(61, 123, 147, 0.36)"></circle><circle r="5" cx="705.9" cy="90.58" fill="rgba(61, 123, 147, 0.36)"></circle><circle r="5" cx="715.82" cy="187.9" fill="rgba(61, 123, 147, 0.36)"></circle><circle r="5" cx="702.42" cy="316.09" fill="rgba(61, 123, 147, 0.36)"></circle><circle r="5" cx="667.45" cy="425.73" fill="rgba(61, 123, 147, 0.36)"></circle><circle r="5" cx="718.01" cy="782.7" fill="rgba(61, 123, 147, 0.36)"></circle><circle r="5" cx="703.41" cy="910.31" fill="rgba(61, 123, 147, 0.36)"></circle><circle r="5" cx="694.92" cy="1040.52" fill="rgba(61, 123, 147, 0.36)"></circle><circle r="5" cx="802.9" cy="-35.43" fill="rgba(61, 123, 147, 0.36)"></circle><circle r="5" cx="826.31" cy="72.36" fill="rgba(61, 123, 147, 0.36)"></circle><circle r="5" cx="834.75" cy="213.92" fill="rgba(61, 123, 147, 0.36)"></circle><circle r="5" cx="829.85" cy="300.48" fill="rgba(61, 123, 147, 0.36)"></circle><circle r="5" cx="816.1" cy="449.63" fill="rgba(61, 123, 147, 0.36)"></circle><circle r="5" cx="833.6" cy="564.98" fill="rgba(61, 123, 147, 0.36)"></circle><circle r="5" cx="813.69" cy="667.93" fill="rgba(61, 123, 147, 0.36)"></circle><circle r="5" cx="797.38" cy="793.6" fill="rgba(61, 123, 147, 0.36)"></circle><circle r="5" cx="815.13" cy="931.34" fill="rgba(61, 123, 147, 0.36)"></circle><circle r="5" cx="784.75" cy="1069.01" fill="rgba(61, 123, 147, 0.36)"></circle><circle r="5" cx="962.26" cy="-48.42" fill="rgba(61, 123, 147, 0.36)"></circle><circle r="5" cx="965.11" cy="61.31" fill="rgba(61, 123, 147, 0.36)"></circle><circle r="5" cx="941.02" cy="178.15" fill="rgba(61, 123, 147, 0.36)"></circle><circle r="5" cx="955.15" cy="306.1" fill="rgba(61, 123, 147, 0.36)"></circle><circle r="5" cx="957.35" cy="457.29" fill="rgba(61, 123, 147, 0.36)"></circle><circle r="5" cx="920.68" cy="549.96" fill="rgba(61, 123, 147, 0.36)"></circle><circle r="5" cx="934.28" cy="697.92" fill="rgba(61, 123, 147, 0.36)"></circle><circle r="5" cx="911.7" cy="833.3" fill="rgba(61, 123, 147, 0.36)"></circle><circle r="5" cx="935.19" cy="950.25" fill="rgba(61, 123, 147, 0.36)"></circle><circle r="5" cx="957.85" cy="1084.47" fill="rgba(61, 123, 147, 0.36)"></circle><path d="M-73.75 968.09L-73.75 968.09" stroke="hsla(196.70000000000005, 41.3%, 53%, 0.3)" stroke-width="1.5"></path><path d="M-73.75 968.09L-57.89 1091.99" stroke="hsla(196.70000000000005, 41.3%, 53%, 0.3)" stroke-width="1.5"></path><path d="M-73.75 968.09L39.82 1073.26" stroke="hsla(196.70000000000005, 41.3%, 53%, 0.3)" stroke-width="1.5"></path><path d="M-73.75 968.09L-48.78 801.23" stroke="hsla(196.70000000000005, 41.3%, 53%, 0.3)" stroke-width="1.5"></path><path d="M-73.75 968.09L92.5 911.69" stroke="hsla(196.70000000000005, 41.3%, 53%, 0.3)" stroke-width="1.5"></path><path d="M-73.75 968.09L78.92 818.62" stroke="hsla(196.70000000000005, 41.3%, 53%, 0.3)" stroke-width="1.5"></path><path d="M-73.75 968.09L171.48 933.06" stroke="hsla(196.70000000000005, 41.3%, 53%, 0.3)" stroke-width="1.5"></path><path d="M92.5 911.69L92.5 911.69" stroke="hsla(196.70000000000005, 41.3%, 53%, 0.3)" stroke-width="1.5"></path><path d="M92.5 911.69L171.48 933.06" stroke="hsla(196.70000000000005, 41.3%, 53%, 0.3)" stroke-width="1.5"></path><path d="M92.5 911.69L78.92 818.62" stroke="hsla(196.70000000000005, 41.3%, 53%, 0.3)" stroke-width="1.5"></path><path d="M92.5 911.69L201.19 798.86" stroke="hsla(196.70000000000005, 41.3%, 53%, 0.3)" stroke-width="1.5"></path><path d="M39.82 1073.26L39.82 1073.26" stroke="hsla(196.70000000000005, 41.3%, 53%, 0.3)" stroke-width="1.5"></path><path d="M39.82 1073.26L-57.89 1091.99" stroke="hsla(196.70000000000005, 41.3%, 53%, 0.3)" stroke-width="1.5"></path><path d="M39.82 1073.26L194.17 1032.02" stroke="hsla(196.70000000000005, 41.3%, 53%, 0.3)" stroke-width="1.5"></path><path d="M39.82 1073.26L92.5 911.69" stroke="hsla(196.70000000000005, 41.3%, 53%, 0.3)" stroke-width="1.5"></path><path d="M341.71 949.59L341.71 949.59" stroke="hsla(196.70000000000005, 41.3%, 53%, 0.3)" stroke-width="1.5"></path><path d="M341.71 949.59L412.97 930.14" stroke="hsla(196.70000000000005, 41.3%, 53%, 0.3)" stroke-width="1.5"></path><path d="M341.71 949.59L295.45 1041.73" stroke="hsla(196.70000000000005, 41.3%, 53%, 0.3)" stroke-width="1.5"></path><path d="M341.71 949.59L194.17 1032.02" stroke="hsla(196.70000000000005, 41.3%, 53%, 0.3)" stroke-width="1.5"></path><path d="M434.23 692.3L434.23 692.3" stroke="hsla(196.70000000000005, 41.3%, 53%, 0.3)" stroke-width="1.5"></path><path d="M434.23 692.3L534.8 716.62" stroke="hsla(196.70000000000005, 41.3%, 53%, 0.3)" stroke-width="1.5"></path><path d="M434.23 692.3L456.14 814.76" stroke="hsla(196.70000000000005, 41.3%, 53%, 0.3)" stroke-width="1.5"></path><path d="M434.23 692.3L565.25 798.74" stroke="hsla(196.70000000000005, 41.3%, 53%, 0.3)" stroke-width="1.5"></path><path d="M434.23 692.3L281.87 786.17" stroke="hsla(196.70000000000005, 41.3%, 53%, 0.3)" stroke-width="1.5"></path><path d="M412.97 930.14L412.97 930.14" stroke="hsla(196.70000000000005, 41.3%, 53%, 0.3)" stroke-width="1.5"></path><path d="M412.97 930.14L456.14 814.76" stroke="hsla(196.70000000000005, 41.3%, 53%, 0.3)" stroke-width="1.5"></path><path d="M585.85 540.73L585.85 540.73" stroke="hsla(196.70000000000005, 41.3%, 53%, 0.3)" stroke-width="1.5"></path><path d="M585.85 540.73L553.53 444.29" stroke="hsla(196.70000000000005, 41.3%, 53%, 0.3)" stroke-width="1.5"></path><path d="M585.85 540.73L697.34 541.4" stroke="hsla(196.70000000000005, 41.3%, 53%, 0.3)" stroke-width="1.5"></path><path d="M585.85 540.73L711.05 417.5" stroke="hsla(196.70000000000005, 41.3%, 53%, 0.3)" stroke-width="1.5"></path><path d="M565.25 798.74L565.25 798.74" stroke="hsla(196.70000000000005, 41.3%, 53%, 0.3)" stroke-width="1.5"></path><path d="M565.25 798.74L534.8 716.62" stroke="hsla(196.70000000000005, 41.3%, 53%, 0.3)" stroke-width="1.5"></path><path d="M565.25 798.74L456.14 814.76" stroke="hsla(196.70000000000005, 41.3%, 53%, 0.3)" stroke-width="1.5"></path><path d="M565.25 798.74L549.02 917.37" stroke="hsla(196.70000000000005, 41.3%, 53%, 0.3)" stroke-width="1.5"></path><path d="M818.62 293.11L818.62 293.11" stroke="hsla(196.70000000000005, 41.3%, 53%, 0.3)" stroke-width="1.5"></path><path d="M818.62 293.11L807.66 213.76" stroke="hsla(196.70000000000005, 41.3%, 53%, 0.3)" stroke-width="1.5"></path><path d="M818.62 293.11L717.88 294.24" stroke="hsla(196.70000000000005, 41.3%, 53%, 0.3)" stroke-width="1.5"></path><path d="M834.01 437.25L834.01 437.25" stroke="hsla(196.70000000000005, 41.3%, 53%, 0.3)" stroke-width="1.5"></path><path d="M834.01 437.25L944.97 452.13" stroke="hsla(196.70000000000005, 41.3%, 53%, 0.3)" stroke-width="1.5"></path><path d="M834.01 437.25L711.05 417.5" stroke="hsla(196.70000000000005, 41.3%, 53%, 0.3)" stroke-width="1.5"></path><path d="M834.01 437.25L911.45 542.17" stroke="hsla(196.70000000000005, 41.3%, 53%, 0.3)" stroke-width="1.5"></path><path d="M824.09 587.24L824.09 587.24" stroke="hsla(196.70000000000005, 41.3%, 53%, 0.3)" stroke-width="1.5"></path><path d="M824.09 587.24L911.45 542.17" stroke="hsla(196.70000000000005, 41.3%, 53%, 0.3)" stroke-width="1.5"></path><path d="M824.09 587.24L842.97 699.07" stroke="hsla(196.70000000000005, 41.3%, 53%, 0.3)" stroke-width="1.5"></path><path d="M803.48 832.7L803.48 832.7" stroke="hsla(196.70000000000005, 41.3%, 53%, 0.3)" stroke-width="1.5"></path><path d="M803.48 832.7L830.12 931.76" stroke="hsla(196.70000000000005, 41.3%, 53%, 0.3)" stroke-width="1.5"></path><path d="M803.48 832.7L687.41 806.58" stroke="hsla(196.70000000000005, 41.3%, 53%, 0.3)" stroke-width="1.5"></path><path d="M941.09 921.76L941.09 921.76" stroke="hsla(196.70000000000005, 41.3%, 53%, 0.3)" stroke-width="1.5"></path><path d="M941.09 921.76L830.12 931.76" stroke="hsla(196.70000000000005, 41.3%, 53%, 0.3)" stroke-width="1.5"></path><path d="M941.09 921.76L925.13 801.84" stroke="hsla(196.70000000000005, 41.3%, 53%, 0.3)" stroke-width="1.5"></path><path d="M941.09 921.76L803.48 832.7" stroke="hsla(196.70000000000005, 41.3%, 53%, 0.3)" stroke-width="1.5"></path><path d="M941.09 921.76L800.19 1035.91" stroke="hsla(196.70000000000005, 41.3%, 53%, 0.3)" stroke-width="1.5"></path><path d="M-48.78 801.23L-48.78 801.23" stroke="hsla(196.70000000000005, 41.3%, 53%, 0.3)" stroke-width="1.5"></path><path d="M-48.78 801.23L78.92 818.62" stroke="hsla(196.70000000000005, 41.3%, 53%, 0.3)" stroke-width="1.5"></path><path d="M-48.78 801.23L92.5 911.69" stroke="hsla(196.70000000000005, 41.3%, 53%, 0.3)" stroke-width="1.5"></path><path d="M-48.78 801.23L201.19 798.86" stroke="hsla(196.70000000000005, 41.3%, 53%, 0.3)" stroke-width="1.5"></path><path d="M-48.78 801.23L171.48 933.06" stroke="hsla(196.70000000000005, 41.3%, 53%, 0.3)" stroke-width="1.5"></path><path d="M-48.78 801.23L39.82 1073.26" stroke="hsla(196.70000000000005, 41.3%, 53%, 0.3)" stroke-width="1.5"></path><path d="M-57.89 1091.99L-57.89 1091.99" stroke="hsla(196.70000000000005, 41.3%, 53%, 0.3)" stroke-width="1.5"></path><path d="M-57.89 1091.99L92.5 911.69" stroke="hsla(196.70000000000005, 41.3%, 53%, 0.3)" stroke-width="1.5"></path><path d="M78.92 818.62L78.92 818.62" stroke="hsla(196.70000000000005, 41.3%, 53%, 0.3)" stroke-width="1.5"></path><path d="M78.92 818.62L201.19 798.86" stroke="hsla(196.70000000000005, 41.3%, 53%, 0.3)" stroke-width="1.5"></path><path d="M201.19 798.86L201.19 798.86" stroke="hsla(196.70000000000005, 41.3%, 53%, 0.3)" stroke-width="1.5"></path><path d="M201.19 798.86L281.87 786.17" stroke="hsla(196.70000000000005, 41.3%, 53%, 0.3)" stroke-width="1.5"></path><path d="M201.19 798.86L171.48 933.06" stroke="hsla(196.70000000000005, 41.3%, 53%, 0.3)" stroke-width="1.5"></path><path d="M201.19 798.86L341.71 949.59" stroke="hsla(196.70000000000005, 41.3%, 53%, 0.3)" stroke-width="1.5"></path><path d="M171.48 933.06L171.48 933.06" stroke="hsla(196.70000000000005, 41.3%, 53%, 0.3)" stroke-width="1.5"></path><path d="M171.48 933.06L194.17 1032.02" stroke="hsla(196.70000000000005, 41.3%, 53%, 0.3)" stroke-width="1.5"></path><path d="M194.17 1032.02L194.17 1032.02" stroke="hsla(196.70000000000005, 41.3%, 53%, 0.3)" stroke-width="1.5"></path><path d="M194.17 1032.02L295.45 1041.73" stroke="hsla(196.70000000000005, 41.3%, 53%, 0.3)" stroke-width="1.5"></path><path d="M194.17 1032.02L92.5 911.69" stroke="hsla(196.70000000000005, 41.3%, 53%, 0.3)" stroke-width="1.5"></path><path d="M281.87 786.17L281.87 786.17" stroke="hsla(196.70000000000005, 41.3%, 53%, 0.3)" stroke-width="1.5"></path><path d="M281.87 786.17L341.71 949.59" stroke="hsla(196.70000000000005, 41.3%, 53%, 0.3)" stroke-width="1.5"></path><path d="M281.87 786.17L456.14 814.76" stroke="hsla(196.70000000000005, 41.3%, 53%, 0.3)" stroke-width="1.5"></path><path d="M281.87 786.17L171.48 933.06" stroke="hsla(196.70000000000005, 41.3%, 53%, 0.3)" stroke-width="1.5"></path><path d="M295.45 1041.73L295.45 1041.73" stroke="hsla(196.70000000000005, 41.3%, 53%, 0.3)" stroke-width="1.5"></path><path d="M295.45 1041.73L447.72 1089.52" stroke="hsla(196.70000000000005, 41.3%, 53%, 0.3)" stroke-width="1.5"></path><path d="M295.45 1041.73L412.97 930.14" stroke="hsla(196.70000000000005, 41.3%, 53%, 0.3)" stroke-width="1.5"></path><path d="M295.45 1041.73L171.48 933.06" stroke="hsla(196.70000000000005, 41.3%, 53%, 0.3)" stroke-width="1.5"></path><path d="M295.45 1041.73L92.5 911.69" stroke="hsla(196.70000000000005, 41.3%, 53%, 0.3)" stroke-width="1.5"></path><path d="M456.14 814.76L456.14 814.76" stroke="hsla(196.70000000000005, 41.3%, 53%, 0.3)" stroke-width="1.5"></path><path d="M456.14 814.76L534.8 716.62" stroke="hsla(196.70000000000005, 41.3%, 53%, 0.3)" stroke-width="1.5"></path><path d="M447.72 1089.52L447.72 1089.52" stroke="hsla(196.70000000000005, 41.3%, 53%, 0.3)" stroke-width="1.5"></path><path d="M447.72 1089.52L555.01 1042.26" stroke="hsla(196.70000000000005, 41.3%, 53%, 0.3)" stroke-width="1.5"></path><path d="M447.72 1089.52L412.97 930.14" stroke="hsla(196.70000000000005, 41.3%, 53%, 0.3)" stroke-width="1.5"></path><path d="M553.53 444.29L553.53 444.29" stroke="hsla(196.70000000000005, 41.3%, 53%, 0.3)" stroke-width="1.5"></path><path d="M534.8 716.62L534.8 716.62" stroke="hsla(196.70000000000005, 41.3%, 53%, 0.3)" stroke-width="1.5"></path><path d="M534.8 716.62L706.14 709.98" stroke="hsla(196.70000000000005, 41.3%, 53%, 0.3)" stroke-width="1.5"></path><path d="M534.8 716.62L687.41 806.58" stroke="hsla(196.70000000000005, 41.3%, 53%, 0.3)" stroke-width="1.5"></path><path d="M534.8 716.62L585.85 540.73" stroke="hsla(196.70000000000005, 41.3%, 53%, 0.3)" stroke-width="1.5"></path><path d="M549.02 917.37L549.02 917.37" stroke="hsla(196.70000000000005, 41.3%, 53%, 0.3)" stroke-width="1.5"></path><path d="M549.02 917.37L555.01 1042.26" stroke="hsla(196.70000000000005, 41.3%, 53%, 0.3)" stroke-width="1.5"></path><path d="M555.01 1042.26L555.01 1042.26" stroke="hsla(196.70000000000005, 41.3%, 53%, 0.3)" stroke-width="1.5"></path><path d="M555.01 1042.26L678.97 1032.67" stroke="hsla(196.70000000000005, 41.3%, 53%, 0.3)" stroke-width="1.5"></path><path d="M555.01 1042.26L412.97 930.14" stroke="hsla(196.70000000000005, 41.3%, 53%, 0.3)" stroke-width="1.5"></path><path d="M709.85 -78.67L709.85 -78.67" stroke="hsla(196.70000000000005, 41.3%, 53%, 0.3)" stroke-width="1.5"></path><path d="M709.85 -78.67L822.25 -70.97" stroke="hsla(196.70000000000005, 41.3%, 53%, 0.3)" stroke-width="1.5"></path><path d="M709.85 -78.67L786.17 85.34" stroke="hsla(196.70000000000005, 41.3%, 53%, 0.3)" stroke-width="1.5"></path><path d="M709.85 -78.67L917.93 -44.06" stroke="hsla(196.70000000000005, 41.3%, 53%, 0.3)" stroke-width="1.5"></path><path d="M709.85 -78.67L914.39 73.17" stroke="hsla(196.70000000000005, 41.3%, 53%, 0.3)" stroke-width="1.5"></path><path d="M717.88 294.24L717.88 294.24" stroke="hsla(196.70000000000005, 41.3%, 53%, 0.3)" stroke-width="1.5"></path><path d="M717.88 294.24L807.66 213.76" stroke="hsla(196.70000000000005, 41.3%, 53%, 0.3)" stroke-width="1.5"></path><path d="M717.88 294.24L711.05 417.5" stroke="hsla(196.70000000000005, 41.3%, 53%, 0.3)" stroke-width="1.5"></path><path d="M717.88 294.24L834.01 437.25" stroke="hsla(196.70000000000005, 41.3%, 53%, 0.3)" stroke-width="1.5"></path><path d="M717.88 294.24L786.17 85.34" stroke="hsla(196.70000000000005, 41.3%, 53%, 0.3)" stroke-width="1.5"></path><path d="M717.88 294.24L553.53 444.29" stroke="hsla(196.70000000000005, 41.3%, 53%, 0.3)" stroke-width="1.5"></path><path d="M711.05 417.5L711.05 417.5" stroke="hsla(196.70000000000005, 41.3%, 53%, 0.3)" stroke-width="1.5"></path><path d="M711.05 417.5L697.34 541.4" stroke="hsla(196.70000000000005, 41.3%, 53%, 0.3)" stroke-width="1.5"></path><path d="M711.05 417.5L553.53 444.29" stroke="hsla(196.70000000000005, 41.3%, 53%, 0.3)" stroke-width="1.5"></path><path d="M697.34 541.4L697.34 541.4" stroke="hsla(196.70000000000005, 41.3%, 53%, 0.3)" stroke-width="1.5"></path><path d="M706.14 709.98L706.14 709.98" stroke="hsla(196.70000000000005, 41.3%, 53%, 0.3)" stroke-width="1.5"></path><path d="M706.14 709.98L687.41 806.58" stroke="hsla(196.70000000000005, 41.3%, 53%, 0.3)" stroke-width="1.5"></path><path d="M706.14 709.98L842.97 699.07" stroke="hsla(196.70000000000005, 41.3%, 53%, 0.3)" stroke-width="1.5"></path><path d="M706.14 709.98L803.48 832.7" stroke="hsla(196.70000000000005, 41.3%, 53%, 0.3)" stroke-width="1.5"></path><path d="M687.41 806.58L687.41 806.58" stroke="hsla(196.70000000000005, 41.3%, 53%, 0.3)" stroke-width="1.5"></path><path d="M687.41 806.58L708.03 908.62" stroke="hsla(196.70000000000005, 41.3%, 53%, 0.3)" stroke-width="1.5"></path><path d="M687.41 806.58L565.25 798.74" stroke="hsla(196.70000000000005, 41.3%, 53%, 0.3)" stroke-width="1.5"></path><path d="M687.41 806.58L549.02 917.37" stroke="hsla(196.70000000000005, 41.3%, 53%, 0.3)" stroke-width="1.5"></path><path d="M708.03 908.62L708.03 908.62" stroke="hsla(196.70000000000005, 41.3%, 53%, 0.3)" stroke-width="1.5"></path><path d="M708.03 908.62L803.48 832.7" stroke="hsla(196.70000000000005, 41.3%, 53%, 0.3)" stroke-width="1.5"></path><path d="M708.03 908.62L830.12 931.76" stroke="hsla(196.70000000000005, 41.3%, 53%, 0.3)" stroke-width="1.5"></path><path d="M708.03 908.62L678.97 1032.67" stroke="hsla(196.70000000000005, 41.3%, 53%, 0.3)" stroke-width="1.5"></path><path d="M708.03 908.62L800.19 1035.91" stroke="hsla(196.70000000000005, 41.3%, 53%, 0.3)" stroke-width="1.5"></path><path d="M708.03 908.62L549.02 917.37" stroke="hsla(196.70000000000005, 41.3%, 53%, 0.3)" stroke-width="1.5"></path><path d="M678.97 1032.67L678.97 1032.67" stroke="hsla(196.70000000000005, 41.3%, 53%, 0.3)" stroke-width="1.5"></path><path d="M678.97 1032.67L800.19 1035.91" stroke="hsla(196.70000000000005, 41.3%, 53%, 0.3)" stroke-width="1.5"></path><path d="M822.25 -70.97L822.25 -70.97" stroke="hsla(196.70000000000005, 41.3%, 53%, 0.3)" stroke-width="1.5"></path><path d="M822.25 -70.97L917.93 -44.06" stroke="hsla(196.70000000000005, 41.3%, 53%, 0.3)" stroke-width="1.5"></path><path d="M822.25 -70.97L786.17 85.34" stroke="hsla(196.70000000000005, 41.3%, 53%, 0.3)" stroke-width="1.5"></path><path d="M822.25 -70.97L914.39 73.17" stroke="hsla(196.70000000000005, 41.3%, 53%, 0.3)" stroke-width="1.5"></path><path d="M822.25 -70.97L912.2 171.88" stroke="hsla(196.70000000000005, 41.3%, 53%, 0.3)" stroke-width="1.5"></path><path d="M786.17 85.34L786.17 85.34" stroke="hsla(196.70000000000005, 41.3%, 53%, 0.3)" stroke-width="1.5"></path><path d="M786.17 85.34L914.39 73.17" stroke="hsla(196.70000000000005, 41.3%, 53%, 0.3)" stroke-width="1.5"></path><path d="M786.17 85.34L807.66 213.76" stroke="hsla(196.70000000000005, 41.3%, 53%, 0.3)" stroke-width="1.5"></path><path d="M807.66 213.76L807.66 213.76" stroke="hsla(196.70000000000005, 41.3%, 53%, 0.3)" stroke-width="1.5"></path><path d="M807.66 213.76L912.2 171.88" stroke="hsla(196.70000000000005, 41.3%, 53%, 0.3)" stroke-width="1.5"></path><path d="M842.97 699.07L842.97 699.07" stroke="hsla(196.70000000000005, 41.3%, 53%, 0.3)" stroke-width="1.5"></path><path d="M842.97 699.07L960.48 662.67" stroke="hsla(196.70000000000005, 41.3%, 53%, 0.3)" stroke-width="1.5"></path><path d="M842.97 699.07L925.13 801.84" stroke="hsla(196.70000000000005, 41.3%, 53%, 0.3)" stroke-width="1.5"></path><path d="M842.97 699.07L803.48 832.7" stroke="hsla(196.70000000000005, 41.3%, 53%, 0.3)" stroke-width="1.5"></path><path d="M842.97 699.07L911.45 542.17" stroke="hsla(196.70000000000005, 41.3%, 53%, 0.3)" stroke-width="1.5"></path><path d="M830.12 931.76L830.12 931.76" stroke="hsla(196.70000000000005, 41.3%, 53%, 0.3)" stroke-width="1.5"></path><path d="M830.12 931.76L800.19 1035.91" stroke="hsla(196.70000000000005, 41.3%, 53%, 0.3)" stroke-width="1.5"></path><path d="M800.19 1035.91L800.19 1035.91" stroke="hsla(196.70000000000005, 41.3%, 53%, 0.3)" stroke-width="1.5"></path><path d="M917.93 -44.06L917.93 -44.06" stroke="hsla(196.70000000000005, 41.3%, 53%, 0.3)" stroke-width="1.5"></path><path d="M917.93 -44.06L914.39 73.17" stroke="hsla(196.70000000000005, 41.3%, 53%, 0.3)" stroke-width="1.5"></path><path d="M917.93 -44.06L786.17 85.34" stroke="hsla(196.70000000000005, 41.3%, 53%, 0.3)" stroke-width="1.5"></path><path d="M917.93 -44.06L912.2 171.88" stroke="hsla(196.70000000000005, 41.3%, 53%, 0.3)" stroke-width="1.5"></path><path d="M914.39 73.17L914.39 73.17" stroke="hsla(196.70000000000005, 41.3%, 53%, 0.3)" stroke-width="1.5"></path><path d="M914.39 73.17L912.2 171.88" stroke="hsla(196.70000000000005, 41.3%, 53%, 0.3)" stroke-width="1.5"></path><path d="M912.2 171.88L912.2 171.88" stroke="hsla(196.70000000000005, 41.3%, 53%, 0.3)" stroke-width="1.5"></path><path d="M912.2 171.88L786.17 85.34" stroke="hsla(196.70000000000005, 41.3%, 53%, 0.3)" stroke-width="1.5"></path><path d="M912.2 171.88L818.62 293.11" stroke="hsla(196.70000000000005, 41.3%, 53%, 0.3)" stroke-width="1.5"></path><path d="M912.2 171.88L960.02 335.12" stroke="hsla(196.70000000000005, 41.3%, 53%, 0.3)" stroke-width="1.5"></path><path d="M960.02 335.12L960.02 335.12" stroke="hsla(196.70000000000005, 41.3%, 53%, 0.3)" stroke-width="1.5"></path><path d="M960.02 335.12L944.97 452.13" stroke="hsla(196.70000000000005, 41.3%, 53%, 0.3)" stroke-width="1.5"></path><path d="M960.02 335.12L818.62 293.11" stroke="hsla(196.70000000000005, 41.3%, 53%, 0.3)" stroke-width="1.5"></path><path d="M960.02 335.12L834.01 437.25" stroke="hsla(196.70000000000005, 41.3%, 53%, 0.3)" stroke-width="1.5"></path><path d="M944.97 452.13L944.97 452.13" stroke="hsla(196.70000000000005, 41.3%, 53%, 0.3)" stroke-width="1.5"></path><path d="M944.97 452.13L911.45 542.17" stroke="hsla(196.70000000000005, 41.3%, 53%, 0.3)" stroke-width="1.5"></path><path d="M911.45 542.17L911.45 542.17" stroke="hsla(196.70000000000005, 41.3%, 53%, 0.3)" stroke-width="1.5"></path><path d="M911.45 542.17L960.48 662.67" stroke="hsla(196.70000000000005, 41.3%, 53%, 0.3)" stroke-width="1.5"></path><path d="M960.48 662.67L960.48 662.67" stroke="hsla(196.70000000000005, 41.3%, 53%, 0.3)" stroke-width="1.5"></path><path d="M960.48 662.67L925.13 801.84" stroke="hsla(196.70000000000005, 41.3%, 53%, 0.3)" stroke-width="1.5"></path><path d="M960.48 662.67L824.09 587.24" stroke="hsla(196.70000000000005, 41.3%, 53%, 0.3)" stroke-width="1.5"></path><path d="M960.48 662.67L944.97 452.13" stroke="hsla(196.70000000000005, 41.3%, 53%, 0.3)" stroke-width="1.5"></path><path d="M960.48 662.67L803.48 832.7" stroke="hsla(196.70000000000005, 41.3%, 53%, 0.3)" stroke-width="1.5"></path><path d="M925.13 801.84L925.13 801.84" stroke="hsla(196.70000000000005, 41.3%, 53%, 0.3)" stroke-width="1.5"></path><path d="M925.13 801.84L803.48 832.7" stroke="hsla(196.70000000000005, 41.3%, 53%, 0.3)" stroke-width="1.5"></path><circle r="25" cx="-73.75" cy="968.09" fill="url(#SvgjsRadialGradient1060)"></circle><circle r="25" cx="92.5" cy="911.69" fill="url(#SvgjsRadialGradient1060)"></circle><circle r="25" cx="39.82" cy="1073.26" fill="url(#SvgjsRadialGradient1060)"></circle><circle r="25" cx="341.71" cy="949.59" fill="url(#SvgjsRadialGradient1060)"></circle><circle r="25" cx="434.23" cy="692.3" fill="url(#SvgjsRadialGradient1060)"></circle><circle r="25" cx="412.97" cy="930.14" fill="url(#SvgjsRadialGradient1060)"></circle><circle r="25" cx="585.85" cy="540.73" fill="url(#SvgjsRadialGradient1060)"></circle><circle r="25" cx="565.25" cy="798.74" fill="url(#SvgjsRadialGradient1060)"></circle><circle r="25" cx="818.62" cy="293.11" fill="url(#SvgjsRadialGradient1060)"></circle><circle r="25" cx="834.01" cy="437.25" fill="url(#SvgjsRadialGradient1060)"></circle><circle r="25" cx="824.09" cy="587.24" fill="url(#SvgjsRadialGradient1060)"></circle><circle r="25" cx="803.48" cy="832.7" fill="url(#SvgjsRadialGradient1060)"></circle><circle r="25" cx="941.09" cy="921.76" fill="url(#SvgjsRadialGradient1060)"></circle><circle r="5" cx="-48.78" cy="801.23" fill="rgba(226, 235, 239, 0.65)"></circle><circle r="5" cx="-57.89" cy="1091.99" fill="rgba(226, 235, 239, 0.65)"></circle><circle r="5" cx="78.92" cy="818.62" fill="rgba(226, 235, 239, 0.65)"></circle><circle r="5" cx="201.19" cy="798.86" fill="rgba(226, 235, 239, 0.65)"></circle><circle r="5" cx="171.48" cy="933.06" fill="rgba(226, 235, 239, 0.65)"></circle><circle r="5" cx="194.17" cy="1032.02" fill="rgba(226, 235, 239, 0.65)"></circle><circle r="5" cx="281.87" cy="786.17" fill="rgba(226, 235, 239, 0.65)"></circle><circle r="5" cx="295.45" cy="1041.73" fill="rgba(226, 235, 239, 0.65)"></circle><circle r="5" cx="456.14" cy="814.76" fill="rgba(226, 235, 239, 0.65)"></circle><circle r="5" cx="447.72" cy="1089.52" fill="rgba(226, 235, 239, 0.65)"></circle><circle r="5" cx="553.53" cy="444.29" fill="rgba(226, 235, 239, 0.65)"></circle><circle r="5" cx="534.8" cy="716.62" fill="rgba(226, 235, 239, 0.65)"></circle><circle r="5" cx="549.02" cy="917.37" fill="rgba(226, 235, 239, 0.65)"></circle><circle r="5" cx="555.01" cy="1042.26" fill="rgba(226, 235, 239, 0.65)"></circle><circle r="5" cx="709.85" cy="-78.67" fill="rgba(226, 235, 239, 0.65)"></circle><circle r="5" cx="717.88" cy="294.24" fill="rgba(226, 235, 239, 0.65)"></circle><circle r="5" cx="711.05" cy="417.5" fill="rgba(226, 235, 239, 0.65)"></circle><circle r="5" cx="697.34" cy="541.4" fill="rgba(226, 235, 239, 0.65)"></circle><circle r="5" cx="706.14" cy="709.98" fill="rgba(226, 235, 239, 0.65)"></circle><circle r="5" cx="687.41" cy="806.58" fill="rgba(226, 235, 239, 0.65)"></circle><circle r="5" cx="708.03" cy="908.62" fill="rgba(226, 235, 239, 0.65)"></circle><circle r="5" cx="678.97" cy="1032.67" fill="rgba(226, 235, 239, 0.65)"></circle><circle r="5" cx="822.25" cy="-70.97" fill="rgba(226, 235, 239, 0.65)"></circle><circle r="5" cx="786.17" cy="85.34" fill="rgba(226, 235, 239, 0.65)"></circle><circle r="5" cx="807.66" cy="213.76" fill="rgba(226, 235, 239, 0.65)"></circle><circle r="5" cx="842.97" cy="699.07" fill="rgba(226, 235, 239, 0.65)"></circle><circle r="5" cx="830.12" cy="931.76" fill="rgba(226, 235, 239, 0.65)"></circle><circle r="5" cx="800.19" cy="1035.91" fill="rgba(226, 235, 239, 0.65)"></circle><circle r="5" cx="917.93" cy="-44.06" fill="rgba(226, 235, 239, 0.65)"></circle><circle r="5" cx="914.39" cy="73.17" fill="rgba(226, 235, 239, 0.65)"></circle><circle r="5" cx="912.2" cy="171.88" fill="rgba(226, 235, 239, 0.65)"></circle><circle r="5" cx="960.02" cy="335.12" fill="rgba(226, 235, 239, 0.65)"></circle><circle r="5" cx="944.97" cy="452.13" fill="rgba(226, 235, 239, 0.65)"></circle><circle r="5" cx="911.45" cy="542.17" fill="rgba(226, 235, 239, 0.65)"></circle><circle r="5" cx="960.48" cy="662.67" fill="rgba(226, 235, 239, 0.65)"></circle><circle r="5" cx="925.13" cy="801.84" fill="rgba(226, 235, 239, 0.65)"></circle></g><defs><mask id="SvgjsMask1059"><rect width="800" height="1000" fill="#ffffff"></rect></mask><radialGradient id="SvgjsRadialGradient1060"><stop stop-color="#ffffff" offset="0.1"></stop><stop stop-color="rgba(61, 123, 147, 0.3)" offset="0.2"></stop><stop stop-color="rgba(61, 123, 147, 0)" offset="1"></stop></radialGradient></defs></svg>