<?xml version="1.0" encoding="UTF-8"?>
<!-- Generator: Adobe Illustrator 24.0.1, SVG Export Plug-In . SVG Version: 6.00 Build 0)  -->
<svg version="1.1" id="Camada_1" xmlns="http://www.w3.org/2000/svg" xmlns:xlink="http://www.w3.org/1999/xlink" x="0px" y="0px" viewBox="0 0 15.8 12.1" style="enable-background:new 0 0 15.8 12.1;" xml:space="preserve">
<style type="text/css">
	.st0{fill-rule:evenodd;clip-rule:evenodd;fill:#214654;}
</style>
<title>check</title>
<g id="Camada_2_1_">
	<g id="Camada_1-2">
		<path class="st0" d="M0.2,6.7C0.1,6.6,0,6.4,0,6.3c0-0.2,0.1-0.3,0.2-0.4L1,5c0.2-0.2,0.6-0.2,0.8,0c0,0,0,0,0,0h0.1l3.3,3.6    c0.1,0.1,0.3,0.1,0.4,0c0,0,0,0,0,0l8.1-8.4h0.1c0.2-0.2,0.6-0.2,0.8,0c0,0,0,0,0,0L15.6,1c0.2,0.2,0.2,0.6,0,0.8c0,0,0,0,0,0    L5.9,12c-0.1,0.1-0.3,0.2-0.4,0.2c-0.2,0-0.3,0-0.5-0.2L0.3,6.9L0.2,6.7z"/>
	</g>
</g>
</svg>