<svg xmlns="http://www.w3.org/2000/svg" viewBox="0 0 115.46 115.46"><defs><style>.cls-1{fill:#fff;}</style></defs><title>do</title><g id="Camada_2" data-name="Camada 2"><g id="Layer_1" data-name="Layer 1"><path class="cls-1" d="M111.26,0H88.13V26.24A14.05,14.05,0,0,1,84.86,54l-.65,0H84l-.43,0-.25,0-.4,0-.24,0-.57-.11-.3-.06-.3-.07-.32-.08-.29-.09-.3-.09-.36-.12L79.87,53l-.41-.16-.21-.09-.39-.18-.17-.08-.47-.24-.07,0a13.92,13.92,0,0,1-1.47-.92A14,14,0,1,1,65.24,26.24V0H4.2A4.2,4.2,0,0,0,0,4.2V111.26a4.2,4.2,0,0,0,4.2,4.2h61V89.22A14.05,14.05,0,0,1,68.51,61.5l.65,0h.21l.43,0,.25,0,.4,0,.25,0,.56.1.3.07.31.07.31.08.29.08.3.09.39.13.32.12.42.17.21.09.39.18.17.08.49.25.06,0a14.78,14.78,0,0,1,1.46.91,14.05,14.05,0,1,1,11.45,25.1v26.24h23.13a4.2,4.2,0,0,0,4.2-4.2V4.2A4.2,4.2,0,0,0,111.26,0ZM18.2,14.93H37.48a3.27,3.27,0,1,1,0,6.54H18.2a3.27,3.27,0,0,1,0-6.54ZM37.48,98.48H18.2a3.28,3.28,0,0,1,0-6.55H37.48a3.28,3.28,0,0,1,0,6.55ZM14.93,46.2a3.27,3.27,0,0,1,3.27-3.27H30.48a3.28,3.28,0,0,1,0,6.55H18.2A3.27,3.27,0,0,1,14.93,46.2ZM44.48,35.47H18.2a3.27,3.27,0,0,1,0-6.54H44.48a3.27,3.27,0,1,1,0,6.54Z"/><path class="cls-1" d="M61,39.9a7.51,7.51,0,0,0,11.37,6.44A14,14,0,0,1,70.8,39.9a3.28,3.28,0,0,1,6.55,0,7.5,7.5,0,0,0,2.17,5.28l.07.06a5,5,0,0,0,.48.44l0,0c.17.14.35.27.54.4h0l.55.34.1.05c.17.1.36.18.54.27l.14.05a5.37,5.37,0,0,0,.56.21l.15,0,.59.16.12,0c.22,0,.43.08.65.1h.07a5.58,5.58,0,0,0,.72,0,7.51,7.51,0,0,0,0-15,3.28,3.28,0,0,1-3.28-3.28V0h-9.8V29.12a3.27,3.27,0,0,1-3.27,3.28A7.52,7.52,0,0,0,61,39.9Z"/><path class="cls-1" d="M92.36,75.55A7.51,7.51,0,0,0,81,69.12a13.92,13.92,0,0,1,1.57,6.43,3.27,3.27,0,1,1-6.54,0,7.48,7.48,0,0,0-2.18-5.27l-.06-.07c-.16-.15-.32-.3-.49-.44l0,0c-.17-.14-.35-.27-.54-.4h0c-.18-.12-.37-.23-.56-.34l-.09,0a5.6,5.6,0,0,0-.55-.27l-.14-.06-.56-.2-.14,0c-.2,0-.39-.11-.59-.15l-.13,0c-.21,0-.43-.08-.64-.1h-.07q-.36,0-.72,0a7.51,7.51,0,1,0,0,15,3.27,3.27,0,0,1,3.27,3.27v29.13h9.8V86.33a3.28,3.28,0,0,1,3.28-3.27A7.51,7.51,0,0,0,92.36,75.55Z"/></g></g></svg>