<?xml version="1.0" encoding="UTF-8"?>
<!-- Generator: Adobe Illustrator 24.0.1, SVG Export Plug-In . SVG Version: 6.00 Build 0)  -->
<svg version="1.1" id="Camada_1" xmlns="http://www.w3.org/2000/svg" xmlns:xlink="http://www.w3.org/1999/xlink" x="0px" y="0px" viewBox="0 0 163.8 155.9" style="enable-background:new 0 0 163.8 155.9;" xml:space="preserve">
<style type="text/css">
	.st0{fill:#FFFFFF;}
</style>
<title>mvv-graph</title>
<g id="Camada_2_1_">
	<g id="Layer_1">
		<path class="st0" d="M24.4,135.9h21c2.9,0,5.3-2.7,5.3-6.1v-62c0-3.4-2.3-6.1-5.3-6.1h-21c-2.9,0-5.3,2.7-5.3,6.1v62    C19.2,133.2,21.5,135.9,24.4,135.9z"/>
		<path class="st0" d="M70,135.9h21c3-0.1,5.3-2.5,5.3-5.5V53c0.1-3-2.3-5.4-5.3-5.5H70c-3,0.1-5.3,2.5-5.2,5.5v77.4    C64.7,133.4,67,135.8,70,135.9z"/>
		<path class="st0" d="M99.4,39.8h10.9v90.5c-0.1,3,2.3,5.5,5.2,5.5c0,0,0,0,0,0H137c3-0.1,5.3-2.6,5.3-5.5c0,0,0,0,0,0V39.8h11    c0.3,0,0.6-0.3,0.6-0.6c0-0.1,0-0.2-0.1-0.3L127.4,0.3c-0.2-0.3-0.6-0.4-0.9-0.2c-0.1,0-0.1,0.1-0.2,0.2L98.9,38.9    c-0.2,0.3-0.1,0.6,0.1,0.8C99.2,39.8,99.3,39.8,99.4,39.8z"/>
		<path class="st0" d="M3.5,143.9h156.9c1.9,0,3.5,1.5,3.5,3.5v5c0,1.9-1.5,3.5-3.5,3.5H3.5c-1.9,0-3.5-1.5-3.5-3.5v-5    C0,145.5,1.5,143.9,3.5,143.9z"/>
	</g>
</g>
</svg>