<?xml version="1.0" encoding="UTF-8"?>
<!-- Generator: Adobe Illustrator 24.0.1, SVG Export Plug-In . SVG Version: 6.00 Build 0)  -->
<svg version="1.1" id="Camada_1" xmlns="http://www.w3.org/2000/svg" xmlns:xlink="http://www.w3.org/1999/xlink" x="0px" y="0px" viewBox="0 0 15.8 15.8" style="enable-background:new 0 0 15.8 15.8;" xml:space="preserve">
<style type="text/css">
	.st0{fill-rule:evenodd;clip-rule:evenodd;fill:#214654;}
</style>
<title>horario</title>
<g id="Camada_2_1_">
	<g id="Camada_1-2">
		<path class="st0" d="M7.9,0C3.5,0,0,3.5,0,7.9s3.5,7.9,7.9,7.9c4.4,0,7.9-3.5,7.9-7.9c0,0,0,0,0,0C15.8,3.5,12.2,0,7.9,0z     M7.9,14.2c-3.5,0-6.3-2.8-6.3-6.3s2.8-6.3,6.3-6.3s6.3,2.8,6.3,6.3l0,0C14.2,11.4,11.4,14.2,7.9,14.2z"/>
		<polygon class="st0" points="11.5,10.4 10.9,11.4 6.9,9.1 6.9,9 6.9,4.4 8.1,4.4 8.1,8.4   "/>
	</g>
</g>
</svg>