<?xml version="1.0" encoding="utf-8"?>
<!-- Generator: Adobe Illustrator 24.0.1, SVG Export Plug-In . SVG Version: 6.00 Build 0)  -->
<svg version="1.1" id="Camada_1" xmlns="http://www.w3.org/2000/svg" xmlns:xlink="http://www.w3.org/1999/xlink" x="0px" y="0px"
	 viewBox="0 0 52.6 52.7" style="enable-background:new 0 0 52.6 52.7;" xml:space="preserve">
<style type="text/css">
	.st0{fill:#FFFFFF;}
</style>
<title>linkedin</title>
<g id="Camada_2_1_">
	<g id="Layer_1">
		<rect x="1" y="17.5" class="st0" width="10.9" height="35.1"/>
		<path class="st0" d="M6.4,13c3.6,0,6.5-2.8,6.5-6.4C13,3,10.1,0.1,6.5,0S0,2.9,0,6.5l0,0C0,10,2.8,13,6.4,13L6.4,13z"/>
		<path class="st0" d="M29.3,34.2c0-4.9,2.3-7.9,6.6-7.9c4,0,5.9,2.8,5.9,7.9v18.4h10.8V30.4c0-9.4-5.3-14-12.8-14
			c-4.3-0.1-8.3,2.1-10.6,5.8v-4.7H18.9v35.1h10.4V34.2z"/>
	</g>
</g>
</svg>
