<?xml version="1.0" encoding="UTF-8"?>
<!-- Generator: Adobe Illustrator 24.0.1, SVG Export Plug-In . SVG Version: 6.00 Build 0)  -->
<svg version="1.1" id="Camada_1" xmlns="http://www.w3.org/2000/svg" xmlns:xlink="http://www.w3.org/1999/xlink" x="0px" y="0px" viewBox="0 0 15.8 19.4" style="enable-background:new 0 0 15.8 19.4;" xml:space="preserve">
<style type="text/css">
	.st0{fill-rule:evenodd;clip-rule:evenodd;fill:#214654;}
</style>
<title>list_checked</title>
<g id="Camada_2_1_">
	<g id="Camada_1-2">
		<path class="st0" d="M4.4,13.4l-1,1.1c-0.1,0.1-0.1,0.1-0.2,0.1c-0.1,0-0.1,0-0.2-0.1L2.5,14c-0.1-0.1-0.1-0.3,0-0.4    c0.1-0.1,0.2-0.1,0.3,0c0,0,0,0,0,0L3.3,14l0.9-1c0.1-0.1,0.3-0.1,0.4,0C4.6,13.1,4.6,13.3,4.4,13.4C4.5,13.4,4.5,13.4,4.4,13.4     M4.5,11l-1,1.1c-0.1,0.1-0.1,0.1-0.2,0.1c-0.1,0-0.1,0-0.2-0.1l-0.6-0.5c-0.1-0.1-0.1-0.3,0-0.4c0.1-0.1,0.2-0.1,0.3,0    c0,0,0,0,0,0l0.5,0.4l0.9-1c0.1-0.1,0.3-0.1,0.4,0C4.6,10.8,4.6,10.9,4.5,11L4.5,11z M4.5,8.6l-1,1.1c0,0.1-0.1,0.1-0.2,0.1    c-0.1,0-0.1,0-0.2-0.1L2.5,9.3C2.4,9.2,2.4,9,2.5,8.9c0.1-0.1,0.3-0.1,0.3,0l0.5,0.4l0.9-1c0.1-0.1,0.3-0.1,0.4,0c0,0,0,0,0,0    C4.5,8.4,4.5,8.5,4.5,8.6L4.5,8.6z M4.5,6.2l-1,1.2c0,0.1-0.1,0.1-0.2,0.1c-0.1,0-0.1,0-0.2-0.1L2.5,6.8c-0.1-0.1-0.1-0.3,0-0.4    c0.1-0.1,0.2-0.1,0.3,0c0,0,0,0,0,0l0.5,0.4l0.9-1c0.1-0.1,0.3-0.1,0.4,0C4.6,5.9,4.6,6.1,4.5,6.2L4.5,6.2z M7.8,14.4H5.3    c-0.1,0-0.3-0.1-0.3-0.3v-0.3c0-0.2,0.1-0.3,0.3-0.3h2.5c0.2,0,0.3,0.1,0.3,0.3v0.3C8,14.3,7.9,14.4,7.8,14.4L7.8,14.4L7.8,14.4z     M8.3,11.9h-3c-0.2,0-0.3-0.1-0.3-0.3c0,0,0,0,0,0v-0.3c0-0.2,0.1-0.3,0.3-0.3h3c0.1,0,0.3,0.1,0.3,0.3c0,0,0,0,0,0v0.3    C8.6,11.8,8.4,11.9,8.3,11.9C8.3,11.9,8.3,11.9,8.3,11.9z M9.7,7.2H5.3C5.1,7.2,5,7.1,5,6.9V6.6c0-0.2,0.1-0.3,0.3-0.3h4.4    c0.1,0,0.3,0.1,0.3,0.3v0v0.3C10,7.1,9.8,7.2,9.7,7.2z M9.7,9.7H5.3C5.1,9.7,5,9.6,5,9.4V9.1C5,9,5.1,8.9,5.3,8.9h4.4    C9.8,8.9,10,9,10,9.1v0v0.3C10,9.6,9.8,9.7,9.7,9.7z M14.5,15l-2.2,2.5c-0.1,0.1-0.3,0.2-0.4,0.2c-0.1,0-0.2,0-0.4-0.1l-1.4-1.1    c-0.2-0.2-0.3-0.5-0.1-0.8c0,0,0,0,0,0c0.2-0.2,0.5-0.3,0.8-0.1l1,0.8l1.9-2.1c0.2-0.2,0.5-0.3,0.8-0.1c0,0,0,0,0,0    C14.7,14.4,14.7,14.8,14.5,15z M12.2,12.1c-2,0-3.6,1.6-3.6,3.6s1.6,3.6,3.6,3.6s3.6-1.6,3.6-3.6C15.8,13.8,14.2,12.2,12.2,12.1    L12.2,12.1z M8.1,17.4h-7c-0.6,0-1.1-0.5-1.1-1.1V3c0-0.5,0.3-1,0.8-1.1h2.2c0,0.1,0,0.2,0,0.3c0,0.8,0.6,1.4,1.3,1.4c0,0,0,0,0,0    H8c0.8,0,1.4-0.6,1.4-1.3c0,0,0,0,0,0c0-0.1,0-0.2,0-0.3h1.7c0.9,0,1.4,0.5,1.4,1.1v8.3h-0.3c-0.4,0-0.7,0-1.1,0.1V5H1.4v11h6.4    C7.8,16.5,7.9,17,8.1,17.4L8.1,17.4z M6.2,1.4C6,1.4,5.8,1.2,5.8,1c0-0.2,0.2-0.4,0.4-0.4c0,0,0,0,0,0c0.2,0,0.4,0.2,0.4,0.4    c0,0,0,0,0,0C6.6,1.2,6.4,1.4,6.2,1.4z M8,1.4H7.6C7.4,1.4,7.2,1.2,7.2,1l0,0c0-0.6-0.4-1-1-1l0,0c-0.6,0-1,0.4-1,1l0,0    c0,0.2-0.2,0.4-0.4,0.4H4.4C4,1.4,3.6,1.8,3.6,2.2l0,0C3.6,2.7,4,3,4.4,3H8c0.5,0,0.8-0.4,0.8-0.8c0,0,0,0,0,0l0,0    C8.8,1.7,8.4,1.4,8,1.4L8,1.4z"/>
	</g>
</g>
</svg>