<?xml version="1.0" encoding="utf-8"?>
<!-- Generator: Adobe Illustrator 24.0.1, SVG Export Plug-In . SVG Version: 6.00 Build 0)  -->
<svg version="1.1" id="Camada_1" xmlns="http://www.w3.org/2000/svg" xmlns:xlink="http://www.w3.org/1999/xlink" x="0px" y="0px"
	 viewBox="0 0 52 52" style="enable-background:new 0 0 52 52;" xml:space="preserve">
<style type="text/css">
	.st0{fill:#214654;}
</style>
<title>phone-icon</title>
<g id="Camada_2_1_">
	<g id="Layer_1">
		<path class="st0" d="M26,52C11.6,52,0,40.4,0,26S11.6,0,26,0s26,11.6,26,26S40.4,52,26,52z M26,2.9c-12.7,0-23.1,10.3-23.1,23
			c0,12.7,10.3,23.1,23,23.1C38.7,49.1,49,38.8,49,26c0,0,0,0,0,0C49.1,13.3,38.7,2.9,26,2.9z"/>
		<path class="st0" d="M40,19.2c0-2.8-2.2-5-5-5H16.9c-2.8,0-5,2.2-5,5v5h4.5v13.5h19V24.2H40V19.2z M34.6,36.8H17.4V24.2h3.2v-4.5
			h10.7v4.5h3.2V36.8z M39.1,23.3h-6.9v-4.5H19.7v4.5h-6.8v-4.1c0-2.2,1.8-4.1,4.1-4.1l0,0H35c2.2,0,4.1,1.8,4.1,4.1L39.1,23.3z"/>
		<path class="st0" d="M35.9,38.2H16V24.6h-4.5v-5.4c0-3,2.4-5.4,5.4-5.4H35c3,0,5.4,2.4,5.4,5.4v5.4h-4.5V38.2z M16.9,37.3H35V23.7
			h4.5v-4.5c0-2.5-2-4.5-4.5-4.5H16.9c-2.5,0-4.5,2-4.5,4.5l0,0v4.5h4.5L16.9,37.3z M35,37.3H17V23.7h3.2v-4.5h11.5v4.5H35L35,37.3z
			 M17.8,36.4h16.3V24.6h-3.2v-4.5h-9.8v4.5h-3.2L17.8,36.4z M39.5,23.7h-7.7v-4.5H20.2v4.5h-7.7v-4.5c0-2.5,2-4.5,4.5-4.5H35
			c2.5,0,4.5,2,4.5,4.5L39.5,23.7z M32.7,22.8h6v-3.6c0-2-1.6-3.6-3.6-3.6c0,0,0,0,0,0H16.9c-2,0-3.6,1.6-3.6,3.6v3.6h6v-4.5h13.4
			L32.7,22.8z"/>
		<path class="st0" d="M26,23.3c-2.8,0-5,2.2-5,5s2.2,5,5,5s5-2.2,5-5S28.8,23.3,26,23.3z M26,32.3c-2.2,0-4.1-1.8-4.1-4
			c0-2.2,1.8-4.1,4-4.1c2.2,0,4.1,1.8,4.1,4c0,0,0,0.1,0,0.1C30,30.5,28.2,32.3,26,32.3L26,32.3z"/>
		<path class="st0" d="M26,33.6c-3,0-5.4-2.4-5.4-5.4s2.4-5.4,5.4-5.4s5.4,2.4,5.4,5.4c0,0,0,0,0,0C31.4,31.2,29,33.6,26,33.6z
			 M26,23.7c-2.5,0-4.5,2-4.5,4.5s2,4.5,4.5,4.5s4.5-2,4.5-4.5C30.5,25.7,28.5,23.7,26,23.7z M26,32.7c-2.5,0-4.5-2-4.5-4.5
			c0-2.5,2-4.5,4.5-4.5c2.5,0,4.5,2,4.5,4.5c0,0,0,0,0,0C30.5,30.7,28.5,32.7,26,32.7L26,32.7z M26,24.6c-2,0-3.6,1.6-3.6,3.6
			s1.6,3.6,3.6,3.6s3.6-1.6,3.6-3.6C29.6,26.2,28,24.6,26,24.6L26,24.6z"/>
	</g>
</g>
</svg>
