<?xml version="1.0" encoding="UTF-8"?>
<!-- Generator: Adobe Illustrator 24.0.1, SVG Export Plug-In . SVG Version: 6.00 Build 0)  -->
<svg version="1.1" id="Camada_1" xmlns="http://www.w3.org/2000/svg" xmlns:xlink="http://www.w3.org/1999/xlink" x="0px" y="0px" viewBox="0 0 15.8 19.5" style="enable-background:new 0 0 15.8 19.5;" xml:space="preserve">
<style type="text/css">
	.st0{fill-rule:evenodd;clip-rule:evenodd;fill:#214654;}
</style>
<title>pin</title>
<g id="Camada_2_1_">
	<g id="Camada_1-2">
		<path class="st0" d="M14,10.2c-0.2,0.5-0.5,1-0.9,1.5l0,0l-5.2,6.1l-5.2-6.1c-0.4-0.4-0.7-0.9-0.9-1.5c-0.8-2-0.5-4.2,0.8-6    c1.2-1.8,3.2-2.8,5.3-2.8c2.1,0,4.1,1,5.3,2.8C14.5,5.9,14.8,8.2,14,10.2 M14.4,3.4C12.9,1.3,10.5,0,7.9,0c-2.6,0-5,1.3-6.5,3.4    c-1.5,2.1-1.8,4.8-0.9,7.3c0.3,0.7,0.6,1.3,1.1,1.9l5.7,6.7c0.3,0.3,0.7,0.3,1,0c0,0,0,0,0,0l5.7-6.7c0.5-0.6,0.9-1.2,1.1-1.9    C16.2,8.2,15.8,5.5,14.4,3.4z"/>
		<path class="st0" d="M7.9,10.3c-1.4,0-2.5-1.1-2.5-2.4s1.1-2.5,2.4-2.5s2.5,1.1,2.5,2.4c0,0,0,0,0,0C10.3,9.2,9.2,10.3,7.9,10.3     M7.9,4C5.8,4,4.1,5.7,4.1,7.8s1.7,3.8,3.8,3.8s3.8-1.7,3.8-3.8v0C11.7,5.7,10,4,7.9,4z"/>
	</g>
</g>
</svg>