<?xml version="1.0" encoding="utf-8"?>
<!-- Generator: Adobe Illustrator 24.0.1, SVG Export Plug-In . SVG Version: 6.00 Build 0)  -->
<svg version="1.1" id="Camada_1" xmlns="http://www.w3.org/2000/svg" xmlns:xlink="http://www.w3.org/1999/xlink" x="0px" y="0px"
	 viewBox="0 0 54.8 54.8" style="enable-background:new 0 0 54.8 54.8;" xml:space="preserve">
<style type="text/css">
	.st0{fill:none;stroke:#214654;stroke-width:4.4;stroke-linecap:round;stroke-linejoin:round;}
	.st1{fill:#214654;}
</style>
<title>Ativo 2</title>
<g id="Layer_1">
	<path class="st0" d="M7.8,7.8c7.5-7.5,19.6-7.5,27.1,0c0,0,0,0,0,0c7.5,7.5,7.5,19.6,0,27.1c0,0,0,0,0,0c-7.5,7.5-19.6,7.5-27.1,0
		c0,0,0,0,0,0C0.3,27.5,0.3,15.3,7.8,7.8C7.8,7.8,7.8,7.8,7.8,7.8z"/>
	<path class="st1" d="M41.5,36.6l10.1,10.1c1.4,1.4,1.4,3.6,0,5c0,0,0,0,0,0c-1.4,1.4-3.6,1.4-5,0c0,0,0,0,0,0L36.5,41.6
		c-1.4-1.4-1.4-3.6,0-5C37.9,35.2,40.2,35.2,41.5,36.6"/>
	<path class="st0" d="M41.5,36.6l10.1,10.1c1.4,1.4,1.4,3.6,0,5c0,0,0,0,0,0c-1.4,1.4-3.6,1.4-5,0c0,0,0,0,0,0L36.5,41.6
		c-1.4-1.4-1.4-3.6,0-5C37.9,35.2,40.2,35.2,41.5,36.6C41.5,36.6,41.5,36.6,41.5,36.6z"/>
</g>
</svg>
