<?xml version="1.0" encoding="UTF-8"?>
<!-- Generator: Adobe Illustrator 24.0.1, SVG Export Plug-In . SVG Version: 6.00 Build 0)  -->
<svg version="1.1" id="Camada_1" xmlns="http://www.w3.org/2000/svg" xmlns:xlink="http://www.w3.org/1999/xlink" x="0px" y="0px" viewBox="0 0 159.2 152.6" style="enable-background:new 0 0 159.2 152.6;" xml:space="preserve">
<style type="text/css">
	.st0{fill:#FFFFFF;}
</style>
<title>mvv-star</title>
<g id="Camada_2_1_">
	<g id="Layer_1">
		<path class="st0" d="M158.8,57.7c-1-3.2-3.9-5.5-7.3-5.8l-46-4.2L87.4,5.1c-1.8-4.3-6.8-6.3-11.1-4.5c-2,0.9-3.6,2.5-4.5,4.5    L53.7,47.7l-46,4.2C3,52.3-0.4,56.4,0,61.1c0.2,2.2,1.2,4.1,2.9,5.6l34.7,30.5l-10.3,45.1c-1.1,4.6,1.8,9.1,6.3,10.1    c2.1,0.5,4.4,0.1,6.3-1l39.6-23.7l39.6,23.7c4,2.4,9.2,1.1,11.6-2.9c1.1-1.9,1.5-4.1,1-6.2l-10.3-45.1l34.8-30.5    C158.9,64.4,159.9,60.9,158.8,57.7z M114.4,90.2c-2.3,2-3.4,5.2-2.7,8.3l9.7,42.6L84,118.7c-2.7-1.6-6-1.6-8.7,0l-37.5,22.4    l9.7-42.6c0.7-3-0.3-6.2-2.7-8.3L12.1,61.5l43.4-3.9c3.1-0.3,5.8-2.2,7-5.1l17.2-40.2l17.1,40.1c1.2,2.9,3.9,4.8,7,5.1l43.4,3.9    L114.4,90.2z"/>
	</g>
</g>
</svg>