<?xml version="1.0" encoding="UTF-8"?>
<!-- Generator: Adobe Illustrator 24.0.1, SVG Export Plug-In . SVG Version: 6.00 Build 0)  -->
<svg version="1.1" id="Camada_1" xmlns="http://www.w3.org/2000/svg" xmlns:xlink="http://www.w3.org/1999/xlink" x="0px" y="0px" viewBox="0 0 164.8 164.8" style="enable-background:new 0 0 164.8 164.8;" xml:space="preserve">
<style type="text/css">
	.st0{fill:#FFFFFF;stroke:#FFFFFF;stroke-miterlimit:10;}
</style>
<title>mvv-target</title>
<g id="Camada_2_1_">
	<g id="Layer_1">
		<path class="st0" d="M100.6,36.9c-15.7,0-30.8,5.8-42.5,16.3L46.7,41.6l1.2-18.5c0.1-1-0.3-2-1-2.7L27.9,1.5c-0.7-0.6-1.6-1-2.5-1    c-0.4,0-0.8,0.1-1.2,0.2c-1.3,0.5-2.1,1.7-2.2,3l-1.1,17.1L3.8,22c-1.9,0.1-3.4,1.8-3.3,3.7c0.1,0.9,0.4,1.7,1,2.3l18.9,18.8    c0.7,0.7,1.7,1.1,2.7,1l18.6-1.2l11.4,11.5c-23.4,26.2-21.2,66.5,5,89.9s66.5,21.2,89.9-5s21.2-66.5-5-89.9    C131.4,42.6,116.3,36.9,100.6,36.9z M155.7,114c-1.3,5.3-3.4,10.4-6.1,15.2c-0.7,1.3-1.5,2.5-2.4,3.7s-1.9,2.6-2.9,3.8    s-2,2.3-3,3.4s-2.3,2.2-3.5,3.3s-2.4,2-3.6,2.9s-2.8,1.9-4.2,2.8c-0.9,0.6-1.9,1.1-2.9,1.6c-5,2.6-10.3,4.5-15.9,5.6    c-1.3,0.2-2.6,0.4-3.8,0.6c-2.2,0.3-4.5,0.4-6.7,0.4c-0.7,0-1.4,0-2.1,0c-1.5-0.1-2.9-0.2-4.4-0.3c-5.4-0.6-10.8-2-15.8-4.2    c-1.4-0.6-2.7-1.2-4.1-1.9c-10.1-5.3-18.3-13.5-23.7-23.6c-0.7-1.3-1.4-2.7-2-4c-2.2-5.1-3.6-10.4-4.3-15.9    c-0.2-1.5-0.3-2.9-0.3-4.4c0-0.7,0-1.5,0-2.2c0-2.2,0.1-4.4,0.4-6.5c0.2-1.3,0.4-2.7,0.6-4c1-5.4,2.9-10.7,5.4-15.6    c0.6-1.1,1.2-2.2,1.8-3.3c0.9-1.4,1.8-2.8,2.8-4.1s1.9-2.4,2.9-3.6l0.3-0.4l7.7,7.7l-0.4,0.5c-0.8,1-1.6,2-2.4,3.1    c-3.2,4.6-5.6,9.7-6.9,15.2c-0.3,1.4-0.6,2.8-0.8,4.2c-0.3,2.2-0.5,4.5-0.5,6.8c0,1,0,2,0.1,2.9c0.1,1.2,0.2,2.3,0.3,3.5    c0.4,3.1,1.2,6.2,2.3,9.1c0.4,1.1,0.8,2.1,1.3,3.1c0.7,1.6,1.5,3.2,2.4,4.7c0.7,1.1,1.4,2.3,2.2,3.3c1.3,1.8,2.7,3.5,4.3,5.1    c0.4,0.4,0.9,0.9,1.3,1.3c1.6,1.6,3.4,3,5.2,4.3c1.1,0.8,2.2,1.5,3.4,2.2c1.5,0.9,3,1.7,4.6,2.4c1,0.4,2,0.8,3,1.2    c2.9,1.1,6,1.8,9.1,2.2c1.2,0.2,2.4,0.3,3.7,0.4c0.9,0,1.8,0.1,2.7,0.1c2.3,0,4.5-0.2,6.8-0.5c1.5-0.2,2.9-0.5,4.3-0.9    c5.5-1.4,10.6-3.7,15.2-7c1-0.7,1.9-1.4,2.8-2.2c1.3-1.1,2.6-2.3,3.9-3.6c0.9-1,1.9-2,2.7-3.1c9.6-11.9,12.5-27.9,7.9-42.4    c-0.4-1.3-0.9-2.5-1.4-3.7c-4.7-11.1-13.5-20-24.6-24.7c-1.2-0.5-2.3-0.9-3.5-1.3c-14.6-4.8-30.7-1.9-42.7,7.7l-1.2,1l-2.3-2.3    l-3.4-3.3l-2.1-2.1c0.4-0.4,0.9-0.8,1.3-1.2c1.2-1,2.5-2,3.8-2.9s2.5-1.7,3.8-2.4c4.8-2.8,9.9-4.9,15.3-6.2    c1.4-0.3,2.8-0.6,4.3-0.8c3-0.5,6-0.7,9-0.7h0.9c1,0,2,0,2.9,0.1c3.2,0.2,6.3,0.7,9.4,1.4c1.5,0.3,2.9,0.8,4.4,1.2    c17.3,5.7,30.8,19.3,36.4,36.6c0.5,1.4,0.9,2.9,1.2,4.3c0.7,3,1.2,6.1,1.4,9.2c0.1,1.1,0.1,2.2,0.1,3.3c0,0.2,0,0.3,0,0.5    c0,3-0.2,6-0.7,9C156.3,111.1,156,112.6,155.7,114z M100.6,127.1c14.7,0,26.6-11.9,26.6-26.5S115.4,74,100.7,74    c-5.9,0-11.6,1.9-16.2,5.5l-8.7-8.7c16.5-13.7,40.9-11.5,54.6,5s11.5,40.9-5,54.6s-40.9,11.5-54.6-5c-12-14.4-12-35.3,0-49.6    l8.7,8.7c-8.9,11.6-6.7,28.3,4.9,37.2C89.1,125.2,94.7,127.2,100.6,127.1L100.6,127.1z M100.6,110.1h0.6c0.9-0.1,1.7-0.2,2.6-0.5    c1.6-0.6,3-1.5,4.1-2.8c1-1.2,1.7-2.5,2-4c0.2-0.7,0.3-1.5,0.3-2.2c0.1-5.3-4.2-9.6-9.4-9.6c0,0,0,0-0.1,0c-0.7,0-1.4,0.1-2.1,0.2    c-0.6,0.1-1.1,0.3-1.7,0.6l-1.9-1.9l-3.3-3.4l-2.1-2c0.5-0.3,1-0.7,1.6-1c7.4-4.1,16.6-3,22.8,2.7c0.4,0.4,0.8,0.8,1.1,1.2    c5.7,6.2,6.7,15.3,2.7,22.7c-0.7,1.3-1.6,2.6-2.7,3.7c-2.1,2.3-4.8,4.1-7.8,5.2c-2.1,0.8-4.3,1.1-6.6,1.1c-0.9,0-1.8-0.1-2.7-0.2    c-8.5-1.2-15.3-7.9-16.6-16.4c-0.1-1-0.2-2-0.2-2.9c0-2.2,0.4-4.4,1.1-6.5c0.5-1.5,1.2-2.9,2.1-4.2l0.3-0.4l7.3,7.3    c-0.1,0.2-0.2,0.4-0.2,0.6c-0.3,1-0.5,2-0.6,3c0,0.1,0,0.2,0,0.3C91.1,105.8,95.3,110.1,100.6,110.1L100.6,110.1z"/>
	</g>
</g>
</svg>