<?xml version="1.0" encoding="UTF-8"?>
<!-- Generator: Adobe Illustrator 24.0.1, SVG Export Plug-In . SVG Version: 6.00 Build 0)  -->
<svg version="1.1" id="Camada_1" xmlns="http://www.w3.org/2000/svg" xmlns:xlink="http://www.w3.org/1999/xlink" x="0px" y="0px" viewBox="0 0 383.3 393.3" style="enable-background:new 0 0 383.3 393.3;" xml:space="preserve">
<style type="text/css">
	.st0{fill:#214654;}
</style>
<title>team</title>
<g id="Camada_2_1_">
	<g id="Camada_1-2">
		<path class="st0" d="M277.7,42.2c0-7.4-4.5-11.9-11.8-12.2c-14.8-0.6-25.9-7.5-32.7-20.7c-2.1-4-4.6-7.3-8.7-9.3h-65.9    c-4.3,1.9-6.7,5.5-8.9,9.6c-6.7,12.9-17.6,19.7-32.1,20.4c-7.8,0.4-12.1,4.7-12.2,12.6c0,21.3-0.1,42.5,0,63.7    c0.2,50.4,33,95,81.2,110.1c3.2,0.9,6.6,1,9.8,0.1c47.4-14.6,80.7-59.3,81.1-109C277.9,85.7,277.7,63.9,277.7,42.2z M234.3,89.3    c-0.6,2.5-1.8,4.9-3.6,6.8c-13.5,13.8-27.2,27.5-40.9,41.1c-5.5,5.5-11.9,5.4-17.4-0.1c-6.5-6.4-12.9-12.9-19.3-19.3    c-5.3-5.3-5.6-12.3-0.9-16.9s11.4-4.3,16.9,1.2c3.9,4,7.8,8,12.8,13.1c0.9-1.6,1.4-2.9,2.4-3.9c10.3-10.4,20.6-20.7,30.9-31    c4.1-4,9.1-4.8,13.7-2.4C233,79.8,235.3,84.6,234.3,89.3z"/>
		<path class="st0" d="M261.7,229.6l12.8,0.4l-0.3-4.2c-0.3-3.2,2.1-6.1,5.4-6.3c0.4,0,0.8,0,1.3,0c15.4,2.1,31.1,2.1,46.6,0    c3.2-0.4,6.2,1.8,6.6,5c0.1,0.4,0.1,0.8,0,1.3l-0.3,4.2l12.7-0.4c0.5,0,0.9,0,1.4,0.1c0.5-2.6,0.7-5.1,0.7-7.7    c0-24.5-19.8-44.5-44.4-44.5c-24.5,0-44.5,19.8-44.5,44.4c0,2.6,0.2,5.3,0.7,7.9C260.8,229.6,261.3,229.6,261.7,229.6z"/>
		<path class="st0" d="M332.4,245.2c-0.2,2.8-2.4,5-5.1,5.4c-15.4,1.9-31.1,1.9-46.5,0c-2.8-0.3-4.9-2.6-5.1-5.4l-0.3-3.4l-11.3-0.4    c10.7,22.1,37.3,31.2,59.3,20.5c9-4.3,16.2-11.6,20.5-20.5l-11.3,0.4L332.4,245.2z"/>
		<path class="st0" d="M261.7,229.6l12.8,0.4l-0.3-4.2c-0.3-3.2,2.1-6.1,5.4-6.3c0.4,0,0.8,0,1.3,0c15.4,2.1,31.1,2.1,46.6,0    c3.2-0.4,6.2,1.8,6.6,5c0.1,0.4,0.1,0.8,0,1.3l-0.3,4.2l12.7-0.4c0.5,0,0.9,0,1.4,0.1c0.5-2.6,0.7-5.1,0.7-7.7    c0-24.5-19.8-44.5-44.4-44.5c-24.5,0-44.5,19.8-44.5,44.4c0,2.6,0.2,5.3,0.7,7.9C260.8,229.6,261.3,229.6,261.7,229.6z"/>
		<path class="st0" d="M332.4,245.2c-0.2,2.8-2.4,5-5.1,5.4c-15.4,1.9-31.1,1.9-46.5,0c-2.8-0.3-4.9-2.6-5.1-5.4l-0.3-3.4l-11.3-0.4    c10.7,22.1,37.3,31.2,59.3,20.5c9-4.3,16.2-11.6,20.5-20.5l-11.3,0.4L332.4,245.2z"/>
		<path class="st0" d="M379.6,322.9c-5.8-23.9-29.9-41.8-30.1-41.6c-0.6-0.3-1.1-0.7-1.7-1s-0.9-0.5-1.4-0.7    c-0.6-0.3-1.3-0.6-1.9-0.9l-1.3-0.6c-0.5-0.2-1.1-0.5-1.6-0.7l-0.1,0c-0.5-0.2-1-0.4-1.5-0.6s-1.1-0.4-1.7-0.6s-1.1-0.4-1.7-0.5    l0,0c-0.6-0.2-1.1-0.3-1.7-0.5l-1.5-0.4l-0.5-0.1c-1.1-0.2-2.1-0.4-3.2-0.5l-1.8-0.2l-1.8-0.2l-1.6-0.1h-0.4c-0.6,0-1.1,0-1.7,0    h-36.3c-0.5,0-1,0-1.6,0c-1.1,0-2.3,0.1-3.4,0.2l-0.8,0.1l-1,0.1c-0.8,0.1-1.6,0.2-2.4,0.4l-1.6,0.3c-0.7,0.1-1.3,0.3-2,0.5    l-1.3,0.3c-1.2,0.3-2.4,0.7-3.6,1.1c-0.5,0.2-1.1,0.4-1.6,0.6s-1.1,0.4-1.6,0.7s-1.1,0.5-1.6,0.7s-1.1,0.5-1.6,0.8l-0.1,0.1    c-0.5,0.2-0.9,0.5-1.4,0.7l-0.3,0.1c-0.4,0.2-0.8,0.4-1.2,0.7l-0.2,0.1c-2.8,1.7-5.4,3.6-7.9,5.7c-0.8,0.7-1.5,1.4-2.2,2l-0.6,0.6    c-0.3,0.3-0.7,0.7-1,1c-0.6,0.6-1.2,1.3-1.8,2c-0.4,0.5-0.8,1-1.2,1.4s-0.8,1-1.1,1.5s-0.6,0.9-1,1.4c0.1,0.2,0.3,0.4,0.4,0.6    c1.5,1.3,3,2.7,4.5,4c1.3,1.1,2.6,2.3,3.8,3.5c14.8,14.4,23.9,32,25.7,53.1c1,11.7,0.5,23.5,0.7,35.2h97.3    c3.6-1.7,6.5-4.6,8.2-8.3c0,0,1.3-36.1,0-48C382.2,332.2,380.8,327.5,379.6,322.9z"/>
		<path class="st0" d="M121.6,229.6l-12.7,0.4l0.3-4.2c0.3-3.2-2.2-6.1-5.4-6.3c-0.4,0-0.8,0-1.3,0c-15.4,2.1-31.1,2.1-46.6,0    c-3.2-0.4-6.2,1.8-6.6,5c-0.1,0.4-0.1,0.8,0,1.3l0.3,4.2l-12.8-0.4c-0.5,0-0.9,0-1.4,0.1c-4.2-24.2,11.9-47.2,36.1-51.4    s47.2,11.9,51.4,36.1c0.4,2.5,0.7,5.1,0.7,7.7c0,2.6-0.2,5.2-0.7,7.7C122.5,229.6,122,229.6,121.6,229.6z"/>
		<path class="st0" d="M50.8,245.2c0.2,2.8,2.4,5,5.2,5.4c15.4,1.9,31.1,1.9,46.5,0c2.8-0.3,4.9-2.6,5.1-5.4l0.3-3.4l11.3-0.4    c-10.7,22.1-37.3,31.2-59.3,20.5c-9-4.3-16.2-11.6-20.5-20.5l11.3,0.4L50.8,245.2z"/>
		<path class="st0" d="M121.6,229.6l-12.7,0.4l0.3-4.2c0.3-3.2-2.2-6.1-5.4-6.3c-0.4,0-0.8,0-1.3,0c-15.4,2.1-31.1,2.1-46.6,0    c-3.2-0.4-6.2,1.8-6.6,5c-0.1,0.4-0.1,0.8,0,1.3l0.3,4.2l-12.8-0.4c-0.5,0-0.9,0-1.4,0.1c-4.2-24.2,11.9-47.2,36.1-51.4    s47.2,11.9,51.4,36.1c0.4,2.5,0.7,5.1,0.7,7.7c0,2.6-0.2,5.2-0.7,7.7C122.5,229.6,122,229.6,121.6,229.6z"/>
		<path class="st0" d="M50.8,245.2c0.2,2.8,2.4,5,5.2,5.4c15.4,1.9,31.1,1.9,46.5,0c2.8-0.3,4.9-2.6,5.1-5.4l0.3-3.4l11.3-0.4    c-10.7,22.1-37.3,31.2-59.3,20.5c-9-4.3-16.2-11.6-20.5-20.5l11.3,0.4L50.8,245.2z"/>
		<path class="st0" d="M3.7,322.9c5.8-23.9,29.9-41.8,30.1-41.6c0.6-0.3,1.1-0.7,1.7-1s0.9-0.5,1.4-0.7c0.6-0.3,1.3-0.6,1.9-0.9    l1.3-0.6c0.5-0.2,1.1-0.5,1.6-0.7l0.1,0c0.5-0.2,1-0.4,1.5-0.6s1.1-0.4,1.7-0.6s1.1-0.4,1.7-0.5l0,0c0.6-0.2,1.2-0.3,1.7-0.5    l1.5-0.4l0.5-0.1c1.1-0.2,2.2-0.4,3.2-0.5l1.8-0.2l1.8-0.2l1.6-0.1h0.4c0.6,0,1.2,0,1.7,0h36.3c0.5,0,1,0,1.6,0    c1.1,0,2.3,0.1,3.4,0.2l0.8,0.1l1,0.1c0.8,0.1,1.6,0.2,2.3,0.4l1.6,0.3c0.7,0.1,1.3,0.3,2,0.5l1.3,0.3c1.2,0.3,2.4,0.7,3.6,1.1    c0.5,0.2,1.1,0.4,1.6,0.6s1.1,0.4,1.6,0.7s1.1,0.5,1.6,0.7s1.1,0.5,1.6,0.8l0.1,0.1c0.5,0.2,0.9,0.5,1.4,0.7l0.3,0.1    c0.4,0.2,0.8,0.4,1.2,0.7l0.2,0.1c2.8,1.7,5.4,3.6,7.9,5.7c0.8,0.7,1.5,1.4,2.2,2l0.6,0.6c0.3,0.3,0.7,0.7,1,1    c0.6,0.6,1.2,1.3,1.8,2c0.4,0.5,0.8,1,1.2,1.4s0.8,1,1.1,1.5s0.6,0.9,1,1.4c-0.1,0.2-0.3,0.4-0.4,0.6c-1.5,1.3-3,2.7-4.5,4    c-1.3,1.1-2.6,2.3-3.8,3.5c-14.9,14.5-23.9,32-25.8,53.1c-1,11.7-0.5,23.5-0.7,35.2H8.8c-3.6-1.7-6.5-4.7-8.2-8.3c0,0-1.3-36,0-48    C1.1,332.2,2.5,327.5,3.7,322.9z"/>
		<path class="st0" d="M253.2,366.4c0-11.2-3.1-22.2-9-31.8c-2-3.5-4.4-6.8-7.3-9.6l0,0c-0.5-0.5-1-1.1-1.5-1.6    c-1-1-2.1-1.9-3.2-2.9c-0.1,0.1-9.4-8.2-25.9-8.2h-29.6c-16.3,0-25.7,8.2-25.8,8.1c-1.3,1.2-2.5,2.4-3.7,3.6c-3,2.8-5.6,6-7.7,9.6    c-4.8,7.2-7.8,15.5-8.7,24.2c-1.1,11.4-0.6,23-0.9,34.4h123.2C253.3,383.5,253.3,374.9,253.2,366.4z"/>
		<path class="st0" d="M157.1,276.3l10.4,0.4l-0.3-3.4c-0.2-2.6,1.7-4.9,4.4-5.1c0.3,0,0.7,0,1,0c12.6,1.7,25.3,1.7,37.9,0    c2.6-0.4,5,1.5,5.4,4.1c0,0.3,0.1,0.7,0,1l-0.3,3.4l10.4-0.4c0.4,0,0.8,0,1.1,0.1c3.5-19.6-9.6-38.4-29.2-41.9    s-38.4,9.6-41.9,29.2c-0.8,4.2-0.8,8.5,0,12.7C156.4,276.3,156.8,276.3,157.1,276.3z"/>
		<path class="st0" d="M214.6,289c-0.2,2.3-1.9,4.1-4.2,4.4c-12.6,1.6-25.3,1.6-37.8,0c-2.2-0.3-4-2.1-4.2-4.4l-0.2-2.8l-9.2-0.3    c8.7,17.9,30.3,25.4,48.2,16.7c7.3-3.5,13.2-9.4,16.7-16.7l-9.2,0.3L214.6,289z"/>
	</g>
</g>
</svg>