<?xml version="1.0" encoding="UTF-8"?>
<!-- Generator: Adobe Illustrator 24.0.1, SVG Export Plug-In . SVG Version: 6.00 Build 0)  -->
<svg version="1.1" id="Camada_1" xmlns="http://www.w3.org/2000/svg" xmlns:xlink="http://www.w3.org/1999/xlink" x="0px" y="0px" viewBox="0 0 209.6 265.4" style="enable-background:new 0 0 209.6 265.4;" xml:space="preserve">
<style type="text/css">
	.st0{fill:none;}
	.st1{fill:#214654;}
</style>
<title>como</title>
<g id="Camada_2_1_">
	<g id="Layer_1">
		<path class="st0" d="M156.4,43.8c0,5.5-4.5,10-10,10H63.3c-5.5,0-10-4.5-10-10v-6.9H20v208.5h169.6V36.9h-33.3V43.8z M163.3,138.4    c5.5,0,10,4.5,10,10s-4.5,10-10,10H91c-5.5,0-10-4.5-10-10s4.5-10,10-10H163.3z M109.3,120.4c0-0.7,0.1-1.3,0.2-2    c0.1-0.6,0.3-1.3,0.6-1.9c0.2-0.6,0.6-1.2,0.9-1.7c0.7-1.1,1.7-2,2.8-2.8c0.5-0.4,1.1-0.7,1.7-0.9c0.6-0.2,1.2-0.4,1.9-0.6    c1.3-0.3,2.6-0.3,3.9,0c0.6,0.1,1.3,0.3,1.9,0.6c0.6,0.2,1.2,0.6,1.7,0.9c1.1,0.7,2,1.7,2.8,2.8c0.4,0.5,0.7,1.1,0.9,1.7    c0.3,0.6,0.4,1.2,0.6,1.9c0.1,0.7,0.2,1.3,0.2,2c0,0.7-0.1,1.3-0.2,2c-0.1,0.6-0.3,1.3-0.6,1.9c-0.3,0.6-0.6,1.2-0.9,1.7    c-0.4,0.5-0.8,1.1-1.2,1.5c-0.5,0.5-1,0.9-1.5,1.2c-0.5,0.4-1.1,0.7-1.7,0.9c-0.6,0.3-1.2,0.4-1.9,0.6c-0.7,0.1-1.3,0.2-2,0.2    c-0.7,0-1.3-0.1-2-0.2c-0.6-0.1-1.3-0.3-1.9-0.6c-1.2-0.5-2.3-1.2-3.2-2.2c-0.4-0.5-0.8-1-1.2-1.5c-0.4-0.5-0.7-1.1-0.9-1.7    c-0.2-0.6-0.4-1.2-0.6-1.9C109.4,121.8,109.3,121.1,109.3,120.4L109.3,120.4z M136.4,120.4c0-5.5,4.5-10,10-10h16.9    c5.5,0,10,4.5,10,10c0,5.5-4.5,10-10,10h-16.9C140.9,130.4,136.4,125.9,136.4,120.4C136.4,120.4,136.4,120.4,136.4,120.4    L136.4,120.4z M144.7,178.8c0,5.5-4.5,10-10,10H91c-5.5,0-10-4.5-10-10s4.5-10,10-10h43.6C140.2,168.8,144.6,173.2,144.7,178.8    C144.7,178.7,144.7,178.8,144.7,178.8L144.7,178.8z M98.1,127.5c-0.9,0.9-2,1.7-3.2,2.2c-1.2,0.5-2.5,0.8-3.8,0.8    c-0.7,0-1.3-0.1-2-0.2c-0.6-0.1-1.3-0.3-1.9-0.6c-0.6-0.3-1.2-0.6-1.7-0.9c-0.5-0.4-1-0.8-1.4-1.2c-0.5-0.5-0.9-1-1.3-1.5    c-0.4-0.5-0.7-1.1-0.9-1.7c-0.2-0.6-0.4-1.2-0.6-1.9c-0.1-0.7-0.2-1.3-0.2-2c0-0.7,0.1-1.3,0.2-2c0.1-0.6,0.3-1.3,0.6-1.9    c0.2-0.6,0.6-1.2,0.9-1.7c0.4-0.5,0.8-1,1.3-1.5c3.4-3.4,8.7-3.9,12.6-1.2c0.5,0.4,1.1,0.8,1.5,1.2c0.5,0.5,0.9,1,1.3,1.5    c0.4,0.5,0.7,1.1,0.9,1.7c0.3,0.6,0.4,1.2,0.6,1.9c0.1,0.7,0.2,1.3,0.2,2C101.1,123.1,100,125.6,98.1,127.5z M78,202.1l-23.3,23.3    c-1.9,1.9-4.4,2.9-7.1,2.9c-0.5,0-1.1,0-1.6-0.1c-3.2-0.5-5.9-2.6-7.3-5.5l-6.9-14.1c-2.4-5-0.4-11,4.6-13.4    c5-2.4,11-0.4,13.4,4.6l0.8,1.5L63.8,188c3.9-3.9,10.3-3.9,14.2,0C81.9,191.9,81.9,198.2,78,202.1z M78,143.8l-23.3,23.3    c-1.9,1.9-4.4,2.9-7.1,2.9c-0.6,0-1.1,0-1.7-0.1c-3.2-0.5-5.9-2.6-7.3-5.5l-6.9-14.1c-2.4-5-0.4-11,4.6-13.4    c5-2.4,11-0.4,13.4,4.6l0.8,1.5l13.3-13.3c3.9-3.9,10.2-3.9,14.1,0C81.9,133.5,81.9,139.9,78,143.8z M78,85l-23.3,23.3    c-1.9,1.9-4.4,2.9-7.1,2.9c-0.6,0-1.1,0-1.7-0.1c-3.2-0.5-5.9-2.6-7.3-5.5l-6.9-14.1c-2.4-5-0.4-11,4.6-13.4    c5-2.4,11-0.4,13.4,4.6l0,0l0.8,1.5l13.3-13.3C67.7,67,74,67,78,70.8C81.9,74.7,81.9,81.1,78,85L78,85z M98.1,213.8    c-0.5,0.5-1,0.9-1.5,1.2c-1.1,0.7-2.3,1.2-3.6,1.5c-0.7,0.1-1.3,0.2-2,0.2c-0.7,0-1.3-0.1-2-0.2c-0.6-0.1-1.3-0.3-1.9-0.6    c-0.6-0.3-1.2-0.6-1.7-0.9c-0.5-0.4-1-0.8-1.4-1.2c-0.5-0.5-0.9-1-1.2-1.5c-0.4-0.5-0.7-1.1-0.9-1.7c-0.3-0.6-0.4-1.2-0.6-1.9    c-0.1-0.6-0.2-1.3-0.2-1.9c0-0.7,0.1-1.3,0.2-2c0.1-0.6,0.3-1.3,0.6-1.9c0.3-0.6,0.6-1.2,0.9-1.7c0.4-0.5,0.8-1,1.2-1.5    c0.5-0.5,1-0.9,1.5-1.3c0.5-0.4,1.1-0.7,1.7-0.9c0.6-0.3,1.2-0.4,1.9-0.6c1.3-0.3,2.6-0.3,3.9,0c1.3,0.3,2.5,0.8,3.6,1.5    c1.6,1.1,2.9,2.7,3.7,4.5c0.2,0.6,0.4,1.2,0.6,1.9C101.5,208,100.5,211.4,98.1,213.8L98.1,213.8z M163.3,216.7h-44    c-5.5,0-10-4.5-10-10s4.5-10,10-10h44c5.5,0,10,4.5,10,10S168.8,216.7,163.3,216.7z M173.1,180.7c-0.1,0.6-0.3,1.3-0.6,1.9    c-0.2,0.6-0.6,1.2-0.9,1.7c-0.7,1.1-1.7,2-2.8,2.8c-0.5,0.4-1.1,0.7-1.7,0.9c-0.6,0.3-1.2,0.4-1.9,0.6c-0.6,0.1-1.3,0.2-1.9,0.2    c-0.7,0-1.3-0.1-2-0.2c-0.6-0.1-1.3-0.3-1.9-0.6c-0.6-0.3-1.2-0.6-1.7-0.9c-0.5-0.4-1.1-0.8-1.5-1.2c-0.5-0.5-0.9-1-1.3-1.5    c-0.4-0.5-0.7-1.1-0.9-1.7c-0.3-0.6-0.4-1.2-0.6-1.9c-0.1-0.6-0.2-1.3-0.2-1.9c0-0.7,0.1-1.3,0.2-2c0.3-1.3,0.8-2.5,1.5-3.6    c0.4-0.5,0.8-1.1,1.3-1.5c0.9-0.9,2-1.7,3.2-2.2c0.6-0.2,1.2-0.4,1.9-0.6c1.3-0.3,2.6-0.3,3.9,0c0.6,0.1,1.3,0.3,1.9,0.6    c0.6,0.2,1.2,0.6,1.7,0.9c2.2,1.5,3.7,3.8,4.3,6.4c0.1,0.7,0.2,1.3,0.2,2C173.3,179.4,173.2,180.1,173.1,180.7L173.1,180.7z     M173.3,92.5c0,5.5-4.5,10-10,10H91c-5.5,0-10-4.5-10-10s4.5-10,10-10h72.3C168.8,82.4,173.3,86.9,173.3,92.5    C173.3,92.4,173.3,92.5,173.3,92.5L173.3,92.5z"/>
		<path class="st1" d="M91,82.5c-5.5,0-10,4.5-10,10s4.5,10,10,10h72.3c5.5,0,10-4.5,10-10s-4.5-10-10-10H91z"/>
		<path class="st1" d="M111,126c0.4,0.5,0.8,1.1,1.3,1.5c0.9,0.9,2,1.7,3.2,2.2c0.6,0.2,1.2,0.4,1.9,0.6c0.7,0.1,1.3,0.2,2,0.2    c0.7,0,1.3-0.1,2-0.2c0.6-0.1,1.3-0.3,1.9-0.6c0.6-0.2,1.2-0.6,1.7-0.9c0.5-0.4,1.1-0.8,1.5-1.3c0.5-0.5,0.9-1,1.2-1.5    c0.4-0.5,0.7-1.1,0.9-1.7c0.2-0.6,0.4-1.2,0.6-1.9c0.1-0.7,0.2-1.3,0.2-2c0-0.7-0.1-1.3-0.2-2c-0.1-0.6-0.3-1.3-0.6-1.9    c-0.2-0.6-0.6-1.2-0.9-1.7c-0.7-1.1-1.7-2-2.8-2.8c-0.5-0.4-1.1-0.7-1.7-0.9c-0.6-0.3-1.2-0.4-1.9-0.6c-1.3-0.3-2.6-0.3-3.9,0    c-0.6,0.1-1.3,0.3-1.9,0.6c-0.6,0.3-1.2,0.6-1.7,0.9c-1.1,0.7-2,1.7-2.8,2.8c-0.4,0.5-0.7,1.1-0.9,1.7c-0.3,0.6-0.4,1.2-0.6,1.9    c-0.1,0.7-0.2,1.3-0.2,2c0,0.7,0.1,1.3,0.2,2c0.1,0.6,0.3,1.3,0.6,1.9C110.4,124.9,110.7,125.5,111,126z"/>
		<path class="st1" d="M100.3,116.6c-0.2-0.6-0.6-1.2-0.9-1.7c-0.4-0.5-0.8-1.1-1.3-1.5c-0.5-0.5-1-0.9-1.5-1.2    c-4-2.6-9.2-2.1-12.6,1.2c-0.5,0.5-0.9,1-1.2,1.5c-0.4,0.5-0.7,1.1-0.9,1.7c-0.3,0.6-0.4,1.2-0.6,1.9c-0.1,0.7-0.2,1.3-0.2,2    c0,0.7,0.1,1.3,0.2,2c0.1,0.6,0.3,1.3,0.6,1.9c0.3,0.6,0.6,1.2,0.9,1.7c0.4,0.5,0.8,1,1.2,1.4c0.5,0.5,1,0.9,1.5,1.2    c0.5,0.4,1.1,0.7,1.7,0.9c0.6,0.3,1.2,0.4,1.9,0.6c0.7,0.1,1.3,0.2,2,0.2c1.3,0,2.6-0.3,3.8-0.8c1.2-0.5,2.3-1.2,3.2-2.2    c1.9-1.9,2.9-4.4,2.9-7.1c0-0.7-0.1-1.3-0.2-2C100.8,117.8,100.5,117.2,100.3,116.6z"/>
		<path class="st1" d="M163.3,130.4c5.5,0,10-4.5,10-10s-4.5-10-10-10h-16.9c-5.5,0-10,4.5-10,10s4.5,10,10,10H163.3z"/>
		<path class="st1" d="M81,148.4c0,5.5,4.5,10,10,10h72.3c5.5,0,10-4.5,10-10s-4.5-10-10-10H91C85.5,138.4,81,142.8,81,148.4z"/>
		<path class="st1" d="M163.3,196.7h-44c-5.5,0-10,4.5-10,10s4.5,10,10,10h44c5.5,0,10-4.5,10-10S168.8,196.7,163.3,196.7z"/>
		<path class="st1" d="M91,168.8c-5.5,0-10,4.5-10,10s4.5,10,10,10h43.6c5.5,0,10-4.5,10-10s-4.5-10-10-10H91z"/>
		<path class="st1" d="M100.3,202.9c-1.3-3.1-4-5.3-7.3-6c-1.3-0.3-2.6-0.3-3.9,0c-0.6,0.1-1.3,0.3-1.9,0.6    c-0.6,0.3-1.2,0.6-1.7,0.9c-0.5,0.4-1,0.8-1.5,1.3c-0.5,0.5-0.9,1-1.2,1.5c-0.4,0.5-0.7,1.1-0.9,1.7c-0.2,0.6-0.4,1.2-0.6,1.9    c-0.1,0.7-0.2,1.3-0.2,2c0,0.7,0.1,1.3,0.2,1.9c0.1,0.6,0.3,1.3,0.6,1.9c0.2,0.6,0.6,1.2,0.9,1.7c0.4,0.5,0.8,1,1.2,1.5    c0.4,0.5,0.9,0.9,1.5,1.2c0.5,0.4,1.1,0.7,1.7,0.9c0.6,0.3,1.2,0.4,1.9,0.6c0.7,0.1,1.3,0.2,2,0.2c1.3,0,2.6-0.3,3.8-0.8    c0.6-0.3,1.2-0.6,1.7-0.9c0.5-0.4,1.1-0.8,1.5-1.2c2.4-2.3,3.4-5.7,2.7-9C100.7,204.1,100.5,203.5,100.3,202.9z"/>
		<path class="st1" d="M172.5,175c-0.7-1.8-2-3.4-3.7-4.5c-0.5-0.4-1.1-0.7-1.7-0.9c-0.6-0.3-1.2-0.4-1.9-0.6    c-1.3-0.3-2.6-0.3-3.9,0c-0.6,0.1-1.3,0.3-1.9,0.6c-1.2,0.5-2.3,1.2-3.2,2.2c-0.5,0.5-0.9,1-1.3,1.5c-0.7,1.1-1.2,2.3-1.5,3.6    c-0.1,0.7-0.2,1.3-0.2,2c0,0.7,0.1,1.3,0.2,1.9c0.1,0.6,0.3,1.3,0.6,1.9c0.2,0.6,0.6,1.2,0.9,1.7c0.4,0.5,0.8,1.1,1.3,1.5    c0.5,0.5,1,0.9,1.5,1.2c0.5,0.4,1.1,0.7,1.7,0.9c0.6,0.2,1.2,0.4,1.9,0.6c0.7,0.1,1.3,0.2,2,0.2c0.7,0,1.3-0.1,1.9-0.2    c0.6-0.1,1.3-0.3,1.9-0.6c0.6-0.2,1.2-0.6,1.7-0.9c1.1-0.7,2-1.7,2.8-2.8c0.4-0.5,0.7-1.1,0.9-1.7c0.3-0.6,0.4-1.2,0.6-1.9    c0.1-0.6,0.2-1.3,0.2-1.9c0-0.7-0.1-1.3-0.2-2C173,176.2,172.8,175.6,172.5,175z"/>
		<path class="st1" d="M199.6,16.9h-43.3V10c0-5.5-4.5-10-10-10H63.3c-5.5,0-10,4.5-10,10v6.9H10c-5.5,0-10,4.5-10,10v228.5    c0,5.5,4.5,10,10,10c0,0,0,0,0,0h189.6c5.5,0,10-4.5,10-10l0,0V26.9C209.6,21.4,205.2,16.9,199.6,16.9z M189.6,245.4H20V36.9h33.3    v6.9c0,5.5,4.5,10,10,10h83.1c5.5,0,10-4.5,10-10v-6.9h33.3V245.4z"/>
		<path class="st1" d="M63.8,70.9L50.5,84.2l-0.8-1.5c-2.4-5-8.4-7-13.4-4.6c-5,2.4-7,8.4-4.6,13.4l6.9,14.1c1.4,2.9,4.2,5,7.4,5.5    c0.5,0.1,1.1,0.1,1.7,0.1c2.7,0,5.2-1.1,7.1-2.9L78,85c3.9-3.9,3.9-10.3,0-14.2C74,67,67.7,67,63.8,70.9z"/>
		<path class="st1" d="M63.8,129.6L50.5,143l-0.8-1.5c-2.4-5-8.4-7-13.4-4.6c-5,2.4-7,8.4-4.6,13.4l6.9,14.1c1.4,2.9,4.2,5,7.4,5.5    c0.5,0.1,1.1,0.1,1.7,0.1c2.7,0,5.2-1.1,7.1-2.9L78,143.8c3.8-4,3.7-10.3-0.2-14.1C73.9,125.9,67.7,125.9,63.8,129.6L63.8,129.6z"/>
		<path class="st1" d="M63.8,188l-13.3,13.4l-0.8-1.5c-2.4-5-8.4-7-13.4-4.6c-5,2.4-7,8.4-4.6,13.4l6.9,14.1c1.4,2.9,4.2,5,7.4,5.5    c0.5,0.1,1.1,0.1,1.7,0.1c2.7,0,5.2-1,7.1-2.9L78,202.1c3.9-3.9,3.9-10.3,0-14.2C74.1,184.1,67.7,184.1,63.8,188z"/>
	</g>
</g>
</svg>