<?xml version="1.0" encoding="UTF-8"?>
<!-- Generator: Adobe Illustrator 24.0.1, SVG Export Plug-In . SVG Version: 6.00 Build 0)  -->
<svg version="1.1" id="Camada_1" xmlns="http://www.w3.org/2000/svg" xmlns:xlink="http://www.w3.org/1999/xlink" x="0px" y="0px" viewBox="0 0 303.8 283.3" style="enable-background:new 0 0 303.8 283.3;" xml:space="preserve">
<style type="text/css">
	.st0{fill:none;}
	.st1{fill:#214654;}
</style>
<title>duracao</title>
<g id="Camada_2_1_">
	<g id="Layer_1">
		<path class="st0" d="M59,22.4c-14-6.2-30.4,0.1-36.6,14.1c-3.2,7.2-3.2,15.3,0,22.5L59,22.4z"/>
		<path class="st0" d="M151.9,40.6C90.4,40.6,40.6,90.5,40.7,152s49.9,111.3,111.4,111.2s111.3-49.9,111.2-111.4    c0-29.5-11.8-57.8-32.6-78.7C209.8,52.2,181.4,40.5,151.9,40.6z M141.9,59.3c0-5.5,4.5-10,10-10s10,4.5,10,10V70    c0,5.5-4.5,10-10,10s-10-4.5-10-10V59.3z M141.9,110.2c0-5.5,4.5-10,10-10s10,4.5,10,10v17.6l48.4-48.4c3.8-4,10.2-4.1,14.1-0.2    s4.1,10.2,0.2,14.1c-0.1,0.1-0.2,0.2-0.2,0.2L159,159c-1.9,1.9-4.4,2.9-7.1,2.9c-1.3,0-2.6-0.3-3.8-0.8c-3.7-1.5-6.2-5.2-6.2-9.2    L141.9,110.2z M70,161.9H59.3c-5.5,0-10-4.5-10-10s4.5-10,10-10H70c5.5,0,10,4.5,10,10S75.5,161.9,70,161.9z M101.1,216.9    l-7.6,7.6c-3.9,3.9-10.2,3.9-14.1,0c-3.9-3.9-3.9-10.2,0-14.1l0,0l7.6-7.6c3.9-3.9,10.2-3.9,14.1,0C105,206.7,105,213,101.1,216.9    z M101.1,101.1c-3.9,3.9-10.2,3.9-14.1,0c0,0,0,0,0,0l-7.6-7.6c-3.9-3.9-3.9-10.2,0-14.2s10.2-3.9,14.2,0l7.6,7.6    C105,90.8,105,97.2,101.1,101.1C101.1,101.1,101.1,101.1,101.1,101.1L101.1,101.1z M161.9,244.5c0,5.5-4.5,10-10,10s-10-4.5-10-10    v-10.7c0-5.5,4.5-10,10-10s10,4.5,10,10V244.5z M224.4,224.4c-3.9,3.9-10.2,3.9-14.1,0l-7.6-7.6c-3.8-4-3.7-10.3,0.2-14.1    c3.9-3.7,10-3.7,13.9,0l7.6,7.6C228.4,214.2,228.4,220.5,224.4,224.4z M244.5,141.9c5.5,0,10,4.5,10,10s-4.5,10-10,10h-10.7    c-5.5,0-10-4.5-10-10s4.5-10,10-10H244.5z"/>
		<path class="st0" d="M281.4,59c6.2-14-0.1-30.4-14.1-36.6c-7.2-3.2-15.3-3.2-22.5,0L281.4,59z"/>
		<path class="st1" d="M151.9,80c5.5,0,10-4.5,10-10V59.3c0-5.5-4.5-10-10-10s-10,4.5-10,10V70C141.9,75.5,146.4,80,151.9,80z"/>
		<path class="st1" d="M80,151.9c0-5.5-4.5-10-10-10H59.3c-5.5,0-10,4.5-10,10s4.5,10,10,10H70C75.5,161.9,80,157.4,80,151.9z"/>
		<path class="st1" d="M151.9,223.8c-5.5,0-10,4.5-10,10v10.7c0,5.5,4.5,10,10,10s10-4.5,10-10v-10.7    C161.9,228.3,157.4,223.8,151.9,223.8z"/>
		<path class="st1" d="M223.8,151.9c0,5.5,4.5,10,10,10h10.7c5.5,0,10-4.5,10-10s-4.5-10-10-10h-10.7    C228.3,141.9,223.8,146.4,223.8,151.9z"/>
		<path class="st1" d="M93.5,79.3c-3.9-3.9-10.2-3.9-14.2,0s-3.9,10.2,0,14.2l7.6,7.6c3.9,3.9,10.2,3.9,14.2,0s3.9-10.2,0-14.2l0,0    L93.5,79.3z"/>
		<path class="st1" d="M275.7,81.5c3.9,3.9,10.2,3.9,14.1,0c19-18.3,19.6-48.5,1.3-67.5s-48.5-19.6-67.5-1.3    c-0.4,0.4-0.9,0.8-1.3,1.3c-0.5,0.5-0.9,1-1.3,1.5c-0.2,0.3-0.4,0.6-0.5,0.8c-2,3.9-1.3,8.6,1.8,11.7l0,0l19.6,19.6l-4.4,4.5    c-49.2-42.1-121.9-42.1-171.1,0l-4.5-4.5l19.6-19.6l0,0c3.1-3.1,3.8-7.8,1.8-11.7c-0.2-0.3-0.3-0.6-0.5-0.9    C82.4,15,82,14.5,81.5,14C62.4-4.1,32.1-3.3,14,15.9C-3.4,34.3-3.4,63.1,14,81.5c3.9,3.9,10.2,3.9,14.1,0l19.6-19.6l4.5,4.5    C7.9,117.9,10.2,196,59,244.8c51.2,51.4,134.4,51.5,185.8,0.3c48.7-48.6,51.7-126.5,6.8-178.7l4.5-4.5L275.7,81.5z M28.1,28.1    C36.2,20,48.5,17.7,59,22.4L22.4,59C17.7,48.5,20,36.2,28.1,28.1z M230.7,230.6c-43.5,43.5-114,43.4-157.4-0.1    s-43.4-114,0.1-157.4c43.5-43.4,113.9-43.4,157.4,0C274.1,116.7,274.1,187.1,230.7,230.6z M275.7,28.1c8.1,8.1,10.4,20.4,5.8,30.9    l-36.6-36.6C255.3,17.7,267.6,20,275.7,28.1L275.7,28.1z"/>
		<path class="st1" d="M86.9,202.7l-7.6,7.6c-3.9,3.9-3.9,10.2,0,14.1c3.9,3.9,10.2,3.9,14.1,0l7.6-7.6c3.9-3.9,3.9-10.2,0-14.1    C97.2,198.8,90.8,198.8,86.9,202.7L86.9,202.7L86.9,202.7z"/>
		<path class="st1" d="M216.9,202.7c-4-3.8-10.3-3.7-14.1,0.2c-3.7,3.9-3.7,10,0,13.9l7.6,7.6c4,3.8,10.3,3.7,14.1-0.2    c3.7-3.9,3.7-10,0-13.9L216.9,202.7z"/>
		<path class="st1" d="M148.1,161.1c1.2,0.5,2.5,0.8,3.8,0.8c2.7,0,5.2-1,7.1-2.9l65.5-65.5c4-3.8,4.1-10.2,0.2-14.1    s-10.2-4.1-14.1-0.2c-0.1,0.1-0.2,0.2-0.2,0.2l-48.4,48.4v-17.6c0-5.5-4.5-10-10-10s-10,4.5-10,10v41.7    C141.9,155.9,144.3,159.6,148.1,161.1z"/>
	</g>
</g>
</svg>